<?xml version="1.0" encoding="utf-8"?>
<svg id="master-artboard" viewBox="0 0 1400 980" version="1.1" xmlns="http://www.w3.org/2000/svg" x="0px" y="0px" style="enable-background:new 0 0 1400 980;" width="1400px" height="980px"><defs><style id="ee-google-fonts">@import url(https://fonts.googleapis.com/css?family=Aldrich:400);</style></defs><rect id="ee-background" x="0" y="0" width="1400" height="980" style="fill: rgb(245, 244, 235); fill-opacity: 1; pointer-events: none;"/>



<path d="M 862.7000122070312 482.8999938964844 L 894 451.6000061035156 L 938.2999877929688 451.6000061035156 L 969.5999755859375 482.8999938964844 L 969.5999755859375 505 L 1027.5 505 L 1027.5 458.8999938964844 L 962.2999877929688 393.6000061035156 L 870 393.6000061035156 L 804.7000122070312 458.8999938964844 L 804.7000122070312 505 L 862.7000122070312 505 Z" class="st3" style="fill: rgb(4, 4, 4);" transform="matrix(-0.005350895226001741, 1.3615312576293948, -1.3615312576293948, -0.005350895226001741, 1220.1916335291876, -836.8748154103998)"/><path d="M 862.7000122070312 482.8999938964844 L 894 451.6000061035156 L 938.2999877929688 451.6000061035156 L 969.5999755859375 482.8999938964844 L 969.5999755859375 505 L 1027.5 505 L 1027.5 458.8999938964844 L 962.2999877929688 393.6000061035156 L 870 393.6000061035156 L 804.7000122070312 458.8999938964844 L 804.7000122070312 505 L 862.7000122070312 505 Z" class="st3" style="fill: rgb(76, 85, 92);" transform="matrix(-0.005350895226001741, 1.3615312576293948, -1.3615312576293948, -0.005350895226001741, 1249.993757552625, -836.3917831838376)"/><path d="M 862.7000122070312 482.8999938964844 L 894 451.6000061035156 L 938.2999877929688 451.6000061035156 L 969.5999755859375 482.8999938964844 L 969.5999755859375 505 L 1027.5 505 L 1027.5 458.8999938964844 L 962.2999877929688 393.6000061035156 L 870 393.6000061035156 L 804.7000122070312 458.8999938964844 L 804.7000122070312 505 L 862.7000122070312 505 Z" class="st3" style="fill: rgb(2, 3, 3);" transform="matrix(-0.005350895226001741, 1.3615312576293948, -1.3615312576293948, -0.005350895226001741, 1400.774763412, -718.6359848439936)"/><path d="M 1027.5 482.8999938964844 L 1058.9000244140625 451.6000061035156 L 1103.199951171875 451.6000061035156 L 1134.5 482.8999938964844 L 1134.5 505 L 1192.4000244140625 505 L 1192.4000244140625 458.8999938964844 L 1127.199951171875 393.6000061035156 L 1034.9000244140625 393.6000061035156 L 969.5999755859375 458.8999938964844 L 969.5999755859375 505 L 1027.5 505 Z" class="st2" style="fill: rgb(54, 65, 71);" transform="matrix(0.03230948746204376, 1.361159324645996, -1.361159324645996, 0.03230948746204376, 1391.736433333875, -960.5513901174313)"/><path d="M 505.78948974609375 414.2105407714844" style="fill: rgb(54, 65, 71); fill-opacity: 1; stroke: rgb(0, 0, 0); stroke-opacity: 1; stroke-width: 0; paint-order: fill;" transform="matrix(1, 0, 0, 1, -3.1578947764684244, 0)"/></svg>