<?xml version="1.0" encoding="utf-8"?>
<svg id="master-artboard" viewBox="0 0 1400 980" version="1.1" xmlns="http://www.w3.org/2000/svg" x="0px" y="0px" style="enable-background:new 0 0 1400 980;" width="1400px" height="980px"><defs><style id="ee-google-fonts">@import url(https://fonts.googleapis.com/css?family=Aldrich:400);</style></defs><rect id="ee-background" x="0" y="0" width="1400" height="980" style="fill: rgb(245, 244, 235); fill-opacity: 1; pointer-events: none;"/>



<path d="M 862.7000122070312 482.8999938964844 L 894 451.6000061035156 L 938.2999877929688 451.6000061035156 L 969.5999755859375 482.8999938964844 L 969.5999755859375 505 L 1027.5 505 L 1027.5 458.8999938964844 L 962.2999877929688 393.6000061035156 L 870 393.6000061035156 L 804.7000122070312 458.8999938964844 L 804.7000122070312 505 L 862.7000122070312 505 Z" class="st3" style="fill: rgb(4, 4, 4);" transform="matrix(-0.005350894760340452, 1.3615312576293945, -1.3615312576293945, -0.005350894760340452, 1186.9337473866685, -821.9087655088579)"/><path d="M 862.7000122070312 482.8999938964844 L 894 451.6000061035156 L 938.2999877929688 451.6000061035156 L 969.5999755859375 482.8999938964844 L 969.5999755859375 505 L 1027.5 505 L 1027.5 458.8999938964844 L 962.2999877929688 393.6000061035156 L 870 393.6000061035156 L 804.7000122070312 458.8999938964844 L 804.7000122070312 505 L 862.7000122070312 505 Z" class="st3" style="fill: rgb(76, 85, 92);" transform="matrix(-0.005350894760340452, 1.3615312576293945, -1.3615312576293945, -0.005350894760340452, 1216.735871410106, -821.4257332822953)"/><path d="M 862.7000122070312 482.8999938964844 L 894 451.6000061035156 L 938.2999877929688 451.6000061035156 L 969.5999755859375 482.8999938964844 L 969.5999755859375 505 L 1027.5 505 L 1027.5 458.8999938964844 L 962.2999877929688 393.6000061035156 L 870 393.6000061035156 L 804.7000122070312 458.8999938964844 L 804.7000122070312 505 L 862.7000122070312 505 Z" class="st3" style="fill: rgb(2, 3, 3);" transform="matrix(-0.005350894760340452, 1.3615312576293945, -1.3615312576293945, -0.005350894760340452, 1367.5168162343243, -703.6699349424516)"/><path d="M 1027.5 482.8999938964844 L 1058.9000244140625 451.6000061035156 L 1103.199951171875 451.6000061035156 L 1134.5 482.8999938964844 L 1134.5 505 L 1192.4000244140625 505 L 1192.4000244140625 458.8999938964844 L 1127.199951171875 393.6000061035156 L 1034.9000244140625 393.6000061035156 L 969.5999755859375 458.8999938964844 L 969.5999755859375 505 L 1027.5 505 Z" class="st2" style="fill: rgb(54, 65, 71);" transform="matrix(0.032309487462043755, 1.3611593246459959, -1.3611593246459959, 0.032309487462043755, 1358.478515625, -945.5853271484374)"/><path d="M 505.78948974609375 414.2105407714844" style="fill: rgb(54, 65, 71); fill-opacity: 1; stroke: rgb(0, 0, 0); stroke-opacity: 1; stroke-width: 0; paint-order: fill;" transform="matrix(1, 0, 0, 1, -3.1578947764684244, 0)"/><path d="M 12.710000038146973 15.149999618530273 C 14.036666870117188 15.149999618530273 15.056666374206543 14.793333053588867 15.770000457763672 14.079999923706055 C 16.483333587646484 13.360000610351562 16.84000015258789 12.336666107177734 16.84000015258789 11.010000228881836 L 16.84000015258789 5.029999732971191 C 16.84000015258789 4.383333206176758 16.746665954589844 3.803333282470703 16.559999465942383 3.2899999618530273 C 16.373332977294922 2.7833337783813477 16.10333251953125 2.3500003814697266 15.75 1.989999771118164 C 15.390000343322754 1.6299991607666016 14.953332901000977 1.3600006103515625 14.4399995803833 1.1800003051757812 C 13.933333396911621 0.9933338165283203 13.356666564941406 0.8999996185302734 12.710000038146973 0.8999996185302734 L 5.409999847412109 0.8999996185302734 L 5.409999847412109 15.149999618530273 L 12.710000038146973 15.149999618530273 M 2.559999942779541 18 L 2.559999942779541 -1.9599990844726562 L 12.710000038146973 -1.9599990844726562 C 13.776666641235352 -1.9599990844726562 14.736666679382324 -1.7933330535888672 15.59000015258789 -1.4599990844726562 C 16.450000762939453 -1.1333332061767578 17.183332443237305 -0.6666660308837891 17.790000915527344 -0.05999946594238281 C 18.39666748046875 0.5533332824707031 18.866666793823242 1.2900009155273438 19.200000762939453 2.1499996185302734 C 19.52666664123535 3.010000228881836 19.690000534057617 3.9700002670288086 19.690000534057617 5.029999732971191 L 19.690000534057617 11.010000228881836 C 19.690000534057617 12.069999694824219 19.52666664123535 13.030000686645508 19.200000762939453 13.889999389648438 C 18.866666793823242 14.75666618347168 18.39666748046875 15.49333381652832 17.790000915527344 16.100000381469727 C 17.183332443237305 16.706666946411133 16.450000762939453 17.176666259765625 15.59000015258789 17.510000228881836 C 14.736666679382324 17.836666107177734 13.776666641235352 18 12.710000038146973 18 L 2.559999942779541 18 ZM 44.55175018310547 -1.9599990844726562 L 44.55175018310547 18 L 41.70174789428711 18 L 41.70174789428711 9.460000038146973 L 30.271747589111328 9.460000038146973 L 30.271747589111328 18 L 27.4217472076416 18 L 27.4217472076416 -1.9599990844726562 L 30.271747589111328 -1.9599990844726562 L 30.271747589111328 6.600000381469727 L 41.70174789428711 6.600000381469727 L 41.70174789428711 -1.9599990844726562 L 44.55175018310547 -1.9599990844726562 ZM 68.61013793945312 5.170000076293945 C 68.61013793945312 7.949999809265137 67.42013549804688 9.536666870117188 65.0401382446289 9.930000305175781 L 68.80014038085938 18 L 65.64013671875 18 L 61.94013595581055 10.030000686645508 L 55.69013595581055 10.030000686645508 L 55.69013595581055 18 L 52.84013748168945 18 L 52.84013748168945 -1.9599990844726562 L 63.760135650634766 -1.9599990844726562 C 66.99346923828125 -1.9599990844726562 68.61013793945312 -0.3400001525878906 68.61013793945312 2.8999996185302734 L 68.61013793945312 5.170000076293945 M 55.69013595581055 7.170000076293945 L 63.610137939453125 7.170000076293945 C 64.37013244628906 7.170000076293945 64.91680145263672 7.00333309173584 65.25013732910156 6.670000076293945 C 65.58346557617188 6.336667060852051 65.75013732910156 5.789999961853027 65.75013732910156 5.029999732971191 L 65.75013732910156 3.0399999618530273 C 65.75013732910156 2.2799997329711914 65.58346557617188 1.7333335876464844 65.25013732910156 1.3999996185302734 C 64.91680145263672 1.0666675567626953 64.37013244628906 0.8999996185302734 63.610137939453125 0.8999996185302734 L 55.69013595581055 0.8999996185302734 L 55.69013595581055 7.170000076293945 ZM 76.5329360961914 -1.9599990844726562 L 79.3829345703125 -1.9599990844726562 L 79.3829345703125 15.149999618530273 L 90.7829360961914 15.149999618530273 L 90.7829360961914 -1.9599990844726562 L 93.6329345703125 -1.9599990844726562 L 93.6329345703125 15.149999618530273 C 93.6329345703125 15.536666870117188 93.55960083007812 15.90333366394043 93.4129409790039 16.25 C 93.26627349853516 16.60333251953125 93.06294250488281 16.90999984741211 92.80294036865234 17.170000076293945 C 92.54293823242188 17.4233341217041 92.23960876464844 17.626667022705078 91.89293670654297 17.780000686645508 C 91.54627227783203 17.926666259765625 91.17626953125 18 90.7829360961914 18 L 79.3829345703125 18 C 78.99626922607422 18 78.62960815429688 17.926666259765625 78.2829360961914 17.780000686645508 C 77.93627166748047 17.626667022705078 77.63294219970703 17.4233341217041 77.37294006347656 17.170000076293945 C 77.1129379272461 16.90999984741211 76.9062728881836 16.60333251953125 76.75293731689453 16.25 C 76.60626983642578 15.90333366394043 76.5329360961914 15.536666870117188 76.5329360961914 15.149999618530273 L 76.5329360961914 -1.9599990844726562 ZM 112.22349548339844 18 L 104.77349853515625 3.369999885559082 L 104.77349853515625 18 L 101.92349243164062 18 L 101.92349243164062 -1.9599990844726562 L 105.04349517822266 -1.9599990844726562 L 112.64349365234375 13.069999694824219 L 120.25349426269531 -1.9599990844726562 L 123.3534927368164 -1.9599990844726562 L 123.3534927368164 18 L 120.51349639892578 18 L 120.51349639892578 3.369999885559082 L 113.07349395751953 18 L 112.22349548339844 18 ZM 134.505859375 -1.9599990844726562 L 134.505859375 18 L 131.65585327148438 18 L 131.65585327148438 -1.9599990844726562 L 134.505859375 -1.9599990844726562 ZM 145.6464080810547 18 L 142.79640197753906 18 L 142.79640197753906 -1.9599990844726562 L 145.6464080810547 -1.9599990844726562 L 157.6464080810547 13.520000457763672 L 157.6464080810547 -1.9599990844726562 L 160.49639892578125 -1.9599990844726562 L 160.49639892578125 18 L 157.6464080810547 18 L 145.6464080810547 2.5299997329711914 L 145.6464080810547 18 ZM 190.64645385742188 15.149999618530273 C 191.97311401367188 15.149999618530273 192.9931182861328 14.793333053588867 193.70645141601562 14.079999923706055 C 194.41978454589844 13.360000610351562 194.7764434814453 12.336666107177734 194.7764434814453 11.010000228881836 L 194.7764434814453 5.029999732971191 C 194.7764434814453 4.383333206176758 194.68310546875 3.803333282470703 194.49644470214844 3.2899999618530273 C 194.30978393554688 2.7833337783813477 194.03977966308594 2.3500003814697266 193.6864471435547 1.989999771118164 C 193.32644653320312 1.6299991607666016 192.88978576660156 1.3600006103515625 192.37644958496094 1.1800003051757812 C 191.86978149414062 0.9933338165283203 191.29312133789062 0.8999996185302734 190.64645385742188 0.8999996185302734 L 183.34645080566406 0.8999996185302734 L 183.34645080566406 15.149999618530273 L 190.64645385742188 15.149999618530273 M 180.49644470214844 18 L 180.49644470214844 -1.9599990844726562 L 190.64645385742188 -1.9599990844726562 C 191.71311950683594 -1.9599990844726562 192.67311096191406 -1.7933330535888672 193.5264434814453 -1.4599990844726562 C 194.38644409179688 -1.1333332061767578 195.11978149414062 -0.6666660308837891 195.7264404296875 -0.05999946594238281 C 196.33311462402344 0.5533332824707031 196.80311584472656 1.2900009155273438 197.13644409179688 2.1499996185302734 C 197.46311950683594 3.010000228881836 197.62644958496094 3.9700002670288086 197.62644958496094 5.029999732971191 L 197.62644958496094 11.010000228881836 C 197.62644958496094 12.069999694824219 197.46311950683594 13.030000686645508 197.13644409179688 13.889999389648438 C 196.80311584472656 14.75666618347168 196.33311462402344 15.49333381652832 195.7264404296875 16.100000381469727 C 195.11978149414062 16.706666946411133 194.38644409179688 17.176666259765625 193.5264434814453 17.510000228881836 C 192.67311096191406 17.836666107177734 191.71311950683594 18 190.64645385742188 18 L 180.49644470214844 18 ZM 205.35818481445312 -1.9599990844726562 L 219.898193359375 -1.9599990844726562 L 219.898193359375 0.8999996185302734 L 208.20819091796875 0.8999996185302734 L 208.20819091796875 6.600000381469727 L 218.1881866455078 6.600000381469727 L 218.1881866455078 9.460000038146973 L 208.20819091796875 9.460000038146973 L 208.20819091796875 15.149999618530273 L 219.898193359375 15.149999618530273 L 219.898193359375 18 L 205.35818481445312 18 L 205.35818481445312 -1.9599990844726562 ZM 230.18931579589844 9.460000038146973 C 229.80264282226562 9.460000038146973 229.43597412109375 9.383333206176758 229.0893096923828 9.229999542236328 C 228.74264526367188 9.076666831970215 228.43931579589844 8.869999885559082 228.17930603027344 8.609999656677246 C 227.9193115234375 8.356666564941406 227.712646484375 8.056666374206543 227.55931091308594 7.710000038146973 C 227.4126434326172 7.363333702087402 227.3393096923828 6.993332862854004 227.3393096923828 6.600000381469727 L 227.3393096923828 0.8999996185302734 C 227.3393096923828 0.5066661834716797 227.4126434326172 0.13666725158691406 227.55931091308594 -0.20999908447265625 C 227.712646484375 -0.5566673278808594 227.9193115234375 -0.8566665649414062 228.17930603027344 -1.1100006103515625 C 228.43931579589844 -1.3700008392333984 228.74264526367188 -1.5766658782958984 229.0893096923828 -1.7299995422363281 C 229.43597412109375 -1.8833332061767578 229.80264282226562 -1.9599990844726562 230.18931579589844 -1.9599990844726562 L 239.8793182373047 -1.9599990844726562 C 240.26597595214844 -1.9599990844726562 240.635986328125 -1.8833332061767578 240.98931884765625 -1.7299995422363281 C 241.3359832763672 -1.5766658782958984 241.63931274414062 -1.3700008392333984 241.89930725097656 -1.1100006103515625 C 242.15931701660156 -0.8566665649414062 242.36264038085938 -0.5566673278808594 242.50930786132812 -0.20999908447265625 C 242.65597534179688 0.13666725158691406 242.72930908203125 0.5066661834716797 242.72930908203125 0.8999996185302734 L 242.72930908203125 3.4700002670288086 L 239.8793182373047 3.4700002670288086 L 239.8793182373047 0.8999996185302734 L 230.18931579589844 0.8999996185302734 L 230.18931579589844 6.600000381469727 L 239.8793182373047 6.600000381469727 C 240.26597595214844 6.600000381469727 240.635986328125 6.676666259765625 240.98931884765625 6.829999923706055 C 241.3359832763672 6.976666450500488 241.63931274414062 7.180000305175781 241.89930725097656 7.439999580383301 C 242.15931701660156 7.699999809265137 242.36264038085938 8.00333309173584 242.50930786132812 8.350000381469727 C 242.65597534179688 8.696666717529297 242.72930908203125 9.066666603088379 242.72930908203125 9.460000038146973 L 242.72930908203125 15.149999618530273 C 242.72930908203125 15.536666870117188 242.65597534179688 15.90333366394043 242.50930786132812 16.25 C 242.36264038085938 16.60333251953125 242.15931701660156 16.90999984741211 241.89930725097656 17.170000076293945 C 241.63931274414062 17.4233341217041 241.3359832763672 17.626667022705078 240.98931884765625 17.780000686645508 C 240.635986328125 17.926666259765625 240.26597595214844 18 239.8793182373047 18 L 229.9193115234375 18 C 229.52598571777344 18 229.15597534179688 17.926666259765625 228.80931091308594 17.780000686645508 C 228.462646484375 17.626667022705078 228.15931701660156 17.4233341217041 227.89930725097656 17.170000076293945 C 227.63931274414062 16.90999984741211 227.43264770507812 16.60333251953125 227.27931213378906 16.25 C 227.1326446533203 15.90333366394043 227.05931091308594 15.536666870117188 227.05931091308594 15.149999618530273 L 227.05931091308594 12.59000015258789 L 229.9193115234375 12.59000015258789 L 229.9193115234375 15.149999618530273 L 239.8793182373047 15.149999618530273 L 239.8793182373047 9.460000038146973 L 230.18931579589844 9.460000038146973 ZM 259.8721008300781 -1.9599990844726562 L 267.5621032714844 18 L 264.71209716796875 18 L 262.9421081542969 13.40999984741211 L 253.94210815429688 13.40999984741211 L 252.17210388183594 18 L 249.32211303710938 18 L 257.0121154785156 -1.9599990844726562 L 259.8721008300781 -1.9599990844726562 M 255.02210998535156 10.550000190734863 L 261.84210205078125 10.550000190734863 L 258.4521179199219 1.760000228881836 L 255.02210998535156 10.550000190734863 ZM 277.0043640136719 -1.9599990844726562 L 277.0043640136719 18 L 274.15435791015625 18 L 274.15435791015625 -1.9599990844726562 L 277.0043640136719 -1.9599990844726562 Z" transform="matrix(0.011810723692178726, 1.5789023637771606, -1.5789023637771606, 0.011810723692178726, 900.7859497070312, 255.80313110351562)" style="fill: rgb(82, 82, 82);"/></svg>