<?xml version="1.0" encoding="utf-8"?>
<svg id="master-artboard" viewBox="0 0 1400 980" version="1.1" xmlns="http://www.w3.org/2000/svg" x="0px" y="0px" style="enable-background:new 0 0 1400 980;" width="1400px" height="980px"><defs><style id="ee-google-fonts">@import url(https://fonts.googleapis.com/css?family=Aldrich:400);</style></defs><rect id="ee-background" x="0" y="0" width="1400" height="980" style="fill: rgb(245, 244, 235); fill-opacity: 1; pointer-events: none;"/>



<path d="M 862.7000122070312 482.8999938964844 L 894 451.6000061035156 L 938.2999877929688 451.6000061035156 L 969.5999755859375 482.8999938964844 L 969.5999755859375 505 L 1027.5 505 L 1027.5 458.8999938964844 L 962.2999877929688 393.6000061035156 L 870 393.6000061035156 L 804.7000122070312 458.8999938964844 L 804.7000122070312 505 L 862.7000122070312 505 Z" class="st3" style="fill: rgb(4, 4, 4);" transform="matrix(-0.005350894760340452, 1.3615312576293945, -1.3615312576293945, -0.005350894760340452, 1186.9337473866685, -821.9087655088579)"/><path d="M 862.7000122070312 482.8999938964844 L 894 451.6000061035156 L 938.2999877929688 451.6000061035156 L 969.5999755859375 482.8999938964844 L 969.5999755859375 505 L 1027.5 505 L 1027.5 458.8999938964844 L 962.2999877929688 393.6000061035156 L 870 393.6000061035156 L 804.7000122070312 458.8999938964844 L 804.7000122070312 505 L 862.7000122070312 505 Z" class="st3" style="fill: rgb(76, 85, 92);" transform="matrix(-0.005350894760340452, 1.3615312576293945, -1.3615312576293945, -0.005350894760340452, 1216.735871410106, -821.4257332822953)"/><path d="M 862.7000122070312 482.8999938964844 L 894 451.6000061035156 L 938.2999877929688 451.6000061035156 L 969.5999755859375 482.8999938964844 L 969.5999755859375 505 L 1027.5 505 L 1027.5 458.8999938964844 L 962.2999877929688 393.6000061035156 L 870 393.6000061035156 L 804.7000122070312 458.8999938964844 L 804.7000122070312 505 L 862.7000122070312 505 Z" class="st3" style="fill: rgb(2, 3, 3);" transform="matrix(-0.005350894760340452, 1.3615312576293945, -1.3615312576293945, -0.005350894760340452, 1367.5168162343243, -703.6699349424516)"/><path d="M 1027.5 482.8999938964844 L 1058.9000244140625 451.6000061035156 L 1103.199951171875 451.6000061035156 L 1134.5 482.8999938964844 L 1134.5 505 L 1192.4000244140625 505 L 1192.4000244140625 458.8999938964844 L 1127.199951171875 393.6000061035156 L 1034.9000244140625 393.6000061035156 L 969.5999755859375 458.8999938964844 L 969.5999755859375 505 L 1027.5 505 Z" class="st2" style="fill: rgb(54, 65, 71);" transform="matrix(0.032309487462043755, 1.3611593246459959, -1.3611593246459959, 0.032309487462043755, 1358.478515625, -945.5853271484374)"/><path d="M 505.78948974609375 414.2105407714844" style="fill: rgb(54, 65, 71); fill-opacity: 1; stroke: rgb(0, 0, 0); stroke-opacity: 1; stroke-width: 0; paint-order: fill;" transform="matrix(1, 0, 0, 1, -3.1578947764684244, 0)"/><path d="M 12.710000038146973 15.149999618530273 C 14.036666870117188 15.149999618530273 15.056666374206543 14.793333053588867 15.770000457763672 14.079999923706055 C 16.483333587646484 13.360000610351562 16.84000015258789 12.336666107177734 16.84000015258789 11.010000228881836 L 16.84000015258789 5.029999732971191 C 16.84000015258789 4.383333206176758 16.746665954589844 3.803333282470703 16.559999465942383 3.2899999618530273 C 16.373332977294922 2.7833337783813477 16.10333251953125 2.3500003814697266 15.75 1.989999771118164 C 15.390000343322754 1.6299991607666016 14.953332901000977 1.3600006103515625 14.4399995803833 1.1800003051757812 C 13.933333396911621 0.9933338165283203 13.356666564941406 0.8999996185302734 12.710000038146973 0.8999996185302734 L 5.409999847412109 0.8999996185302734 L 5.409999847412109 15.149999618530273 L 12.710000038146973 15.149999618530273 M 2.559999942779541 18 L 2.559999942779541 -1.9599990844726562 L 12.710000038146973 -1.9599990844726562 C 13.776666641235352 -1.9599990844726562 14.736666679382324 -1.7933330535888672 15.59000015258789 -1.4599990844726562 C 16.450000762939453 -1.1333332061767578 17.183332443237305 -0.6666660308837891 17.790000915527344 -0.05999946594238281 C 18.39666748046875 0.5533332824707031 18.866666793823242 1.2900009155273438 19.200000762939453 2.1499996185302734 C 19.52666664123535 3.010000228881836 19.690000534057617 3.9700002670288086 19.690000534057617 5.029999732971191 L 19.690000534057617 11.010000228881836 C 19.690000534057617 12.069999694824219 19.52666664123535 13.030000686645508 19.200000762939453 13.889999389648438 C 18.866666793823242 14.75666618347168 18.39666748046875 15.49333381652832 17.790000915527344 16.100000381469727 C 17.183332443237305 16.706666946411133 16.450000762939453 17.176666259765625 15.59000015258789 17.510000228881836 C 14.736666679382324 17.836666107177734 13.776666641235352 18 12.710000038146973 18 L 2.559999942779541 18 ZM 44.55076217651367 -1.9599990844726562 L 44.55076217651367 18 L 41.70075988769531 18 L 41.70075988769531 9.460000038146973 L 30.270761489868164 9.460000038146973 L 30.270761489868164 18 L 27.420761108398438 18 L 27.420761108398438 -1.9599990844726562 L 30.270761489868164 -1.9599990844726562 L 30.270761489868164 6.600000381469727 L 41.70075988769531 6.600000381469727 L 41.70075988769531 -1.9599990844726562 L 44.55076217651367 -1.9599990844726562 ZM 68.60813903808594 5.170000076293945 C 68.60813903808594 7.949999809265137 67.41813659667969 9.536666870117188 65.03813934326172 9.930000305175781 L 68.79814147949219 18 L 65.63813781738281 18 L 61.938140869140625 10.030000686645508 L 55.688140869140625 10.030000686645508 L 55.688140869140625 18 L 52.83814239501953 18 L 52.83814239501953 -1.9599990844726562 L 63.758140563964844 -1.9599990844726562 C 66.99147033691406 -1.9599990844726562 68.60813903808594 -0.3400001525878906 68.60813903808594 2.8999996185302734 L 68.60813903808594 5.170000076293945 M 55.688140869140625 7.170000076293945 L 63.60813903808594 7.170000076293945 C 64.3681411743164 7.170000076293945 64.91481018066406 7.00333309173584 65.24813842773438 6.670000076293945 C 65.58147430419922 6.336667060852051 65.74813842773438 5.789999961853027 65.74813842773438 5.029999732971191 L 65.74813842773438 3.0399999618530273 C 65.74813842773438 2.2799997329711914 65.58147430419922 1.7333335876464844 65.24813842773438 1.3999996185302734 C 64.91481018066406 1.0666675567626953 64.3681411743164 0.8999996185302734 63.60813903808594 0.8999996185302734 L 55.688140869140625 0.8999996185302734 L 55.688140869140625 7.170000076293945 ZM 76.53001403808594 -1.9599990844726562 L 79.38002014160156 -1.9599990844726562 L 79.38002014160156 15.149999618530273 L 90.78001403808594 15.149999618530273 L 90.78001403808594 -1.9599990844726562 L 93.63002014160156 -1.9599990844726562 L 93.63002014160156 15.149999618530273 C 93.63002014160156 15.536666870117188 93.55668640136719 15.90333366394043 93.41001892089844 16.25 C 93.26335144042969 16.60333251953125 93.06001281738281 16.90999984741211 92.80001831054688 17.170000076293945 C 92.5400161743164 17.4233341217041 92.23667907714844 17.626667022705078 91.8900146484375 17.780000686645508 C 91.54335021972656 17.926666259765625 91.17334747314453 18 90.78001403808594 18 L 79.38002014160156 18 C 78.99334716796875 18 78.6266860961914 17.926666259765625 78.28001403808594 17.780000686645508 C 77.933349609375 17.626667022705078 77.63002014160156 17.4233341217041 77.3700180053711 17.170000076293945 C 77.11001586914062 16.90999984741211 76.90335083007812 16.60333251953125 76.75001525878906 16.25 C 76.60334777832031 15.90333366394043 76.53001403808594 15.536666870117188 76.53001403808594 15.149999618530273 L 76.53001403808594 -1.9599990844726562 ZM 112.21956634521484 18 L 104.76956176757812 3.369999885559082 L 104.76956176757812 18 L 101.91956329345703 18 L 101.91956329345703 -1.9599990844726562 L 105.03956604003906 -1.9599990844726562 L 112.63956451416016 13.069999694824219 L 120.24956512451172 -1.9599990844726562 L 123.34956359863281 -1.9599990844726562 L 123.34956359863281 18 L 120.50956726074219 18 L 120.50956726074219 3.369999885559082 L 113.06956481933594 18 L 112.21956634521484 18 ZM 134.50071716308594 -1.9599990844726562 L 134.50071716308594 18 L 131.6507110595703 18 L 131.6507110595703 -1.9599990844726562 L 134.50071716308594 -1.9599990844726562 ZM 145.64089965820312 18 L 142.7908935546875 18 L 142.7908935546875 -1.9599990844726562 L 145.64089965820312 -1.9599990844726562 L 157.64089965820312 13.520000457763672 L 157.64089965820312 -1.9599990844726562 L 160.4908905029297 -1.9599990844726562 L 160.4908905029297 18 L 157.64089965820312 18 L 145.64089965820312 2.5299997329711914 L 145.64089965820312 18 ZM 190.63951110839844 15.149999618530273 C 191.96617126464844 15.149999618530273 192.98617553710938 14.793333053588867 193.6995086669922 14.079999923706055 C 194.412841796875 13.360000610351562 194.76950073242188 12.336666107177734 194.76950073242188 11.010000228881836 L 194.76950073242188 5.029999732971191 C 194.76950073242188 4.383333206176758 194.67617797851562 3.803333282470703 194.489501953125 3.2899999618530273 C 194.30284118652344 2.7833337783813477 194.0328369140625 2.3500003814697266 193.67950439453125 1.989999771118164 C 193.3195037841797 1.6299991607666016 192.88284301757812 1.3600006103515625 192.3695068359375 1.1800003051757812 C 191.8628387451172 0.9933338165283203 191.28616333007812 0.8999996185302734 190.63951110839844 0.8999996185302734 L 183.33950805664062 0.8999996185302734 L 183.33950805664062 15.149999618530273 L 190.63951110839844 15.149999618530273 M 180.489501953125 18 L 180.489501953125 -1.9599990844726562 L 190.63951110839844 -1.9599990844726562 C 191.7061767578125 -1.9599990844726562 192.66616821289062 -1.7933330535888672 193.51950073242188 -1.4599990844726562 C 194.37950134277344 -1.1333332061767578 195.1128387451172 -0.6666660308837891 195.71951293945312 -0.05999946594238281 C 196.326171875 0.5533332824707031 196.79617309570312 1.2900009155273438 197.12950134277344 2.1499996185302734 C 197.4561767578125 3.010000228881836 197.6195068359375 3.9700002670288086 197.6195068359375 5.029999732971191 L 197.6195068359375 11.010000228881836 C 197.6195068359375 12.069999694824219 197.4561767578125 13.030000686645508 197.12950134277344 13.889999389648438 C 196.79617309570312 14.75666618347168 196.326171875 15.49333381652832 195.71951293945312 16.100000381469727 C 195.1128387451172 16.706666946411133 194.37950134277344 17.176666259765625 193.51950073242188 17.510000228881836 C 192.66616821289062 17.836666107177734 191.7061767578125 18 190.63951110839844 18 L 180.489501953125 18 ZM 205.3502655029297 -1.9599990844726562 L 219.89027404785156 -1.9599990844726562 L 219.89027404785156 0.8999996185302734 L 208.2002716064453 0.8999996185302734 L 208.2002716064453 6.600000381469727 L 218.18026733398438 6.600000381469727 L 218.18026733398438 9.460000038146973 L 208.2002716064453 9.460000038146973 L 208.2002716064453 15.149999618530273 L 219.89027404785156 15.149999618530273 L 219.89027404785156 18 L 205.3502655029297 18 L 205.3502655029297 -1.9599990844726562 ZM 230.1805419921875 9.460000038146973 C 229.7938690185547 9.460000038146973 229.4272003173828 9.383333206176758 229.08053588867188 9.229999542236328 C 228.73387145996094 9.076666831970215 228.4305419921875 8.869999885559082 228.1705322265625 8.609999656677246 C 227.91053771972656 8.356666564941406 227.70387268066406 8.056666374206543 227.550537109375 7.710000038146973 C 227.40386962890625 7.363333702087402 227.33053588867188 6.993332862854004 227.33053588867188 6.600000381469727 L 227.33053588867188 0.8999996185302734 C 227.33053588867188 0.5066661834716797 227.40386962890625 0.13666725158691406 227.550537109375 -0.20999908447265625 C 227.70387268066406 -0.5566673278808594 227.91053771972656 -0.8566665649414062 228.1705322265625 -1.1100006103515625 C 228.4305419921875 -1.3700008392333984 228.73387145996094 -1.5766658782958984 229.08053588867188 -1.7299995422363281 C 229.4272003173828 -1.8833332061767578 229.7938690185547 -1.9599990844726562 230.1805419921875 -1.9599990844726562 L 239.87054443359375 -1.9599990844726562 C 240.2572021484375 -1.9599990844726562 240.627197265625 -1.8833332061767578 240.98052978515625 -1.7299995422363281 C 241.32720947265625 -1.5766658782958984 241.6305389404297 -1.3700008392333984 241.89053344726562 -1.1100006103515625 C 242.15054321289062 -0.8566665649414062 242.35386657714844 -0.5566673278808594 242.5005340576172 -0.20999908447265625 C 242.64720153808594 0.13666725158691406 242.7205352783203 0.5066661834716797 242.7205352783203 0.8999996185302734 L 242.7205352783203 3.4700002670288086 L 239.87054443359375 3.4700002670288086 L 239.87054443359375 0.8999996185302734 L 230.1805419921875 0.8999996185302734 L 230.1805419921875 6.600000381469727 L 239.87054443359375 6.600000381469727 C 240.2572021484375 6.600000381469727 240.627197265625 6.676666259765625 240.98052978515625 6.829999923706055 C 241.32720947265625 6.976666450500488 241.6305389404297 7.180000305175781 241.89053344726562 7.439999580383301 C 242.15054321289062 7.699999809265137 242.35386657714844 8.00333309173584 242.5005340576172 8.350000381469727 C 242.64720153808594 8.696666717529297 242.7205352783203 9.066666603088379 242.7205352783203 9.460000038146973 L 242.7205352783203 15.149999618530273 C 242.7205352783203 15.536666870117188 242.64720153808594 15.90333366394043 242.5005340576172 16.25 C 242.35386657714844 16.60333251953125 242.15054321289062 16.90999984741211 241.89053344726562 17.170000076293945 C 241.6305389404297 17.4233341217041 241.32720947265625 17.626667022705078 240.98052978515625 17.780000686645508 C 240.627197265625 17.926666259765625 240.2572021484375 18 239.87054443359375 18 L 229.91053771972656 18 C 229.5172119140625 18 229.14720153808594 17.926666259765625 228.800537109375 17.780000686645508 C 228.45387268066406 17.626667022705078 228.15054321289062 17.4233341217041 227.89053344726562 17.170000076293945 C 227.6305389404297 16.90999984741211 227.4238739013672 16.60333251953125 227.27053833007812 16.25 C 227.12387084960938 15.90333366394043 227.050537109375 15.536666870117188 227.050537109375 15.149999618530273 L 227.050537109375 12.59000015258789 L 229.91053771972656 12.59000015258789 L 229.91053771972656 15.149999618530273 L 239.87054443359375 15.149999618530273 L 239.87054443359375 9.460000038146973 L 230.1805419921875 9.460000038146973 ZM 259.8623962402344 -1.9599990844726562 L 267.5523986816406 18 L 264.702392578125 18 L 262.9324035644531 13.40999984741211 L 253.93240356445312 13.40999984741211 L 252.1623992919922 18 L 249.31240844726562 18 L 257.0024108886719 -1.9599990844726562 L 259.8623962402344 -1.9599990844726562 M 255.0124053955078 10.550000190734863 L 261.8323974609375 10.550000190734863 L 258.4424133300781 1.760000228881836 L 255.0124053955078 10.550000190734863 ZM 276.9937438964844 -1.9599990844726562 L 276.9937438964844 18 L 274.14373779296875 18 L 274.14373779296875 -1.9599990844726562 L 276.9937438964844 -1.9599990844726562 Z" transform="matrix(0.007766196969896555, 1.0382144451141357, -1.0382144451141357, 0.007766196969896555, 892.1771850585938, 318.98291015625)" style="fill: rgb(82, 82, 82);"/></svg>