<?xml version="1.0" encoding="utf-8"?>
<svg id="master-artboard" viewBox="0 0 1400 980" version="1.1" xmlns="http://www.w3.org/2000/svg" x="0px" y="0px" width="1400px" height="980px" enable-background="new 0 0 1400 980"><defs><style id="ee-google-fonts">@import url(https://fonts.googleapis.com/css?family=Aldrich:400);</style><path id="text-path-0" d="M 313.7637634277344 445.4409484863281 A 100 71 0 0 1 507.3581848144531 445.4409484863281 A 100 71 0 0 1 313.7637634277344 445.4409484863281 Z" style="fill: none; stroke: red; stroke-width: 2;"/><path id="text-path-1" d="M 593.1500854492188 284.7871398925781 A 100 51 0 0 1 815.2804565429688 284.7871398925781 A 100 51 0 0 1 593.1500854492188 284.7871398925781 Z" style="fill: none; stroke: red; stroke-width: 2;"/></defs>
<g transform="matrix(1.3007961122302305, 0, 0, 1.3007961122302305, -68.02826692311521, -17.106508223032236)">
			<path d="M645.578,465.501c-54.027,0-97.983-37.643-97.983-83.91c0-46.27,43.956-83.912,97.983-83.912&#10;&#9;&#9;&#9;&#9;c54.026,0,97.978,37.642,97.978,83.912C743.556,427.858,699.604,465.501,645.578,465.501z M645.578,302.893&#10;&#9;&#9;&#9;&#9;c-51.153,0-92.77,35.303-92.77,78.698c0,43.393,41.616,78.696,92.77,78.696c51.151,0,92.765-35.303,92.765-78.696&#10;&#9;&#9;&#9;&#9;C738.343,338.196,696.729,302.893,645.578,302.893z"/>
			<path d="M645.578,474.533c-59.87,0-108.578-41.695-108.578-92.941c0-51.249,48.708-92.944,108.578-92.944&#10;&#9;&#9;&#9;&#9;c59.869,0,108.572,41.695,108.572,92.944C754.15,432.838,705.447,474.533,645.578,474.533z M645.578,293.861&#10;&#9;&#9;&#9;&#9;c-56.996,0-103.364,39.355-103.364,87.73c0,48.373,46.369,87.728,103.364,87.728c56.993,0,103.359-39.355,103.359-87.728&#10;&#9;&#9;&#9;&#9;C748.938,333.217,702.571,293.861,645.578,293.861z"/>
			<g>
				<path d="M646.107,332.514c-1.439,0-2.606-1.168-2.606-2.607v-18.504c0-1.438,1.167-2.607,2.606-2.607&#10;&#9;&#9;&#9;&#9;&#9;c1.44,0,2.607,1.168,2.607,2.607v18.504C648.714,331.346,647.547,332.514,646.107,332.514z"/>
				<path d="M646.105,410.052c-1.165,0-2.225-0.784-2.524-1.965l-17.628-69.575c-0.354-1.395,0.491-2.813,1.886-3.167&#10;&#9;&#9;&#9;&#9;&#9;c1.39-0.359,2.812,0.489,3.167,1.886l17.628,69.575c0.354,1.395-0.492,2.813-1.886,3.167&#10;&#9;&#9;&#9;&#9;&#9;C646.533,410.026,646.317,410.052,646.105,410.052z"/>
				<path d="M631.854,333.825c-1.23,0-2.325-0.876-2.56-2.128l-3.378-18.079c-0.265-1.415,0.668-2.774,2.083-3.04&#10;&#9;&#9;&#9;&#9;&#9;c1.418-0.272,2.776,0.67,3.041,2.083l3.378,18.079c0.265,1.416-0.668,2.775-2.083,3.04&#10;&#9;&#9;&#9;&#9;&#9;C632.174,333.81,632.012,333.825,631.854,333.825z"/>
				<path d="M618.066,337.753c-1.043,0-2.03-0.634-2.43-1.665l-6.541-16.863c-0.521-1.344,0.145-2.854,1.487-3.373&#10;&#9;&#9;&#9;&#9;&#9;c1.338-0.524,2.853,0.143,3.373,1.486l6.541,16.862c0.521,1.342-0.146,2.851-1.487,3.373&#10;&#9;&#9;&#9;&#9;&#9;C618.699,337.694,618.38,337.753,618.066,337.753z"/>
				<path d="M605.187,344.178c-0.872,0-1.724-0.436-2.217-1.229l-9.283-14.94c-0.759-1.222-0.384-2.831,0.839-3.589&#10;&#9;&#9;&#9;&#9;&#9;c1.225-0.764,2.831-0.384,3.591,0.837l9.282,14.94c0.759,1.222,0.385,2.831-0.839,3.589&#10;&#9;&#9;&#9;&#9;&#9;C606.131,344.054,605.656,344.178,605.187,344.178z"/>
				<path d="M593.661,352.945c-0.705,0-1.406-0.283-1.921-0.843l-11.451-12.468c-0.974-1.062-0.904-2.708,0.156-3.684&#10;&#9;&#9;&#9;&#9;&#9;c1.061-0.978,2.708-0.904,3.683,0.158l11.451,12.469c0.974,1.059,0.904,2.708-0.156,3.681&#10;&#9;&#9;&#9;&#9;&#9;C594.922,352.719,594.291,352.945,593.661,352.945z"/>
				<path d="M583.885,363.78c-0.541,0-1.086-0.168-1.553-0.517l-12.917-9.607c-1.156-0.858-1.395-2.492-0.536-3.646&#10;&#9;&#9;&#9;&#9;&#9;c0.859-1.156,2.495-1.395,3.646-0.537l12.917,9.607c1.156,0.86,1.395,2.492,0.536,3.648&#10;&#9;&#9;&#9;&#9;&#9;C585.467,363.416,584.681,363.78,583.885,363.78z"/>
				<path d="M576.253,376.37c-0.381,0-0.767-0.081-1.132-0.257l-13.636-6.578c-1.295-0.626-1.84-2.184-1.215-3.479&#10;&#9;&#9;&#9;&#9;&#9;c0.625-1.298,2.186-1.841,3.481-1.217l13.636,6.578c1.296,0.626,1.841,2.184,1.216,3.48&#10;&#9;&#9;&#9;&#9;&#9;C578.153,375.828,577.221,376.37,576.253,376.37z"/>
				<path d="M571.103,390.331c-0.219,0-0.442-0.025-0.665-0.084l-13.625-3.584c-1.393-0.366-2.224-1.792-1.858-3.185&#10;&#9;&#9;&#9;&#9;&#9;c0.367-1.39,1.789-2.225,3.185-1.858l13.625,3.584c1.393,0.367,2.224,1.792,1.858,3.185&#10;&#9;&#9;&#9;&#9;&#9;C573.315,389.557,572.259,390.331,571.103,390.331z"/>
				<path d="M660.361,333.828c-0.159,0-0.32-0.013-0.481-0.043c-1.416-0.265-2.348-1.626-2.083-3.042l3.379-18.082&#10;&#9;&#9;&#9;&#9;&#9;c0.263-1.416,1.628-2.35,3.041-2.083c1.416,0.265,2.349,1.625,2.084,3.04l-3.379,18.082&#10;&#9;&#9;&#9;&#9;&#9;C662.686,332.955,661.591,333.828,660.361,333.828z"/>
				<path d="M674.15,337.748c-0.314,0-0.633-0.056-0.943-0.178c-1.341-0.52-2.007-2.029-1.486-3.373l6.54-16.857&#10;&#9;&#9;&#9;&#9;&#9;c0.518-1.344,2.031-2.011,3.373-1.486c1.341,0.519,2.007,2.029,1.487,3.373l-6.54,16.857&#10;&#9;&#9;&#9;&#9;&#9;C676.181,337.117,675.194,337.748,674.15,337.748z"/>
				<path d="M687.026,344.183c-0.47,0-0.944-0.127-1.374-0.392c-1.223-0.761-1.599-2.367-0.839-3.592l9.285-14.943&#10;&#9;&#9;&#9;&#9;&#9;c0.757-1.222,2.366-1.601,3.591-0.837c1.223,0.759,1.597,2.367,0.839,3.589l-9.285,14.943&#10;&#9;&#9;&#9;&#9;&#9;C688.75,343.746,687.898,344.183,687.026,344.183z"/>
				<path d="M698.555,352.945c-0.63,0-1.261-0.227-1.761-0.688c-1.061-0.975-1.13-2.622-0.157-3.683l11.453-12.466&#10;&#9;&#9;&#9;&#9;&#9;c0.973-1.062,2.622-1.135,3.682-0.158c1.059,0.975,1.13,2.622,0.157,3.684L700.476,352.1&#10;&#9;&#9;&#9;&#9;&#9;C699.962,352.66,699.261,352.945,698.555,352.945z"/>
				<path d="M708.334,363.78c-0.799,0-1.583-0.364-2.095-1.051c-0.857-1.156-0.618-2.788,0.537-3.648l12.914-9.607&#10;&#9;&#9;&#9;&#9;&#9;c1.158-0.858,2.788-0.619,3.648,0.537c0.857,1.153,0.618,2.788-0.537,3.646l-12.914,9.607&#10;&#9;&#9;&#9;&#9;&#9;C709.419,363.612,708.874,363.78,708.334,363.78z"/>
				<path d="M715.972,376.368c-0.97,0-1.902-0.542-2.353-1.474c-0.624-1.298-0.079-2.856,1.217-3.482l13.63-6.573&#10;&#9;&#9;&#9;&#9;&#9;c1.293-0.624,2.854-0.081,3.479,1.217c0.624,1.295,0.079,2.854-1.215,3.479l-13.629,6.573&#10;&#9;&#9;&#9;&#9;&#9;C716.735,376.284,716.351,376.368,715.972,376.368z"/>
				<path d="M646.107,416.693c-5.099,0-9.248-4.149-9.248-9.249c0-5.099,4.149-9.246,9.248-9.246c5.099,0,9.249,4.147,9.249,9.246&#10;&#9;&#9;&#9;&#9;&#9;C655.356,412.544,651.207,416.693,646.107,416.693z M646.107,403.413c-2.225,0-4.035,1.81-4.035,4.032&#10;&#9;&#9;&#9;&#9;&#9;c0,2.225,1.81,4.035,4.035,4.035c2.225,0,4.035-1.81,4.035-4.035C650.143,405.223,648.333,403.413,646.107,403.413z"/>
			</g>
		</g><g transform="matrix(1.3007961122302305, 0, 0, 1.3007961122302305, -68.02826692311521, -17.106508223032236)">
				<path d="M474.616,466.15c-0.337,0-0.673-0.066-0.992-0.196c-0.657-0.27-1.176-0.797-1.436-1.459&#10;&#9;&#9;&#9;&#9;&#9;c-0.551-1.408-1.053-2.803-1.5-4.182c-0.216-0.667-0.154-1.395,0.172-2.016c0.326-0.622,0.887-1.084,1.559-1.286l4.452-1.334&#10;&#9;&#9;&#9;&#9;&#9;c0.799-0.237,1.664-0.082,2.327,0.422c0.663,0.504,1.045,1.296,1.028,2.131c-0.029,1.352-0.023,2.647,0.025,3.864&#10;&#9;&#9;&#9;&#9;&#9;c0.043,1.069-0.571,2.054-1.549,2.49l-3.033,1.341C475.335,466.074,474.976,466.15,474.616,466.15z"/>
				<path d="M470.309,447.857c-0.61,0-1.204-0.214-1.675-0.611c-0.536-0.448-0.869-1.095-0.924-1.792&#10;&#9;&#9;&#9;&#9;&#9;c-0.224-2.874-0.247-5.766-0.066-8.592c0.046-0.705,0.374-1.359,0.91-1.817c0.537-0.458,1.237-0.672,1.938-0.611l10.913,1.039&#10;&#9;&#9;&#9;&#9;&#9;c0.795,0.076,1.512,0.511,1.945,1.184c0.433,0.672,0.533,1.504,0.274,2.26c-0.703,2.042-1.291,4.076-1.747,6.043&#10;&#9;&#9;&#9;&#9;&#9;c-0.252,1.09-1.173,1.896-2.287,2.006l-9.029,0.878C470.477,447.852,470.393,447.857,470.309,447.857z M472.742,439.884&#10;&#9;&#9;&#9;&#9;&#9;c-0.013,0.835-0.005,1.67,0.02,2.508l4.489-0.436c0.14-0.532,0.289-1.064,0.444-1.599L472.742,439.884z"/>
				<path d="M472.288,459.129c-0.439,0-0.875-0.109-1.265-0.328c-0.615-0.341-1.065-0.917-1.25-1.594&#10;&#9;&#9;&#9;&#9;&#9;c-0.775-2.849-1.354-5.715-1.723-8.52c-0.093-0.7,0.103-1.408,0.542-1.96c0.44-0.555,1.086-0.906,1.789-0.972l8.048-0.784&#10;&#9;&#9;&#9;&#9;&#9;c0.829-0.082,1.616,0.227,2.17,0.827c0.553,0.598,0.793,1.423,0.649,2.228c-0.42,2.332-0.715,4.699-0.88,7.036&#10;&#9;&#9;&#9;&#9;&#9;c-0.076,1.082-0.813,2.003-1.852,2.316l-5.479,1.642C472.792,459.093,472.538,459.129,472.288,459.129z M473.634,450.675&#10;&#9;&#9;&#9;&#9;&#9;c0.154,0.853,0.328,1.708,0.522,2.566l1.161-0.349c0.078-0.802,0.169-1.606,0.273-2.408L473.634,450.675z"/>
				<path d="M479.553,476.511c-0.891,0-1.75-0.456-2.225-1.291c-1.443-2.536-2.757-5.143-3.905-7.749&#10;&#9;&#9;&#9;&#9;&#9;c-0.579-1.316,0.015-2.851,1.329-3.434l2.056-0.912c0.766-0.338,1.65-0.288,2.375,0.135c0.724,0.425,1.199,1.171,1.276,2.006&#10;&#9;&#9;&#9;&#9;&#9;c0.398,4.277,1.133,6.863,1.407,7.385c0.661,1.26,0.208,2.851-1.04,3.533C480.419,476.406,479.983,476.511,479.553,476.511z"/>
				<path d="M482.29,437.654c-0.083,0-0.166-0.002-0.25-0.01l-11.764-1.125c-0.699-0.068-1.34-0.412-1.78-0.959&#10;&#9;&#9;&#9;&#9;&#9;c-0.44-0.545-0.643-1.248-0.56-1.942c0.33-2.775,0.86-5.575,1.578-8.327c0.178-0.683,0.625-1.265,1.238-1.611&#10;&#9;&#9;&#9;&#9;&#9;c0.615-0.349,1.344-0.433,2.019-0.232l12.729,3.737c0.75,0.219,1.36,0.764,1.666,1.484c0.304,0.718,0.271,1.538-0.093,2.228&#10;&#9;&#9;&#9;&#9;&#9;c-0.859,1.639-1.656,3.363-2.369,5.127C484.304,437.015,483.343,437.654,482.29,437.654z M473.492,431.588l7.139,0.682&#10;&#9;&#9;&#9;&#9;&#9;c0.141-0.321,0.284-0.639,0.43-0.957l-7.12-2.09C473.774,430.009,473.624,430.799,473.492,431.588z"/>
				<path d="M509.297,407.409c-0.888,0-1.752-0.453-2.24-1.268L496.33,388.2c-0.673-1.127-0.405-2.579,0.627-3.388&#10;&#9;&#9;&#9;&#9;&#9;c2.801-2.199,5.506-3.981,7.618-5.02c0.662-0.326,1.431-0.351,2.117-0.082c0.685,0.275,1.222,0.825,1.478,1.518l7.583,20.525&#10;&#9;&#9;&#9;&#9;&#9;c0.461,1.248-0.091,2.643-1.28,3.235c-1.343,0.672-2.637,1.365-3.883,2.077C510.182,407.3,509.736,407.409,509.297,407.409z&#10;&#9;&#9;&#9;&#9;&#9; M502.004,387.53l7.684,12.851l-5.341-14.457C503.604,386.4,502.816,386.942,502.004,387.53z"/>
				<path d="M486.327,429.503c-0.244,0-0.491-0.036-0.734-0.107l-13.432-3.943c-0.672-0.196-1.237-0.657-1.565-1.275&#10;&#9;&#9;&#9;&#9;&#9;c-0.33-0.619-0.397-1.341-0.186-2.011c0.82-2.592,1.835-5.211,3.02-7.787c0.298-0.647,0.845-1.143,1.517-1.375&#10;&#9;&#9;&#9;&#9;&#9;c0.669-0.234,1.409-0.181,2.042,0.146l13.503,6.926c0.678,0.347,1.169,0.975,1.347,1.716c0.176,0.744,0.018,1.525-0.432,2.141&#10;&#9;&#9;&#9;&#9;&#9;c-1.009,1.382-1.964,2.826-2.838,4.294C488.088,429.035,487.228,429.503,486.327,429.503z M476.241,421.217l8.913,2.617&#10;&#9;&#9;&#9;&#9;&#9;c0.104-0.158,0.207-0.318,0.311-0.476l-8.385-4.302C476.785,419.776,476.504,420.497,476.241,421.217z"/>
				<path d="M496.79,416.545c-0.563,0-1.128-0.181-1.6-0.547l-13.809-10.735c-1.107-0.86-1.335-2.444-0.516-3.582&#10;&#9;&#9;&#9;&#9;&#9;c1.605-2.23,3.354-4.422,5.197-6.512c0.494-0.56,1.206-0.883,1.953-0.883c0.673,0.107,1.46,0.321,1.955,0.881l12.345,13.965&#10;&#9;&#9;&#9;&#9;&#9;c0.474,0.535,0.706,1.24,0.644,1.95c-0.061,0.71-0.41,1.365-0.967,1.81c-1.214,0.975-2.367,1.968-3.425,2.953&#10;&#9;&#9;&#9;&#9;&#9;C498.068,416.312,497.43,416.545,496.79,416.545z M486.597,402.712l9.866,7.67l-8.406-9.508&#10;&#9;&#9;&#9;&#9;&#9;C487.56,401.48,487.073,402.094,486.597,402.712z"/>
				<path d="M502.842,411.566c-0.725,0-1.442-0.3-1.954-0.881l-12.707-14.375c-0.896-1.013-0.868-2.541,0.063-3.521&#10;&#9;&#9;&#9;&#9;&#9;c1.997-2.105,4.082-4.091,6.197-5.906c0.583-0.499,1.361-0.718,2.117-0.593c0.757,0.125,1.423,0.576,1.818,1.235l10.478,17.527&#10;&#9;&#9;&#9;&#9;&#9;c0.727,1.217,0.35,2.79-0.849,3.543c-1.268,0.799-2.47,1.624-3.627,2.469C503.915,411.401,503.376,411.566,502.842,411.566z&#10;&#9;&#9;&#9;&#9;&#9; M493.691,394.673l8.903,10.073l-7.074-11.834C494.906,393.485,494.296,394.073,493.691,394.673z"/>
				<path d="M491.239,422.495c-0.404,0-0.811-0.091-1.189-0.288l-14.081-7.222c-0.615-0.316-1.081-0.863-1.292-1.522&#10;&#9;&#9;&#9;&#9;&#9;c-0.211-0.659-0.153-1.375,0.164-1.991c1.236-2.4,2.646-4.804,4.191-7.141c0.4-0.606,1.035-1.016,1.751-1.135&#10;&#9;&#9;&#9;&#9;&#9;c0.711-0.117,1.448,0.069,2.022,0.514l13.343,10.376c0.584,0.453,0.948,1.135,1,1.874c0.052,0.741-0.212,1.466-0.728,1.999&#10;&#9;&#9;&#9;&#9;&#9;c-1.051,1.084-2.085,2.255-3.159,3.574C492.753,422.159,492.003,422.495,491.239,422.495z M480.716,411.561l9.864,5.059&#10;&#9;&#9;&#9;&#9;&#9;c0.044-0.051,0.089-0.102,0.135-0.155l-8.845-6.876C481.474,410.243,481.088,410.902,480.716,411.561z"/>
			</g><path d="M511.432,378.473l11.808-4.361l0.876,2.37l-8.978,3.317l2.692,7.286l8.295-3.065l0.865,2.344l-8.293,3.065l3.666,9.917&#10;&#9;&#9;&#9;&#9;&#9;l-2.83,1.046L511.432,378.473z" transform="matrix(1.3007961122302305, 0, 0, 1.3007961122302305, -68.02826692311521, -17.106508223032236)"/><path d="M540.245,454.025c-2.933,0-5.586-1.848-6.604-4.6c-0.651-1.764-0.578-3.676,0.209-5.384s2.192-3.006,3.957-3.658&#10;&#9;&#9;&#9;&#9;c0.784-0.29,1.605-0.438,2.439-0.438c2.931,0,5.584,1.848,6.601,4.6c1.344,3.641-0.521,7.696-4.161,9.042&#10;&#9;&#9;&#9;&#9;C541.899,453.877,541.078,454.025,540.245,454.025z M540.246,445.159c-0.214,0-0.427,0.038-0.631,0.114&#10;&#9;&#9;&#9;&#9;c-0.461,0.171-0.826,0.507-1.03,0.95s-0.223,0.939-0.054,1.395c0.337,0.917,1.408,1.428,2.345,1.08&#10;&#9;&#9;&#9;&#9;c0.944-0.349,1.429-1.4,1.081-2.345C541.693,445.64,541.004,445.159,540.246,445.159z" transform="matrix(1.3007961122302305, 0, 0, 1.3007961122302305, -68.02826692311521, -17.106508223032236)"/><path d="M536.861,446.76c-0.673,0-1.345-0.26-1.855-0.776l-27.371-27.732c-1.011-1.026-1-2.675,0.024-3.688&#10;&#9;&#9;&#9;&#9;c1.024-1.008,2.675-1,3.688,0.025l27.371,27.732c1.011,1.026,1,2.675-0.024,3.688C538.185,446.508,537.523,446.76,536.861,446.76&#10;&#9;&#9;&#9;&#9;z" transform="matrix(1.3007961122302305, 0, 0, 1.3007961122302305, -68.02826692311521, -17.106508223032236)"/><path d="M535.812,523.185c-44.461,0-80.633-36.17-80.633-80.63c0-44.462,36.172-80.633,80.633-80.633&#10;&#9;&#9;&#9;c1.937,0,3.904,0.069,5.842,0.208c1.436,0.102,2.516,1.349,2.415,2.785c-0.102,1.438-1.33,2.515-2.786,2.416&#10;&#9;&#9;&#9;c-1.816-0.129-3.657-0.196-5.471-0.196c-41.587,0-75.42,33.832-75.42,75.419c0,41.586,33.833,75.417,75.42,75.417&#10;&#9;&#9;&#9;c32.777,0,61.605-20.928,71.735-52.074c0.447-1.37,1.926-2.113,3.285-1.672c1.37,0.445,2.118,1.917,1.674,3.284&#10;&#9;&#9;&#9;C601.675,500.812,570.854,523.185,535.812,523.185z" transform="matrix(1.3007961122302305, 0, 0, 1.3007961122302305, -68.02826692311521, -17.106508223032236)"/><path d="M535.812,535.541c-51.274,0-92.99-41.715-92.99-92.987c0-51.274,41.715-92.989,92.99-92.989&#10;&#9;&#9;&#9;c3.162,0,6.359,0.16,9.503,0.479c1.432,0.147,2.476,1.425,2.331,2.859c-0.145,1.43-1.393,2.479-2.858,2.329&#10;&#9;&#9;&#9;c-2.968-0.3-5.988-0.453-8.976-0.453c-48.4,0-87.776,39.376-87.776,87.776c0,48.398,39.376,87.774,87.776,87.774&#10;&#9;&#9;&#9;c38.667,0,72.354-24.784,83.828-61.671c0.428-1.377,1.896-2.146,3.264-1.716c1.375,0.428,2.144,1.889,1.716,3.264&#10;&#9;&#9;&#9;C612.463,509.283,576.774,535.541,535.812,535.541z" transform="matrix(1.3007961122302305, 0, 0, 1.3007961122302305, -68.02826692311521, -17.106508223032236)"/>
<path d="M 319.6046142578125 402.1447448730469 C 322.8763427734375 405.07684326171875 323.4905700683594 408.1473388671875 321.4472961425781 411.3562316894531 L 334.8991394042969 415.4353942871094 L 331.5688171386719 419.15142822265625 L 318.28875732421875 415.1053771972656 L 311.70819091796875 422.4481201171875 L 321.083984375 430.8506774902344 L 318.0740051269531 434.20928955078125 L 294.6084899902344 413.1795349121094 L 306.1211242675781 400.3334655761719 C 309.5248718261719 396.5354919433594 313.1307067871094 396.3428039550781 316.9385986328125 399.75543212890625 L 319.6046142578125 402.1447448730469 M 308.3570556640625 419.44482421875 L 316.6995544433594 410.1360778808594 C 317.50042724609375 409.242431640625 317.8780212402344 408.4215393066406 317.83233642578125 407.6733703613281 C 317.7916259765625 406.9296875 317.324462890625 406.1573791503906 316.4308166503906 405.35650634765625 L 314.09246826171875 403.2608642578125 C 313.1988220214844 402.4599914550781 312.3801574707031 402.07989501953125 311.6364440917969 402.1206359863281 C 310.8927307128906 402.1613464355469 310.1204528808594 402.6285095214844 309.3195495605469 403.52215576171875 L 300.9770812988281 412.8309020996094 L 308.3570556640625 419.44482421875 ZM 357.2565002441406 392.4357604980469 L 343.4232482910156 399.4057922363281 L 345.7450866699219 404.0138854980469 L 359.5783386230469 397.0438537597656 L 361.5267028808594 400.9107360839844 L 347.6934509277344 407.8807678222656 C 347.1695556640625 408.1447448730469 346.6214294433594 408.2940368652344 346.0491027832031 408.3285827636719 C 345.47674560546875 408.3631591796875 344.9309387207031 408.2947692871094 344.4116516113281 408.1234436035156 C 343.8833923339844 407.94915771484375 343.3995666503906 407.6778564453125 342.9601745605469 407.30950927734375 C 342.520751953125 406.941162109375 342.1660461425781 406.48907470703125 341.8960876464844 405.9532775878906 L 335.2635192871094 392.789794921875 C 334.9935302734375 392.25396728515625 334.8412780761719 391.69989013671875 334.80670166015625 391.1275634765625 C 334.7691650390625 390.5492858886719 334.8390197753906 389.9989929199219 335.01629638671875 389.4766845703125 C 335.1876220703125 388.9573974609375 335.4574279785156 388.47802734375 335.8257751464844 388.03863525390625 C 336.1941223144531 387.5992126464844 336.6402587890625 387.2475280761719 337.1641845703125 386.9835510253906 L 347.13055419921875 381.9618835449219 C 347.6663818359375 381.69189453125 348.220458984375 381.5396423339844 348.79278564453125 381.50506591796875 C 349.3710632324219 381.4674987792969 349.91986083984375 381.5343933105469 350.43914794921875 381.7057189941406 C 350.9584655761719 381.8770446777344 351.4393005371094 382.14984130859375 351.8817138671875 382.5241394042969 C 352.32110595703125 382.8924865722656 352.6758117675781 383.3445739746094 352.94580078125 383.8804016113281 L 357.2565002441406 392.4357604980469 M 339.112548828125 390.8504333496094 L 341.4748840332031 395.5389099121094 L 351.4412536621094 390.5172424316406 L 349.07891845703125 385.8287658691406 L 339.112548828125 390.8504333496094 ZM 391.2237548828125 388.84564208984375 C 391.34796142578125 389.4326477050781 391.3537292480469 390.0072326660156 391.2409973144531 390.5694274902344 C 391.1282958984375 391.1316223144531 390.92352294921875 391.6451416015625 390.62664794921875 392.1100158691406 C 390.32843017578125 392.568359375 389.94512939453125 392.9629211425781 389.476806640625 393.293701171875 C 389.001953125 393.6258850097656 388.4710388183594 393.8540954589844 387.884033203125 393.9783020019531 L 376.0853576660156 396.4751892089844 L 378.0418701171875 405.720458984375 L 373.82525634765625 406.61279296875 L 367.0240173339844 374.47454833984375 L 371.2406311035156 373.58221435546875 L 372.0584411621094 377.4466247558594 C 371.9895324707031 376.8956298828125 372.0267333984375 376.363037109375 372.1700744628906 375.8489074707031 C 372.31201171875 375.3282470703125 372.5315856933594 374.85247802734375 372.8288269042969 374.4216003417969 C 373.132568359375 373.98931884765625 373.5083312988281 373.6236267089844 373.9560852050781 373.3244323730469 C 374.40899658203125 373.017333984375 374.9158935546875 372.804443359375 375.476806640625 372.68572998046875 L 383.0393371582031 371.0853271484375 C 383.6263122558594 370.9610900878906 384.2041931152344 370.95465087890625 384.77288818359375 371.06597900390625 C 385.3350524902344 371.1787109375 385.8453369140625 371.3841857910156 386.3036804199219 371.6824035644531 C 386.76202392578125 371.98065185546875 387.15728759765625 372.3671875 387.48944091796875 372.842041015625 C 387.82025146484375 373.31036376953125 388.0477600097656 373.8380126953125 388.1719970703125 374.4250183105469 L 391.2237548828125 388.84564208984375 M 386.987548828125 389.74212646484375 L 383.935791015625 375.3215026855469 L 372.1371154785156 377.8183898925781 L 375.1888732910156 392.239013671875 L 386.987548828125 389.74212646484375 ZM 403.2877197265625 368.7009582519531 L 407.5969543457031 368.7817077636719 L 407.2396545410156 387.8483581542969 L 419.29754638671875 388.0743103027344 L 419.65484619140625 369.0076599121094 L 423.9841003417969 369.08880615234375 L 423.545654296875 392.4847106933594 L 419.2164001464844 392.403564453125 L 419.29058837890625 388.44427490234375 C 419.2403564453125 388.9900817871094 419.0841064453125 389.5005798339844 418.82183837890625 389.9757385253906 C 418.5660705566406 390.45770263671875 418.2415466308594 390.8750305175781 417.84820556640625 391.22772216796875 C 417.4549865722656 391.5737609863281 417.0064697265625 391.84539794921875 416.502685546875 392.04266357421875 C 415.9989013671875 392.23992919921875 415.47039794921875 392.3333740234375 414.9171447753906 392.322998046875 L 407.15850830078125 392.1776123046875 C 406.57196044921875 392.1665954589844 406.01751708984375 392.0428466796875 405.49517822265625 391.8063659667969 C 404.9728698730469 391.56988525390625 404.5220031738281 391.25469970703125 404.1426696777344 390.8608703613281 C 403.75677490234375 390.4602355957031 403.4554443359375 389.9945068359375 403.2386779785156 389.46368408203125 C 403.02191162109375 388.932861328125 402.9191589355469 388.36749267578125 402.930419921875 387.7676086425781 L 403.2877197265625 368.7009582519531 ZM 455.47900390625 394.8128662109375 C 455.3306579589844 395.3942565917969 455.0815734863281 395.9120788574219 454.7317199707031 396.3663635253906 C 454.38189697265625 396.82061767578125 453.97100830078125 397.1905212402344 453.4991149902344 397.4760437011719 C 453.0288391113281 397.7550964355469 452.5105285644531 397.9393310546875 451.9441833496094 398.02874755859375 C 451.3713684082031 398.11651611328125 450.79425048828125 398.08624267578125 450.212890625 397.9378967285156 L 438.5273132324219 394.9561462402344 C 437.9588623046875 394.81109619140625 437.4474792480469 394.56365966796875 436.99322509765625 394.21380615234375 C 436.5389404296875 393.86395263671875 436.1722717285156 393.45391845703125 435.8932189941406 392.983642578125 C 435.6093444824219 392.5052795410156 435.4226989746094 391.98291015625 435.3332824707031 391.41656494140625 C 435.2438659667969 390.8501892089844 435.2733459472656 390.2763366699219 435.42169189453125 389.6949462890625 L 442.3642578125 362.48675537109375 L 446.5404357910156 363.5523681640625 L 443.2916564941406 376.284423828125 C 443.4592590332031 375.7354736328125 443.7219543457031 375.2452087402344 444.07977294921875 374.8135986328125 C 444.42950439453125 374.3868103027344 444.83782958984375 374.04034423828125 445.3048095703125 373.7742004394531 C 445.7717590332031 373.508056640625 446.2803039550781 373.3350830078125 446.8304748535156 373.25531005859375 C 447.380615234375 373.1755065917969 447.9399108886719 373.2081298828125 448.50836181640625 373.3531799316406 L 455.99835205078125 375.2643737792969 C 456.5797424316406 375.4127197265625 457.1007995605469 375.6626281738281 457.5615234375 376.0141296386719 C 458.01580810546875 376.3639831542969 458.3824768066406 376.7740173339844 458.6615295410156 377.2442932128906 C 458.9405822753906 377.71453857421875 459.1239929199219 378.236083984375 459.2117614746094 378.80889892578125 C 459.3011779785156 379.3752746582031 459.271728515625 379.9491271972656 459.1233825683594 380.530517578125 L 455.47900390625 394.8128662109375 M 443.2422180175781 376.47821044921875 L 439.5978698730469 390.7605895996094 L 451.283447265625 393.7423095703125 L 454.92779541015625 379.4599304199219 L 443.2422180175781 376.47821044921875 ZM 482.2079162597656 375.9977722167969 L 468.2582702636719 405.2520751953125 L 464.367919921875 403.3970031738281 L 478.31756591796875 374.1427001953125 L 482.2079162597656 375.9977722167969 ZM 494.55548095703125 393.7708740234375 L 481.4217529296875 413.137451171875 L 477.8381042480469 410.7071533203125 L 490.9718322753906 391.340576171875 L 494.55548095703125 393.7708740234375 M 495.8468017578125 383.7601318359375 L 499.79461669921875 386.4373779296875 L 497.2688903808594 390.1617126464844 L 493.3210754394531 387.4844665527344 L 495.8468017578125 383.7601318359375 ZM 507.8688659667969 410.7923278808594 L 496.518798828125 420.19677734375 L 503.6391296386719 428.7901611328125 L 506.6806945800781 426.2699890136719 L 509.4433288574219 429.6041564941406 L 506.4017639160156 432.1243591308594 C 505.93975830078125 432.5071716308594 505.4336853027344 432.7793273925781 504.8835144042969 432.9407958984375 C 504.3333435058594 433.102294921875 503.7834777832031 433.1596374511719 503.2339172363281 433.11285400390625 C 502.689453125 433.06182861328125 502.1598205566406 432.90325927734375 501.64501953125 432.63720703125 C 501.13446044921875 432.37628173828125 500.6877746582031 432.01483154296875 500.3049621582031 431.55279541015625 L 493.18463134765625 422.95941162109375 C 492.8103332519531 422.5076599121094 492.54241943359375 422.0067138671875 492.3809509277344 421.45654296875 C 492.2194519042969 420.9063720703125 492.1642150878906 420.35906982421875 492.21527099609375 419.81463623046875 C 492.2671813964844 419.26080322265625 492.4236145019531 418.7286071777344 492.6845397949219 418.2180480957031 C 492.9454650878906 417.7074890136719 493.3069152832031 417.26080322265625 493.7689208984375 416.87799072265625 L 505.1190185546875 407.4735412597656 C 505.5810241699219 407.0907287597656 506.08709716796875 406.8185729980469 506.63726806640625 406.6571044921875 C 507.19256591796875 406.4913635253906 507.74456787109375 406.43658447265625 508.2932434082031 406.49273681640625 C 508.8376770019531 406.5437927246094 509.3652038574219 406.69976806640625 509.8757629394531 406.960693359375 C 510.3863220214844 407.22161865234375 510.8287658691406 407.57794189453125 511.20306396484375 408.0296936035156 L 518.3233642578125 416.62310791015625 C 518.7061767578125 417.0851135253906 518.9783325195312 417.5911865234375 519.1398315429688 418.141357421875 C 519.3056030273438 418.6966552734375 519.3629150390625 419.24652099609375 519.3118896484375 419.79095458984375 C 519.2608642578125 420.3354187011719 519.102294921875 420.8650207519531 518.8362426757812 421.3798522949219 C 518.5753173828125 421.8904113769531 518.2138671875 422.33709716796875 517.7518310546875 422.71990966796875 L 514.7102661132812 425.2401123046875 L 511.9476318359375 421.9059143066406 L 514.9891967773438 419.3857421875 L 507.8688659667969 410.7923278808594 Z" transform="matrix(0.7223702073097229, -0.6915093660354614, 0.6915093660354614, 0.7223702073097229, -40.0788688659668, 459.86346435546875)" style="fill: rgb(51, 51, 51);"/><path d="M 592.1617431640625 233.55722045898438 C 591.8274536132812 233.03506469726562 591.6112060546875 232.4808807373047 591.512939453125 231.89466857910156 C 591.4166870117188 231.29925537109375 591.4320068359375 230.72348022460938 591.5587768554688 230.16734313964844 C 591.6912231445312 229.60760498046875 591.921142578125 229.07647705078125 592.24853515625 228.57398986816406 C 592.5795288085938 228.0771026611328 593.006103515625 227.66151428222656 593.5282592773438 227.3272247314453 L 607.9212036132812 218.1124725341797 C 608.437744140625 217.78176879882812 608.9937133789062 217.56829833984375 609.589111328125 217.47207641601562 C 610.1824951171875 217.3850555419922 610.7611083984375 217.39854431152344 611.3248901367188 217.51255798339844 C 611.883056640625 217.63015747070312 612.4095458984375 217.8590545654297 612.9044189453125 218.19924926757812 C 613.4013061523438 218.53024291992188 613.81689453125 218.95681762695312 614.1511840820312 219.47897338867188 L 616.3402709960938 222.8982391357422 L 612.5420532226562 225.32998657226562 L 610.3529052734375 221.9107208251953 L 595.9600219726562 231.12547302246094 L 608.0917358398438 250.07461547851562 L 622.4846801757812 240.85986328125 L 620.3009643554688 237.4490203857422 L 624.0992431640625 235.01727294921875 L 626.282958984375 238.42811584472656 C 626.6136474609375 238.9446563720703 626.8253173828125 239.49783325195312 626.91796875 240.08763122558594 C 627.019775390625 240.679443359375 627.0090942382812 241.25624084472656 626.8858642578125 241.8179931640625 C 626.7606201171875 242.3889617919922 626.53076171875 242.92007446289062 626.1961669921875 243.41134643554688 C 625.85595703125 243.9062042236328 625.4276123046875 244.31898498535156 624.9110717773438 244.64968872070312 L 610.5181274414062 253.86444091796875 C 609.9959716796875 254.19874572753906 609.4417724609375 254.41500854492188 608.8555908203125 254.5132598876953 C 608.2693481445312 254.61151123046875 607.6907958984375 254.5980224609375 607.1198120117188 254.4727783203125 C 606.5580444335938 254.3495635986328 606.0269165039062 254.11964416503906 605.5264892578125 253.78305053710938 C 605.0352172851562 253.44845581054688 604.6242065429688 253.0229034423828 604.2935180664062 252.50636291503906 L 592.1617431640625 233.55722045898438 ZM 634.71484375 229.30303955078125 C 634.5396728515625 228.72918701171875 634.4845581054688 228.16049194335938 634.5494995117188 227.5969696044922 C 634.6144409179688 227.033447265625 634.777587890625 226.50616455078125 635.0389404296875 226.01512145996094 C 635.2938842773438 225.52603149414062 635.63916015625 225.09300231933594 636.0747680664062 224.716064453125 C 636.5122680664062 224.34548950195312 637.0115966796875 224.07455444335938 637.5726928710938 223.9032440185547 L 648.246337890625 220.6446075439453 L 646.9265747070312 216.3215789794922 L 633.412353515625 220.44744873046875 L 632.1480102539062 216.30615234375 L 645.6622314453125 212.18028259277344 C 646.236083984375 212.0050811767578 646.8079223632812 211.94898986816406 647.3778686523438 212.01199340820312 C 647.9541015625 212.07305908203125 648.483642578125 212.23204040527344 648.9663696289062 212.48895263671875 C 649.4490356445312 212.74586486816406 649.876708984375 213.0962677001953 650.2492065429688 213.54017639160156 C 650.6197509765625 213.9777069091797 650.8926391601562 214.4833984375 651.06787109375 215.0572509765625 L 656.6361694335938 233.2961883544922 L 652.494873046875 234.56051635742188 L 651.3385620117188 230.77310180664062 C 651.4599609375 231.3076171875 651.4695434570312 231.84140014648438 651.367431640625 232.3744659423828 C 651.2736206054688 232.9119415283203 651.0943603515625 233.40928649902344 650.8296508789062 233.8665008544922 C 650.556640625 234.3192901611328 650.21435546875 234.71653747558594 649.8028564453125 235.05825805664062 C 649.385009765625 235.4019012451172 648.9114990234375 235.65452575683594 648.3822631835938 235.8160858154297 L 641.8212280273438 237.8191680908203 C 641.2601318359375 237.99046325683594 640.694580078125 238.04461669921875 640.1246948242188 237.9816131591797 C 639.5548095703125 237.91860961914062 639.0285034179688 237.75865173339844 638.5457763671875 237.50173950195312 C 638.0547485351562 237.24038696289062 637.6239013671875 236.89096069335938 637.2533569335938 236.45343017578125 C 636.8828125 236.01589965820312 636.6099243164062 235.5102081298828 636.4346923828125 234.9363555908203 L 634.71484375 229.30303955078125 M 640.556884765625 233.6778564453125 L 651.2305297851562 230.41921997070312 L 649.5106811523438 224.78590393066406 L 638.8370361328125 228.04454040527344 L 640.556884765625 233.6778564453125 ZM 667.6719360351562 211.92689514160156 L 670.4006958007812 230.8006591796875 L 666.135009765625 231.41738891601562 L 662.7866821289062 208.2581787109375 L 667.0523681640625 207.64146423339844 L 667.643310546875 211.7289581298828 C 667.587646484375 211.15771484375 667.6423950195312 210.60418701171875 667.807373046875 210.06838989257812 C 667.966796875 209.54014587402344 668.2111206054688 209.06361389160156 668.5404052734375 208.6387939453125 C 668.86962890625 208.21397399902344 669.2730712890625 207.85926818847656 669.7505493164062 207.57467651367188 C 670.2280883789062 207.2900848388672 670.7571411132812 207.10581970214844 671.3378295898438 207.02188110351562 L 675.8805541992188 206.36508178710938 C 676.474365234375 206.27923583984375 677.0448608398438 206.31126403808594 677.5919189453125 206.46119689941406 C 678.1390380859375 206.61111450195312 678.63818359375 206.84881591796875 679.08935546875 207.1742706298828 C 679.5339965820312 207.50067138671875 679.9066162109375 207.9115753173828 680.207275390625 208.406982421875 C 680.5069580078125 208.8957977294922 680.6997680664062 209.43711853027344 680.7855834960938 210.03094482421875 L 681.350830078125 213.94029235839844 L 677.0653686523438 214.55987548828125 L 676.5001220703125 210.65052795410156 L 667.6719360351562 211.92689514160156 ZM 709.389892578125 200.86968994140625 C 709.4351806640625 200.2513427734375 709.5941162109375 199.67808532714844 709.8667602539062 199.14991760253906 C 710.146484375 198.61558532714844 710.5037841796875 198.16380310058594 710.9385986328125 197.79457092285156 C 711.3800048828125 197.4258270263672 711.88232421875 197.13841247558594 712.445556640625 196.9323272705078 C 713.00830078125 196.73287963867188 713.5988159179688 196.6558074951172 714.2171630859375 196.70108032226562 L 731.2615356445312 197.94908142089844 C 731.8732299804688 197.99386596679688 732.4462890625 198.15614318847656 732.9805908203125 198.4359130859375 C 733.5078125 198.7218475341797 733.962890625 199.07936096191406 734.3458862304688 199.50848388671875 C 734.7222900390625 199.93710327148438 735.006591796875 200.4358673095703 735.1989135742188 201.00477600097656 C 735.3983764648438 201.5675048828125 735.4754638671875 202.1580352783203 735.43017578125 202.77638244628906 L 735.1336669921875 206.82554626464844 L 730.6357421875 206.49620056152344 L 730.9321899414062 202.44703674316406 L 713.8878173828125 201.19903564453125 L 712.2447509765625 223.6389617919922 L 729.2891235351562 224.886962890625 L 729.5848999023438 220.8477783203125 L 734.0828247070312 221.1771240234375 L 733.787109375 225.21630859375 C 733.7423095703125 225.8280029296875 733.5802612304688 226.39768981933594 733.3009643554688 226.92538452148438 C 733.0278930664062 227.46018981933594 732.6736450195312 227.91554260253906 732.2384033203125 228.2914276123047 C 731.7959594726562 228.67347717285156 731.2936401367188 228.9608917236328 730.7313842773438 229.1536865234375 C 730.1625366210938 229.34597778320312 729.5722045898438 229.41973876953125 728.9605102539062 229.3749542236328 L 711.9161376953125 228.126953125 C 711.2977905273438 228.0816650390625 710.7245483398438 227.92271423339844 710.1964111328125 227.65008544921875 C 709.668212890625 227.37745666503906 709.213134765625 227.01992797851562 708.8310546875 226.5775146484375 C 708.4552001953125 226.14224243164062 708.1677856445312 225.63990783691406 707.9688110351562 225.07052612304688 C 707.7760009765625 224.50828552246094 707.7020263671875 223.9213104248047 707.746826171875 223.3096160888672 L 709.389892578125 200.86968994140625 ZM 753.0467529296875 200.65672302246094 L 746.7180786132812 232.44281005859375 L 742.4910278320312 231.6011962890625 L 748.8197021484375 199.8151092529297 L 753.0467529296875 200.65672302246094 ZM 763.7012939453125 212.21047973632812 L 767.7806396484375 213.60150146484375 L 761.6259155273438 231.6510009765625 L 773.0405883789062 235.54327392578125 L 779.1952514648438 217.4937744140625 L 783.2935791015625 218.89125061035156 L 775.7413940429688 241.03903198242188 L 771.6431274414062 239.6415557861328 L 772.921142578125 235.8934783935547 C 772.7068481445312 236.39797973632812 772.4024047851562 236.8365020751953 772.0076904296875 237.2090606689453 C 771.6171264648438 237.59007263183594 771.1807861328125 237.8885498046875 770.6986694335938 238.1044921875 C 770.2186279296875 238.31411743164062 769.7086791992188 238.43605041503906 769.168701171875 238.4702911376953 C 768.6287841796875 238.50453186035156 768.096923828125 238.43235778808594 767.5731811523438 238.25376892089844 L 760.2284545898438 235.74928283691406 C 759.6732177734375 235.55995178222656 759.1829223632812 235.27301025390625 758.757568359375 234.8885040283203 C 758.3322143554688 234.5039825439453 757.9989624023438 234.06634521484375 757.7578125 233.57557678222656 C 757.512451171875 233.07635498046875 757.3674926757812 232.54090881347656 757.3229370117188 231.96926879882812 C 757.2783813476562 231.39764404296875 757.3529663085938 230.82786560058594 757.5465698242188 230.25997924804688 L 763.7012939453125 212.21047973632812 ZM 804.2882690429688 253.23907470703125 C 803.9491577148438 253.7340545654297 803.5372924804688 254.13473510742188 803.0526733398438 254.4411163330078 C 802.5679931640625 254.74749755859375 802.0550537109375 254.95367431640625 801.5137329101562 255.05963134765625 C 800.9761962890625 255.16009521484375 800.4261474609375 255.15499877929688 799.8635864257812 255.04432678222656 C 799.2954711914062 254.92990112304688 798.763916015625 254.70314025878906 798.2689208984375 254.36402893066406 L 788.3197631835938 247.54811096191406 C 787.8357543945312 247.21653747558594 787.4405517578125 246.8084259033203 787.1342163085938 246.3237762451172 C 786.8278198242188 245.83912658691406 786.6243896484375 245.3280487060547 786.52392578125 244.79052734375 C 786.4217529296875 244.2437286376953 786.4259643554688 243.6890411376953 786.53662109375 243.12644958496094 C 786.6472778320312 242.56385803222656 786.8721923828125 242.03506469726562 787.2113037109375 241.5400848388672 L 803.0812377929688 218.37477111816406 L 806.6368408203125 220.81065368652344 L 799.2105712890625 231.65081787109375 C 799.5565795898438 231.1929168701172 799.9717407226562 230.82278442382812 800.4561157226562 230.54043579101562 C 800.9312133789062 230.2598114013672 801.4337158203125 230.0747833251953 801.9636840820312 229.98532104492188 C 802.4937133789062 229.89585876464844 803.0307006835938 229.90818786621094 803.5747680664062 230.02232360839844 C 804.1188354492188 230.13644409179688 804.6328735351562 230.3592987060547 805.1168212890625 230.69085693359375 L 811.493896484375 235.05960083007812 C 811.9888916015625 235.39871215820312 812.392333984375 235.81246948242188 812.7042236328125 236.30088806152344 C 813.0105590820312 236.78553771972656 813.2139892578125 237.29661560058594 813.314453125 237.8341522216797 C 813.4149169921875 238.37167358398438 813.407958984375 238.92446899414062 813.2935180664062 239.49256896972656 C 813.182861328125 240.05516052246094 812.9579467773438 240.5839385986328 812.6188354492188 241.0789337158203 L 804.2882690429688 253.23907470703125 M 799.0975341796875 231.81582641601562 L 790.7669067382812 243.97596740722656 L 800.7161254882812 250.79188537597656 L 809.0466918945312 238.6317596435547 L 799.0975341796875 231.81582641601562 Z" transform="matrix(0.9942100644111633, -0.10745900124311447, 0.10745900124311447, 0.9942100644111633, 28.102012634277344, 196.7655792236328)" style="fill: rgb(51, 51, 51);"/></svg>