<?xml version="1.0" encoding="utf-8"?>
<svg id="master-artboard" viewBox="0 0 2400 2400" version="1.1" xmlns="http://www.w3.org/2000/svg" x="0px" y="0px" style="enable-background:new 0 0 2400 2400;" width="2400px" height="2400px"><defs><style id="ee-google-fonts">@import url(https://fonts.googleapis.com/css?family=Asul:400,700);</style><path id="text-path-0" d="M 915.3937377929688 1218.8106689453125 A 100 -100 0 0 0 1611.897216796875 1218.8106689453125 A 100 -100 0 0 0 915.3937377929688 1218.8106689453125 Z" style="fill: none; stroke: red; stroke-width: 2;"/></defs>

<path class="st0" d="M850,1500.5l-400,0c-27.5,0-50,22.5-50,50v400c0,27.5,22.5,50,50,50h400c27.5,0,50-22.5,50-50v-400&#10;&#9;&#9;C900,1523,877.5,1500.5,850,1500.5z" style="fill: rgb(215, 25, 32);" transform="matrix(1.558335636144155, 0, 0, 1.558335636144155, 175.4770248365936, -1508.5105709383417)"/><path class="st1" d="M662.9,2000.5H850c27.5,0,50-22.5,50-50v-161.2l-144.4-144.4L629,1597.1l-19.5,31l8,8&#10;&#9;&#9;c0,0-86.2,18.1-113.5,90.6c-27.2,72.5,27.5,142.4,27.5,142.4L662.9,2000.5z" style="opacity: 0.2;" transform="matrix(1.435066650390625, 0, 0, 1.435066650390625, 286.4190795898437, -1323.5455362548828)"/><path class="st2" d="M627.9,1636.2c-75.3,0-136.4,61.1-136.4,136.4c0,75.3,61.1,136.4,136.4,136.4c75.3,0,136.4-61.1,136.4-136.4&#10;&#9;&#9;&#9;C764.3,1697.2,703.2,1636.2,627.9,1636.2z M513.1,1783.8c-6.2,0-11.2-5-11.2-11.2c0-6.2,5-11.2,11.2-11.2c6.2,0,11.2,5,11.2,11.2&#10;&#9;&#9;&#9;C524.3,1778.8,519.3,1783.8,513.1,1783.8z M701.1,1683.5c4.4-4.4,11.5-4.4,15.8,0c4.4,4.4,4.4,11.5,0,15.8&#10;&#9;&#9;&#9;c-4.4,4.4-11.5,4.4-15.8,0C696.8,1695,696.8,1687.9,701.1,1683.5z M677.8,1706.9c4.4-4.4,11.5-4.4,15.8,0c4.4,4.4,4.4,11.5,0,15.8&#10;&#9;&#9;&#9;c-4.4,4.4-11.5,4.4-15.8,0C673.4,1718.3,673.4,1711.3,677.8,1706.9z M627.9,1646.6c6.2,0,11.2,5,11.2,11.2s-5,11.2-11.2,11.2&#10;&#9;&#9;&#9;c-6.2,0-11.2-5-11.2-11.2C616.7,1651.6,621.7,1646.6,627.9,1646.6z M627.9,1679.7c6.2,0,11.2,5,11.2,11.2s-5,11.2-11.2,11.2&#10;&#9;&#9;&#9;c-6.2,0-11.2-5-11.2-11.2S621.7,1679.7,627.9,1679.7z M562.2,1706.9c4.4-4.4,11.5-4.4,15.8,0c4.4,4.4,4.4,11.5,0,15.8&#10;&#9;&#9;&#9;c-4.4,4.4-11.5,4.4-15.8,0C557.8,1718.3,557.8,1711.3,562.2,1706.9z M554.7,1861.6c-4.4,4.4-11.5,4.4-15.8,0&#10;&#9;&#9;&#9;c-4.4-4.4-4.4-11.5,0-15.8c4.4-4.4,11.5-4.4,15.8,0C559,1850.2,559,1857.3,554.7,1861.6z M535,1772.6c0-6.2,5-11.2,11.2-11.2&#10;&#9;&#9;&#9;c6.2,0,11.2,5,11.2,11.2c0,6.2-5,11.2-11.2,11.2C540,1783.8,535,1778.8,535,1772.6z M554.7,1699.3c-4.4,4.4-11.5,4.4-15.8,0&#10;&#9;&#9;&#9;c-4.4-4.4-4.4-11.5,0-15.8c4.4-4.4,11.5-4.4,15.8,0C559,1687.9,559,1695,554.7,1699.3z M578,1838.3c-4.4,4.4-11.5,4.4-15.8,0&#10;&#9;&#9;&#9;c-4.4-4.4-4.4-11.5,0-15.8c4.4-4.4,11.5-4.4,15.8,0C582.4,1826.8,582.4,1833.9,578,1838.3z M627.9,1898.5c-6.2,0-11.2-5-11.2-11.2&#10;&#9;&#9;&#9;c0-6.2,5-11.2,11.2-11.2c6.2,0,11.2,5,11.2,11.2C639.1,1893.5,634.1,1898.5,627.9,1898.5z M627.9,1865.5c-6.2,0-11.2-5-11.2-11.2&#10;&#9;&#9;&#9;c0-6.2,5-11.2,11.2-11.2c6.2,0,11.2,5,11.2,11.2C639.1,1860.5,634.1,1865.5,627.9,1865.5z M627.9,1833.4&#10;&#9;&#9;&#9;c-33.6,0-60.8-27.2-60.8-60.8c0-33.6,27.2-60.8,60.8-60.8c33.6,0,60.8,27.2,60.8,60.8C688.7,1806.1,661.5,1833.4,627.9,1833.4z&#10;&#9;&#9;&#9; M693.6,1838.3c-4.4,4.4-11.5,4.4-15.8,0c-4.4-4.4-4.4-11.5,0-15.8c4.4-4.4,11.5-4.4,15.8,0C698,1826.8,698,1833.9,693.6,1838.3z&#10;&#9;&#9;&#9; M717,1861.6c-4.4,4.4-11.5,4.4-15.8,0c-4.4-4.4-4.4-11.5,0-15.8c4.4-4.4,11.5-4.4,15.8,0C721.3,1850.2,721.3,1857.3,717,1861.6z&#10;&#9;&#9;&#9; M709.6,1783.8c-6.2,0-11.2-5-11.2-11.2c0-6.2,5-11.2,11.2-11.2c6.2,0,11.2,5,11.2,11.2C720.8,1778.8,715.8,1783.8,709.6,1783.8z&#10;&#9;&#9;&#9; M742.7,1783.8c-6.2,0-11.2-5-11.2-11.2c0-6.2,5-11.2,11.2-11.2c6.2,0,11.2,5,11.2,11.2C753.8,1778.8,748.8,1783.8,742.7,1783.8z" style="fill: rgb(255, 255, 255);" transform="matrix(1.435066650390625, 0, 0, 1.435066650390625, 286.4190795898437, -1323.5455362548828)"/><path class="st3" d="M627.9,1722.8c-27.5,0-49.7,22.3-49.7,49.7c0,27.5,22.3,49.7,49.7,49.7c27.5,0,49.7-22.3,49.7-49.7&#10;&#9;&#9;&#9;S655.4,1722.8,627.9,1722.8z M627.9,1787.4c-8.2,0-14.8-6.6-14.8-14.8s6.6-14.8,14.8-14.8c8.2,0,14.8,6.6,14.8,14.8&#10;&#9;&#9;&#9;S636.1,1787.4,627.9,1787.4z" style="fill: rgb(209, 211, 212);" transform="matrix(1.435066650390625, 0, 0, 1.435066650390625, 286.4190795898437, -1323.5455362548828)"/><path class="st3" d="M627.9,1592c-6.2,0-12.4,0.3-18.5,0.9v35.2c6-0.8,12.2-1.2,18.5-1.2c80.5,0,145.7,65.2,145.7,145.7&#10;&#9;&#9;&#9;&#9;c0,20.5-4.2,39.9-11.8,57.6l2.5,3.2H798c6.8-19,10.5-39.5,10.5-60.8C808.5,1672.8,727.6,1592,627.9,1592z" style="fill: rgb(209, 211, 212);" transform="matrix(1.435066650390625, 0, 0, 1.435066650390625, 286.4190795898437, -1323.5455362548828)"/><path class="st3" d="M627.9,1630.4c-6.3,0-12.4,0.4-18.5,1.2v11.6l18.5,21.7c59.5,0,107.7,48.2,107.7,107.7&#10;&#9;&#9;&#9;&#9;c0,7.4-0.8,14.7-2.2,21.7l25.9,32.7c7-16.8,10.8-35.1,10.8-54.4C770,1694.1,706.4,1630.4,627.9,1630.4z" style="fill: rgb(209, 211, 212);" transform="matrix(1.435066650390625, 0, 0, 1.435066650390625, 286.4190795898437, -1323.5455362548828)"/>








<path d="M 1027.182861328125 1382.8077392578125 L 1035.1451416015625 1393.034912109375 C 1043.547119140625 1404.1417236328125 1043.7445068359375 1412.7236328125 1035.7374267578125 1418.78076171875 C 1031.856201171875 1421.716796875 1027.6363525390625 1422.89013671875 1023.0778198242188 1422.301025390625 C 1018.5193481445312 1421.7117919921875 1014.3767700195312 1419.4788818359375 1010.6500854492188 1415.6021728515625 L 1006.6244506835938 1431.198974609375 C 1004.9312744140625 1437.712646484375 1003.9531860351562 1442.38134765625 1003.690185546875 1445.2052001953125 C 1003.4231567382812 1448.023681640625 1003.5819702148438 1450.1563720703125 1004.1665649414062 1451.603271484375 L 1003.4727783203125 1452.128173828125 L 994.8637084960938 1440.74755859375 C 995.6356201171875 1438.7843017578125 996.6434936523438 1435.8402099609375 997.8873291015625 1431.9150390625 L 1005.1458129882812 1408.7568359375 L 1003.7550659179688 1406.6365966796875 L 992.8609619140625 1414.8775634765625 C 988.0014038085938 1418.5537109375 984.70263671875 1421.5966796875 982.9645385742188 1424.0064697265625 L 982.47802734375 1424.37451171875 L 975.2867431640625 1414.8681640625 L 975.7732543945312 1414.5001220703125 C 978.7975463867188 1413.5916748046875 982.4364013671875 1411.528564453125 986.6898193359375 1408.31103515625 L 1013.614013671875 1387.9437255859375 C 1018.4256591796875 1384.3038330078125 1021.7504272460938 1381.2454833984375 1023.5881958007812 1378.7685546875 L 1024.07470703125 1378.4005126953125 C 1024.07470703125 1378.4005126953125 1025.1107177734375 1379.8695068359375 1027.182861328125 1382.8077392578125 M 1030.9224853515625 1394.8123779296875 C 1029.245361328125 1392.5953369140625 1027.804931640625 1390.884521484375 1026.601318359375 1389.68017578125 C 1025.481201171875 1390.3101806640625 1018.9982299804688 1395.1055908203125 1007.1524658203125 1404.0665283203125 C 1008.2252807617188 1405.8714599609375 1009.3408203125 1407.53955078125 1010.4991455078125 1409.07080078125 C 1013.4351806640625 1412.9520263671875 1016.3990478515625 1415.0191650390625 1019.3908081054688 1415.2720947265625 C 1022.3785400390625 1415.519775390625 1025.618896484375 1414.3223876953125 1029.112060546875 1411.6800537109375 C 1032.605224609375 1409.03759765625 1034.4632568359375 1406.4658203125 1034.686279296875 1403.9649658203125 C 1034.907958984375 1401.4732666015625 1033.6534423828125 1398.4224853515625 1030.9224853515625 1394.8123779296875 ZM 1018.3523559570312 1467.373046875 C 1014.04150390625 1463.0760498046875 1012.0045166015625 1458.3818359375 1012.2413940429688 1453.290283203125 C 1012.478271484375 1448.2081298828125 1014.7781982421875 1443.478515625 1019.1410522460938 1439.1015625 C 1023.5038452148438 1434.724609375 1028.67822265625 1432.24365234375 1034.6641845703125 1431.658935546875 C 1040.6500244140625 1431.0740966796875 1045.65673828125 1432.7889404296875 1049.684326171875 1436.8035888671875 C 1057.040771484375 1444.1361083984375 1056.1937255859375 1452.34228515625 1047.1431884765625 1461.422119140625 L 1042.653076171875 1461.36572265625 L 1026.257080078125 1445.022705078125 C 1022.816650390625 1448.4742431640625 1020.97412109375 1451.800537109375 1020.7294311523438 1455.0018310546875 C 1020.4942016601562 1458.2030029296875 1021.6278686523438 1461.0509033203125 1024.13037109375 1463.5452880859375 C 1025.1171875 1464.5289306640625 1026.811279296875 1465.62451171875 1029.212646484375 1466.8321533203125 C 1031.6141357421875 1468.039794921875 1033.923095703125 1468.9293212890625 1036.1395263671875 1469.5008544921875 L 1035.3468017578125 1473.3699951171875 C 1033.7864990234375 1473.3773193359375 1030.9853515625 1472.7972412109375 1026.943603515625 1471.6300048828125 C 1022.9017333984375 1470.47216796875 1020.0380249023438 1469.05322265625 1018.3523559570312 1467.373046875 M 1045.50146484375 1438.7760009765625 C 1043.778076171875 1437.0582275390625 1042.055908203125 1436.1181640625 1040.3350830078125 1435.9559326171875 C 1038.487548828125 1436.251220703125 1036.518310546875 1436.9945068359375 1034.42724609375 1438.1859130859375 C 1032.3360595703125 1439.377197265625 1030.6763916015625 1440.5889892578125 1029.447998046875 1441.8214111328125 L 1042.577392578125 1453.919921875 C 1048.5968017578125 1447.8809814453125 1049.571533203125 1442.8330078125 1045.50146484375 1438.7760009765625 ZM 1058.44970703125 1494.479248046875 C 1060.5272216796875 1496.0537109375 1062.263427734375 1496.930419921875 1063.6585693359375 1497.1094970703125 C 1065.0615234375 1496.79248046875 1067.064453125 1495.5458984375 1069.6673583984375 1493.3695068359375 C 1072.2650146484375 1491.189208984375 1074.4920654296875 1488.8743896484375 1076.348388671875 1486.425048828125 C 1082.1990966796875 1478.7049560546875 1082.7894287109375 1473.0751953125 1078.119140625 1469.53564453125 C 1075.15966796875 1467.2928466796875 1070.9957275390625 1466.065185546875 1065.62744140625 1465.8529052734375 L 1051.4393310546875 1484.573974609375 C 1052.877197265625 1488.7252197265625 1055.2139892578125 1492.0269775390625 1058.44970703125 1494.479248046875 M 1034.6700439453125 1493.157958984375 L 1056.4263916015625 1464.4508056640625 C 1057.968505859375 1462.415771484375 1059.090087890625 1460.2626953125 1059.790771484375 1457.9915771484375 C 1060.4915771484375 1455.7203369140625 1060.55615234375 1453.8580322265625 1059.98486328125 1452.4044189453125 L 1060.541259765625 1451.521240234375 L 1071.7264404296875 1456.4974365234375 L 1071.623291015625 1457.510986328125 C 1070.7183837890625 1458.50634765625 1069.531005859375 1459.9737548828125 1068.0611572265625 1461.9130859375 C 1074.490478515625 1461.398681640625 1079.6126708984375 1462.5870361328125 1083.427490234375 1465.478271484375 C 1087.242431640625 1468.369384765625 1089.224365234375 1472.23876953125 1089.3734130859375 1477.086181640625 C 1089.5263671875 1481.9283447265625 1087.97412109375 1486.4986572265625 1084.716552734375 1490.7969970703125 C 1080.6495361328125 1496.163330078125 1075.5738525390625 1499.5439453125 1069.4893798828125 1500.938720703125 C 1063.414306640625 1502.332275390625 1058.3419189453125 1501.48681640625 1054.27197265625 1498.40234375 C 1051.5941162109375 1496.3729248046875 1049.1600341796875 1493.7293701171875 1046.9696044921875 1490.4716796875 L 1043.3939208984375 1495.1898193359375 C 1039.2803955078125 1500.80517578125 1037.28466796875 1505.4031982421875 1037.4066162109375 1508.98388671875 L 1037.140869140625 1509.3345947265625 L 1026.7919921875 1503.12255859375 C 1028.3314208984375 1501.3782958984375 1030.9573974609375 1498.0567626953125 1034.6700439453125 1493.157958984375 ZM 1091.3216552734375 1522.5955810546875 C 1087.05029296875 1520.26318359375 1084.6658935546875 1517.5216064453125 1084.1683349609375 1514.37109375 C 1083.67333984375 1511.2296142578125 1084.691162109375 1507.341796875 1087.2216796875 1502.707763671875 L 1093.1837158203125 1491.7894287109375 C 1095.8260498046875 1486.9505615234375 1097.329345703125 1482.3822021484375 1097.6937255859375 1478.08447265625 L 1097.9813232421875 1477.557861328125 L 1108.5924072265625 1483.3521728515625 L 1108.3048095703125 1483.8787841796875 C 1106.0621337890625 1486.1634521484375 1103.8289794921875 1489.3419189453125 1101.6051025390625 1493.414306640625 L 1095.058349609375 1505.4033203125 C 1093.3905029296875 1508.4576416015625 1092.578857421875 1510.855224609375 1092.623291015625 1512.59619140625 C 1092.6676025390625 1514.3370361328125 1094.164306640625 1516.0126953125 1097.11328125 1517.623046875 C 1100.068115234375 1519.236572265625 1104.295654296875 1519.7296142578125 1109.7957763671875 1519.102294921875 L 1117.4688720703125 1505.05078125 C 1120.16552734375 1500.1124267578125 1121.6922607421875 1495.5567626953125 1122.049072265625 1491.384033203125 L 1122.336669921875 1490.857421875 L 1132.87744140625 1496.6134033203125 L 1132.5899658203125 1497.1400146484375 C 1130.3472900390625 1499.4246826171875 1128.1141357421875 1502.603271484375 1125.8902587890625 1506.6756591796875 L 1118.8450927734375 1519.577392578125 C 1117.621337890625 1521.818359375 1116.8016357421875 1524.2305908203125 1116.385986328125 1526.8140869140625 C 1115.9644775390625 1529.394287109375 1116.0694580078125 1531.31640625 1116.700927734375 1532.580322265625 L 1116.2767333984375 1533.5450439453125 L 1106.1773681640625 1530.7989501953125 C 1106.5894775390625 1527.985595703125 1107.2001953125 1525.41357421875 1108.0093994140625 1523.0830078125 C 1104.3505859375 1523.857666015625 1101.1900634765625 1524.2623291015625 1098.527587890625 1524.2972412109375 C 1095.8651123046875 1524.3321533203125 1093.463134765625 1523.7650146484375 1091.3216552734375 1522.5955810546875 ZM 1138.1138916015625 1535.5513916015625 C 1141.0284423828125 1538.72021484375 1144.0665283203125 1540.8836669921875 1147.227783203125 1542.0413818359375 C 1150.3829345703125 1543.1968994140625 1152.6524658203125 1543.6588134765625 1154.0364990234375 1543.4273681640625 C 1155.36181640625 1542.6773681640625 1156.9376220703125 1540.904541015625 1158.7637939453125 1538.108642578125 C 1160.5877685546875 1535.319091796875 1162.017822265625 1532.509521484375 1163.0540771484375 1529.679931640625 C 1166.38525390625 1520.5841064453125 1165.2181396484375 1514.998779296875 1159.552734375 1512.9239501953125 C 1156.397705078125 1511.7684326171875 1151.9635009765625 1511.9052734375 1146.250244140625 1513.3343505859375 L 1138.1138916015625 1535.5513916015625 M 1155.0469970703125 1489.314453125 L 1147.9559326171875 1508.6768798828125 C 1153.9521484375 1506.3006591796875 1159.1976318359375 1505.935546875 1163.6923828125 1507.5816650390625 C 1168.1871337890625 1509.227783203125 1171.21728515625 1512.3431396484375 1172.78271484375 1516.9278564453125 C 1174.3397216796875 1521.5164794921875 1174.19091796875 1526.3428955078125 1172.336181640625 1531.4073486328125 C 1170.0023193359375 1537.780029296875 1166.095947265625 1542.4658203125 1160.6171875 1545.4647216796875 C 1155.1322021484375 1548.461181640625 1149.8699951171875 1549.03662109375 1144.8306884765625 1547.191162109375 C 1139.7913818359375 1545.3455810546875 1134.1229248046875 1541.970458984375 1127.8255615234375 1537.065673828125 L 1128.00439453125 1536.577392578125 C 1129.2037353515625 1535.16357421875 1130.87060546875 1531.5426025390625 1133.0050048828125 1525.7144775390625 L 1145.361083984375 1491.9759521484375 C 1146.9383544921875 1487.6689453125 1146.89501953125 1483.8228759765625 1145.2310791015625 1480.4375 L 1145.5921630859375 1479.4515380859375 L 1157.58837890625 1481.619140625 L 1157.7774658203125 1482.6148681640625 C 1157.03466796875 1484.1390380859375 1156.12451171875 1486.372314453125 1155.0469970703125 1489.314453125 ZM 1185.753173828125 1558.30419921875 L 1174.8572998046875 1555.5853271484375 L 1175.1090087890625 1554.576171875 C 1176.7684326171875 1552.0013427734375 1178.3568115234375 1547.673828125 1179.8740234375 1541.5936279296875 L 1188.65771484375 1506.3929443359375 C 1189.78271484375 1501.884521484375 1189.3597412109375 1498.072021484375 1187.3890380859375 1494.95556640625 L 1187.6431884765625 1493.936767578125 L 1199.714599609375 1494.794921875 L 1200.008544921875 1495.764892578125 C 1199.4320068359375 1497.359375 1197.9993896484375 1502.74267578125 1195.7105712890625 1511.914794921875 L 1187.89794921875 1543.5958251953125 C 1186.3807373046875 1549.676025390625 1185.749755859375 1554.242431640625 1186.0050048828125 1557.2950439453125 L 1185.753173828125 1558.30419921875 ZM 1200.861572265625 1549.07177734375 L 1203.86181640625 1532.46044921875 C 1204.7801513671875 1527.3760986328125 1203.992431640625 1523.5789794921875 1201.4989013671875 1521.069091796875 L 1201.6854248046875 1520.035888671875 L 1214.131591796875 1520.159912109375 L 1214.4886474609375 1521.1085205078125 C 1214.018310546875 1522.737548828125 1213.504638671875 1525.09375 1212.94775390625 1528.17724609375 L 1209.298828125 1548.38037109375 C 1208.2679443359375 1554.0880126953125 1208.17041015625 1558.6973876953125 1209.00634765625 1562.20849609375 L 1208.89794921875 1562.808837890625 L 1197.3448486328125 1560.72216796875 L 1197.4532470703125 1560.121826171875 C 1198.849853515625 1557.6033935546875 1199.9859619140625 1553.919921875 1200.861572265625 1549.07177734375 M 1216.85498046875 1501.6492919921875 C 1217.5321044921875 1502.4761962890625 1217.6337890625 1504.20166015625 1217.1597900390625 1506.825927734375 C 1217.0460205078125 1507.4556884765625 1216.9134521484375 1508.0211181640625 1216.761962890625 1508.522216796875 L 1215.964599609375 1508.998046875 C 1213.56787109375 1509.2154541015625 1210.7760009765625 1509.18212890625 1207.589111328125 1508.8978271484375 L 1206.8720703125 1508.4228515625 C 1206.2882080078125 1506.779541015625 1206.2178955078125 1504.7310791015625 1206.6610107421875 1502.2774658203125 C 1206.7120361328125 1501.995361328125 1206.7635498046875 1501.7099609375 1206.815673828125 1501.4212646484375 L 1207.6129150390625 1500.9454345703125 C 1210.513427734375 1500.527587890625 1213.219970703125 1500.545654296875 1215.732666015625 1500.99951171875 C 1216.021240234375 1501.0516357421875 1216.3953857421875 1501.2681884765625 1216.85498046875 1501.6492919921875 ZM 1235.34326171875 1528.890380859375 C 1233.3389892578125 1529.885009765625 1231.664794921875 1531.7640380859375 1230.320556640625 1534.5272216796875 C 1228.982421875 1537.2977294921875 1228.1458740234375 1540.6624755859375 1227.8111572265625 1544.6217041015625 C 1227.4764404296875 1548.5809326171875 1227.978271484375 1552.1024169921875 1229.3165283203125 1555.18603515625 C 1230.6614990234375 1558.2703857421875 1233.0677490234375 1559.9591064453125 1236.535400390625 1560.252197265625 C 1238.84716796875 1560.4476318359375 1241.5794677734375 1560.14013671875 1244.7322998046875 1559.3294677734375 C 1247.8851318359375 1558.5189208984375 1249.98486328125 1557.77978515625 1251.031494140625 1557.1123046875 L 1252.918212890625 1560.673828125 C 1245.087646484375 1565.13671875 1239.265869140625 1567.20703125 1235.452880859375 1566.8846435546875 C 1229.6668701171875 1566.3953857421875 1225.279296875 1564.044189453125 1222.290283203125 1559.8306884765625 C 1219.30126953125 1555.6171875 1218.0755615234375 1550.331787109375 1218.613037109375 1543.9744873046875 C 1219.1505126953125 1537.6171875 1221.75244140625 1532.4814453125 1226.418701171875 1528.5673828125 C 1231.0850830078125 1524.6531982421875 1236.1783447265625 1522.929443359375 1241.69873046875 1523.396240234375 C 1247.218994140625 1523.8629150390625 1251.6939697265625 1525.4957275390625 1255.123779296875 1528.2945556640625 C 1252.569091796875 1531.684814453125 1250.91455078125 1533.7259521484375 1250.1602783203125 1534.418212890625 C 1246.4814453125 1531.0831298828125 1242.8485107421875 1529.263916015625 1239.26123046875 1528.960693359375 C 1237.9326171875 1528.8482666015625 1236.626708984375 1528.8248291015625 1235.34326171875 1528.890380859375 ZM 1285.4305419921875 1534.0040283203125 C 1286.383056640625 1542.302978515625 1289.1241455078125 1548.527587890625 1293.653564453125 1552.67822265625 C 1298.189697265625 1556.8280029296875 1303.4249267578125 1558.5623779296875 1309.359375 1557.8812255859375 C 1313.684326171875 1557.3848876953125 1319.1953125 1554.7694091796875 1325.8924560546875 1550.0347900390625 L 1328.633056640625 1553.3035888671875 C 1326.2021484375 1555.5689697265625 1324.3046875 1557.2193603515625 1322.9405517578125 1558.2550048828125 C 1321.569091796875 1559.2847900390625 1320.01220703125 1560.3660888671875 1318.27001953125 1561.498779296875 C 1314.733154296875 1563.716552734375 1310.83203125 1565.0701904296875 1306.566650390625 1565.559814453125 C 1299.075927734375 1566.4195556640625 1292.370361328125 1564.357421875 1286.4500732421875 1559.373291015625 C 1280.536376953125 1554.388427734375 1277.0406494140625 1547.2001953125 1275.962646484375 1537.8084716796875 C 1274.8846435546875 1528.4168701171875 1277.063232421875 1520.416259765625 1282.4984130859375 1513.806640625 C 1287.9268798828125 1507.1978759765625 1295.164794921875 1503.374267578125 1304.2120361328125 1502.3359375 C 1310.265625 1501.64111328125 1316.1005859375 1502.3739013671875 1321.7169189453125 1504.5341796875 C 1321.444580078125 1508.2427978515625 1320.5863037109375 1511.434814453125 1319.1419677734375 1514.1102294921875 C 1312.652099609375 1510.01025390625 1305.949951171875 1508.3570556640625 1299.0352783203125 1509.150634765625 C 1296.9622802734375 1509.3885498046875 1294.96875 1509.822021484375 1293.0545654296875 1510.4510498046875 C 1290.371337890625 1512.9735107421875 1288.2779541015625 1516.2200927734375 1286.7742919921875 1520.1907958984375 C 1285.2763671875 1524.154052734375 1284.8284912109375 1528.758544921875 1285.4305419921875 1534.0040283203125 ZM 1354.9110107421875 1536.898193359375 C 1352.3931884765625 1536.6614990234375 1349.6326904296875 1536.94091796875 1346.629638671875 1537.7362060546875 C 1343.6329345703125 1538.52978515625 1341.58740234375 1539.5819091796875 1340.4931640625 1540.892333984375 C 1339.990234375 1542.40478515625 1340.024658203125 1544.240478515625 1340.596435546875 1546.3994140625 C 1341.1680908203125 1548.558349609375 1342.20751953125 1550.100341796875 1343.714599609375 1551.0252685546875 C 1345.2198486328125 1551.94384765625 1346.85546875 1552.1693115234375 1348.6212158203125 1551.70166015625 C 1350.3870849609375 1551.234130859375 1352.0726318359375 1550.2945556640625 1353.67822265625 1548.8831787109375 C 1355.281982421875 1547.46533203125 1356.3909912109375 1546.1060791015625 1357.005126953125 1544.8055419921875 L 1354.9110107421875 1536.898193359375 M 1359.47216796875 1548.6522216796875 C 1357.045166015625 1553.3155517578125 1353.685546875 1556.215576171875 1349.3935546875 1557.352294921875 C 1345.10791015625 1558.4873046875 1341.4990234375 1558.453369140625 1338.5667724609375 1557.2506103515625 C 1335.63916015625 1556.039794921875 1333.630126953125 1553.375244140625 1332.53955078125 1549.25732421875 C 1331.447265625 1545.1328125 1332.107421875 1541.79248046875 1334.5201416015625 1539.236328125 C 1336.9327392578125 1536.6800537109375 1340.77490234375 1534.7039794921875 1346.0465087890625 1533.307861328125 L 1353.5081787109375 1531.600830078125 L 1352.2384033203125 1526.8060302734375 C 1351.4515380859375 1523.835205078125 1350.0841064453125 1521.614501953125 1348.13623046875 1520.144287109375 C 1346.18994140625 1518.680419921875 1343.7313232421875 1518.341796875 1340.7603759765625 1519.128662109375 C 1338.5845947265625 1519.7669677734375 1335.635986328125 1522.799560546875 1331.9146728515625 1528.2264404296875 C 1329.7410888671875 1526.581298828125 1327.878173828125 1524.1954345703125 1326.3260498046875 1521.068603515625 C 1331.405029296875 1517.7994384765625 1336.27099609375 1515.5487060546875 1340.923828125 1514.31640625 C 1345.5767822265625 1513.084228515625 1349.6241455078125 1513.302001953125 1353.0657958984375 1514.9698486328125 C 1356.5074462890625 1516.6375732421875 1358.8154296875 1519.6884765625 1359.9896240234375 1524.122314453125 L 1363.732421875 1538.2550048828125 C 1364.457763671875 1540.759521484375 1365.4832763671875 1542.9913330078125 1366.8089599609375 1544.9505615234375 C 1368.1412353515625 1546.9080810546875 1369.5345458984375 1548.14599609375 1370.989013671875 1548.6641845703125 L 1371.3857421875 1549.4591064453125 L 1362.964599609375 1554.0272216796875 C 1361.7601318359375 1552.422119140625 1360.5960693359375 1550.63037109375 1359.47216796875 1548.6522216796875 ZM 1385.9739990234375 1498.9888916015625 C 1387.6527099609375 1498.3394775390625 1388.9697265625 1498.048095703125 1389.9246826171875 1498.11474609375 C 1390.0496826171875 1498.4381103515625 1390.1748046875 1498.7613525390625 1390.2999267578125 1499.084716796875 C 1391.5360107421875 1502.2806396484375 1392.170654296875 1505.362548828125 1392.20361328125 1508.33056640625 C 1389.16015625 1507.7064208984375 1386.096435546875 1507.9908447265625 1383.012451171875 1509.183837890625 C 1381.3336181640625 1509.8331298828125 1379.7734375 1510.77978515625 1378.3316650390625 1512.0235595703125 L 1385.0489501953125 1529.3897705078125 C 1387.078857421875 1534.6375732421875 1389.5675048828125 1538.7427978515625 1392.5147705078125 1541.705810546875 L 1392.73486328125 1542.274658203125 L 1381.3751220703125 1546.668701171875 L 1381.155029296875 1546.0997314453125 C 1381.029052734375 1543.0390625 1380.097900390625 1539.26416015625 1378.3614501953125 1534.7750244140625 L 1373.02587890625 1520.98095703125 C 1372.1263427734375 1518.655517578125 1370.765625 1516.5513916015625 1368.9437255859375 1514.66845703125 C 1367.13037109375 1512.7894287109375 1365.4564208984375 1511.7142333984375 1363.921875 1511.4429931640625 L 1363.4591064453125 1510.49609375 L 1372.0634765625 1504.27294921875 C 1373.492919921875 1505.3997802734375 1374.855712890625 1506.8348388671875 1376.15185546875 1508.5780029296875 C 1378.098876953125 1503.9649658203125 1381.372802734375 1500.7685546875 1385.9739990234375 1498.9888916015625 ZM 1417.502685546875 1494.7740478515625 C 1421.9012451171875 1501.87548828125 1427.0338134765625 1506.33837890625 1432.9002685546875 1508.16259765625 C 1438.7724609375 1509.9833984375 1444.24755859375 1509.321044921875 1449.32568359375 1506.17578125 C 1453.026611328125 1503.8834228515625 1456.8973388671875 1499.1685791015625 1460.93798828125 1492.03125 L 1464.810302734375 1493.8203125 C 1463.5767822265625 1496.905517578125 1462.5635986328125 1499.2073974609375 1461.77099609375 1500.7255859375 C 1460.9691162109375 1502.24169921875 1460.0216064453125 1503.8834228515625 1458.92822265625 1505.650634765625 C 1456.6739501953125 1509.1641845703125 1453.7218017578125 1512.0513916015625 1450.0718994140625 1514.3121337890625 C 1443.6619873046875 1518.282470703125 1436.717041015625 1519.27490234375 1429.2371826171875 1517.289306640625 C 1421.762939453125 1515.30029296875 1415.536865234375 1510.2874755859375 1410.55908203125 1502.2508544921875 C 1405.5811767578125 1494.2142333984375 1404.1422119140625 1486.0482177734375 1406.2420654296875 1477.7525634765625 C 1408.336181640625 1469.46044921875 1413.254150390625 1462.916748046875 1420.9959716796875 1458.1214599609375 C 1426.1761474609375 1454.912841796875 1431.7669677734375 1453.0889892578125 1437.768310546875 1452.649658203125 C 1439.1026611328125 1456.1204833984375 1439.6866455078125 1459.3739013671875 1439.5203857421875 1462.4097900390625 C 1431.9019775390625 1461.4666748046875 1425.1343994140625 1462.82763671875 1419.2174072265625 1466.4925537109375 C 1417.4434814453125 1467.59130859375 1415.8248291015625 1468.8331298828125 1414.361328125 1470.218017578125 C 1413.009033203125 1473.6434326171875 1412.4989013671875 1477.4725341796875 1412.8309326171875 1481.7054443359375 C 1413.1651611328125 1485.92919921875 1414.7222900390625 1490.285400390625 1417.502685546875 1494.7740478515625 ZM 1485.046630859375 1487.7059326171875 L 1476.2431640625 1494.6781005859375 L 1475.597412109375 1493.86279296875 C 1474.5704345703125 1490.976806640625 1472.1116943359375 1487.0775146484375 1468.220947265625 1482.1649169921875 L 1445.696533203125 1453.7239990234375 C 1442.8116455078125 1450.081298828125 1439.533447265625 1448.089599609375 1435.86181640625 1447.748779296875 L 1435.2099609375 1446.9256591796875 L 1443.2568359375 1437.88671875 L 1444.20458984375 1438.245849609375 C 1445.1158447265625 1439.67578125 1448.506103515625 1444.0960693359375 1454.375244140625 1451.5068359375 L 1474.7041015625 1477.030517578125 C 1478.5947265625 1481.943115234375 1481.8270263671875 1485.2298583984375 1484.4010009765625 1486.8907470703125 L 1485.046630859375 1487.7059326171875 ZM 1504.7303466796875 1471.513916015625 C 1501.263916015625 1474.9298095703125 1497.95068359375 1476.4210205078125 1494.7906494140625 1475.9876708984375 C 1491.6400146484375 1475.554443359375 1488.2117919921875 1473.4573974609375 1484.5057373046875 1469.696533203125 L 1475.774169921875 1460.835693359375 C 1471.9044189453125 1456.90869140625 1467.96484375 1454.1502685546875 1463.955322265625 1452.560302734375 L 1463.5341796875 1452.1329345703125 L 1472.1456298828125 1443.6470947265625 L 1472.5667724609375 1444.074462890625 C 1474.1065673828125 1446.88134765625 1476.5048828125 1449.937255859375 1479.7615966796875 1453.2421875 L 1489.3494873046875 1462.971923828125 C 1491.7919921875 1465.45068359375 1493.8531494140625 1466.920166015625 1495.53271484375 1467.38037109375 C 1497.2122802734375 1467.840576171875 1499.2486572265625 1466.8914794921875 1501.6419677734375 1464.5330810546875 C 1504.0400390625 1462.1700439453125 1505.7327880859375 1458.2650146484375 1506.7203369140625 1452.8179931640625 L 1495.4830322265625 1441.414306640625 C 1491.5338134765625 1437.4066162109375 1487.6131591796875 1434.62939453125 1483.72119140625 1433.0828857421875 L 1483.300048828125 1432.655517578125 L 1491.8544921875 1424.2257080078125 L 1492.275634765625 1424.653076171875 C 1493.8154296875 1427.4599609375 1496.2137451171875 1430.515869140625 1499.470458984375 1433.82080078125 L 1509.788330078125 1444.2913818359375 C 1511.5804443359375 1446.110107421875 1513.6531982421875 1447.5914306640625 1516.006591796875 1448.7353515625 C 1518.3553466796875 1449.884033203125 1520.225830078125 1450.338623046875 1521.6182861328125 1450.0989990234375 L 1522.4193115234375 1450.78369140625 L 1516.8739013671875 1459.6597900390625 C 1514.2994384765625 1458.452880859375 1512.013427734375 1457.1256103515625 1510.0157470703125 1455.677734375 C 1509.7008056640625 1459.4044189453125 1509.1756591796875 1462.5472412109375 1508.4403076171875 1465.1063232421875 C 1507.7049560546875 1467.6654052734375 1506.46826171875 1469.80126953125 1504.7303466796875 1471.513916015625 ZM 1530.6475830078125 1430.4537353515625 C 1534.5230712890625 1428.5782470703125 1537.4715576171875 1426.2943115234375 1539.4927978515625 1423.6019287109375 C 1541.5101318359375 1420.9149169921875 1542.6077880859375 1418.8753662109375 1542.7857666015625 1417.4835205078125 C 1542.450439453125 1415.9979248046875 1541.2080078125 1413.9774169921875 1539.05859375 1411.4217529296875 C 1536.91455078125 1408.8699951171875 1534.6375732421875 1406.6895751953125 1532.227783203125 1404.8804931640625 C 1524.481201171875 1399.0648193359375 1518.7967529296875 1398.5693359375 1515.1744384765625 1403.394287109375 C 1513.1571044921875 1406.0814208984375 1512.0078125 1410.3662109375 1511.726318359375 1416.2486572265625 L 1530.6475830078125 1430.4537353515625 M 1491.2696533203125 1400.8909912109375 L 1507.759765625 1413.270751953125 C 1507.216064453125 1406.8438720703125 1508.3812255859375 1401.7164306640625 1511.2550048828125 1397.888427734375 C 1514.12890625 1394.060546875 1517.9864501953125 1392.0589599609375 1522.827880859375 1391.884033203125 C 1527.670654296875 1391.71826171875 1532.24853515625 1393.2545166015625 1536.561767578125 1396.4925537109375 C 1541.9891357421875 1400.567138671875 1545.347412109375 1405.6600341796875 1546.636474609375 1411.7713623046875 C 1547.9215087890625 1417.887939453125 1546.9530029296875 1423.0921630859375 1543.7310791015625 1427.3839111328125 C 1540.509033203125 1431.67578125 1535.640869140625 1436.1280517578125 1529.126708984375 1440.740966796875 L 1528.7108154296875 1440.4288330078125 C 1527.7034912109375 1438.872314453125 1524.7181396484375 1436.2308349609375 1519.754638671875 1432.5045166015625 L 1491.0208740234375 1410.932861328125 C 1487.352783203125 1408.1790771484375 1483.657958984375 1407.1099853515625 1479.9364013671875 1407.7255859375 L 1479.0966796875 1407.09521484375 L 1484.6358642578125 1396.23583984375 L 1485.643798828125 1396.34228515625 C 1486.8885498046875 1397.4935302734375 1488.7637939453125 1399.009765625 1491.2696533203125 1400.8909912109375 Z" transform="matrix(0.1701476126909256, 0.9854241609573364, -0.9854241609573364, 0.1701476126909256, 2224.90478515625, -250.89056396484375)" style="fill: rgb(254, 254, 254);"/></svg>