<?xml version="1.0" encoding="utf-8"?>
<svg id="master-artboard" viewBox="0 0 1400 980" version="1.1" xmlns="http://www.w3.org/2000/svg" x="0px" y="0px" style="enable-background:new 0 0 1400 980;" width="1400px" height="980px"><defs><style id="ee-google-fonts">@import url(https://fonts.googleapis.com/css?family=Audiowide:400);</style></defs>


<g transform="matrix(1.0163474052315804, 0, 0, 1.0163474052315804, -530.2222569576494, 251.27928882696716)">
	<g>
		<path d="M 1053.699951 19 H 1376.099945 V 405.299988 H 1053.699951 V 19 Z" class="st1" style="fill: rgb(218, 28, 92);"/>
	</g>
</g>




















<g transform="matrix(1.0163474052315804, 0, 0, 1.0163474052315804, -530.2222569576494, 251.27928882696716)">
	<path class="st3" d="M1190.5,345.8c-35.6,0-64.6-29-64.6-64.6c0-35.6,29-64.6,64.6-64.6c35.6,0,64.6,29,64.6,64.6&#10;&#9;&#9;C1255.2,316.8,1226.2,345.8,1190.5,345.8z M1190.5,225.1c-31,0-56.1,25.2-56.1,56.1c0,31,25.2,56.1,56.1,56.1&#10;&#9;&#9;c31,0,56.1-25.2,56.1-56.1C1246.7,250.3,1221.5,225.1,1190.5,225.1z" style="fill: rgb(35, 31, 32);"/>
</g>
<path class="st3" d="M1151.7,116.7c-21.8,0-39.5,17.7-39.5,39.5c0,21.8,17.7,39.5,39.5,39.5c21.8,0,39.5-17.7,39.5-39.5&#10;&#9;C1191.3,134.4,1173.5,116.7,1151.7,116.7z M1151.7,168.9c-7,0-12.7-5.7-12.7-12.7c0-7,5.7-12.7,12.7-12.7c7,0,12.7,5.7,12.7,12.7&#10;&#9;C1164.4,163.3,1158.7,168.9,1151.7,168.9z" style="fill: rgb(35, 31, 32);" transform="matrix(1.0163474052315804, 0, 0, 1.0163474052315804, -530.2222569576494, 251.27928882696716)"/>
<path class="st3" d="M1290.8,179.5c-14.8,0-26.8,12-26.8,26.8c0,14.8,12,26.8,26.8,26.8c14.8,0,26.8-12,26.8-26.8&#10;&#9;C1317.7,191.6,1305.6,179.5,1290.8,179.5z M1290.8,216.6c-5.7,0-10.2-4.6-10.2-10.2s4.6-10.2,10.2-10.2c5.7,0,10.2,4.6,10.2,10.2&#10;&#9;S1296.5,216.6,1290.8,216.6z" style="fill: rgb(35, 31, 32);" transform="matrix(1.0163474052315804, 0, 0, 1.0163474052315804, -530.2222569576494, 251.27928882696716)"/>
<path class="st3" d="M1190.5,229.7c-28.5,0-51.6,23.1-51.6,51.6c0,28.5,23.1,51.6,51.6,51.6c28.5,0,51.6-23.1,51.6-51.6&#10;&#9;C1242.1,252.7,1219,229.7,1190.5,229.7z M1190.5,301.3c-11.1,0-20.1-9-20.1-20.1c0-11.1,9-20.1,20.1-20.1c11.1,0,20.1,9,20.1,20.1&#10;&#9;C1210.7,292.3,1201.7,301.3,1190.5,301.3z" style="fill: rgb(35, 31, 32);" transform="matrix(1.0163474052315804, 0, 0, 1.0163474052315804, -530.2222569576494, 251.27928882696716)"/>
<path class="st0" d="M1125.3,191.1c-5-3.8-9.2-8.7-12.2-14.4l9.5,86.5c1.8-7,4.7-13.6,8.5-19.6L1125.3,191.1z" style="fill: rgb(255, 255, 255);" transform="matrix(1.0163474052315804, 0, 0, 1.0163474052315804, -530.2222569576494, 251.27928882696716)"/>
<path class="st0" d="M1274.2,178.5c4.6-2.8,10-4.4,15.7-4.5l-106.5-47.8c4.3,4.5,7.6,9.9,9.7,15.9L1274.2,178.5z" style="fill: rgb(255, 255, 255);" transform="matrix(1.0163474052315804, 0, 0, 1.0163474052315804, -530.2222569576494, 251.27928882696716)"/>
<path class="st0" d="M1290.8,238.9c-0.5,0-0.9,0-1.4-0.1l-28.6,39.8c0,0.9,0.1,1.8,0.1,2.7c0,6.6-1,12.9-2.7,19l46.4-64.5&#10;&#9;C1300.5,237.7,1295.8,238.9,1290.8,238.9z" style="fill: rgb(255, 255, 255);" transform="matrix(1.0163474052315804, 0, 0, 1.0163474052315804, -530.2222569576494, 251.27928882696716)"/>

<path d="M 18.559999465942383 6.840000152587891 C 18.559999465942383 7.539999961853027 18.47333335876465 8.16333293914795 18.299999237060547 8.710000038146973 C 18.133333206176758 9.256667137145996 17.90333366394043 9.736666679382324 17.610000610351562 10.149999618530273 C 17.316667556762695 10.569999694824219 16.976667404174805 10.930000305175781 16.59000015258789 11.229999542236328 C 16.209999084472656 11.523333549499512 15.8100004196167 11.766666412353516 15.390000343322754 11.960000038146973 C 14.976666450500488 12.15333366394043 14.556666374206543 12.289999961853027 14.130000114440918 12.369999885559082 C 13.703332901000977 12.456666946411133 13.303333282470703 12.5 12.930000305175781 12.5 L 19.290000915527344 18 L 14.579999923706055 18 L 8.229999542236328 12.5 L 6.039999961853027 12.5 L 6.039999961853027 9.460000038146973 L 12.930000305175781 9.460000038146973 C 13.3100004196167 9.426666259765625 13.65666675567627 9.34666633605957 13.970000267028809 9.220000267028809 C 14.289999961853027 9.08666706085205 14.563333511352539 8.91333293914795 14.789999961853027 8.699999809265137 C 15.023333549499512 8.479999542236328 15.203332901000977 8.213333129882812 15.329999923706055 7.899999618530273 C 15.456666946411133 7.5933332443237305 15.520000457763672 7.239999771118164 15.520000457763672 6.840000152587891 L 15.520000457763672 4.920000076293945 C 15.520000457763672 4.74666690826416 15.49666690826416 4.616666793823242 15.449999809265137 4.529999732971191 C 15.40999984741211 4.436666488647461 15.356666564941406 4.369999885559082 15.289999961853027 4.329999923706055 C 15.223333358764648 4.289999961853027 15.15333366394043 4.263333320617676 15.079999923706055 4.25 C 15 4.243332862854004 14.930000305175781 4.239999771118164 14.869999885559082 4.239999771118164 L 4.820000171661377 4.239999771118164 L 4.820000171661377 18 L 1.7699999809265137 18 L 1.7699999809265137 2.729999542236328 C 1.7699999809265137 2.5166664123535156 1.809999942779541 2.316666603088379 1.8899999856948853 2.130000114440918 C 1.9633333683013916 1.9433326721191406 2.069999933242798 1.7800006866455078 2.2100000381469727 1.6399993896484375 C 2.3433332443237305 1.5 2.506666660308838 1.3899993896484375 2.700000047683716 1.3099994659423828 C 2.886666774749756 1.2366657257080078 3.0866665840148926 1.2000007629394531 3.299999952316284 1.2000007629394531 L 14.869999885559082 1.2000007629394531 C 15.550000190734863 1.2000007629394531 16.123332977294922 1.3199996948242188 16.59000015258789 1.5599994659423828 C 17.06333351135254 1.8066673278808594 17.446666717529297 2.116666793823242 17.739999771118164 2.489999771118164 C 18.03333282470703 2.8633337020874023 18.24333381652832 3.263333320617676 18.3700008392334 3.689999580383301 C 18.496665954589844 4.123332977294922 18.559999465942383 4.526666641235352 18.559999465942383 4.899999618530273 L 18.559999465942383 6.840000152587891 ZM 34.77444839477539 9.529999732971191 C 34.77444839477539 9.949999809265137 34.701114654541016 10.40333366394043 34.554447174072266 10.889999389648438 C 34.40111541748047 11.376667022705078 34.16111373901367 11.829999923706055 33.83444595336914 12.25 C 33.50111389160156 12.670000076293945 33.06444549560547 13.020000457763672 32.52444839477539 13.300000190734863 C 31.991113662719727 13.579999923706055 31.341114044189453 13.719999313354492 30.574447631835938 13.719999313354492 L 25.08444595336914 13.719999313354492 L 25.08444595336914 10.829999923706055 L 30.574447631835938 10.829999923706055 C 30.987781524658203 10.829999923706055 31.307781219482422 10.703332901000977 31.534446716308594 10.449999809265137 C 31.7611141204834 10.196666717529297 31.874446868896484 9.880000114440918 31.874446868896484 9.5 C 31.874446868896484 9.106666564941406 31.747779846191406 8.796667098999023 31.49444580078125 8.569999694824219 C 31.241113662719727 8.34333324432373 30.9344482421875 8.229999542236328 30.574447631835938 8.229999542236328 L 25.08444595336914 8.229999542236328 C 24.671113967895508 8.229999542236328 24.35111427307129 8.356666564941406 24.124446868896484 8.609999656677246 C 23.897781372070312 8.863333702087402 23.784446716308594 9.176666259765625 23.784446716308594 9.550000190734863 L 23.784446716308594 13.800000190734863 C 23.784446716308594 14.206666946411133 23.911113739013672 14.523333549499512 24.164447784423828 14.75 C 24.41777992248535 14.976666450500488 24.73111343383789 15.09000015258789 25.104446411132812 15.09000015258789 L 30.574447631835938 15.09000015258789 L 30.574447631835938 18 L 25.08444595336914 18 C 24.657779693603516 18 24.201114654541016 17.926666259765625 23.714447021484375 17.780000686645508 C 23.227779388427734 17.626667022705078 22.774446487426758 17.386667251586914 22.354446411132812 17.059999465942383 C 21.94111442565918 16.726667404174805 21.591114044189453 16.293333053588867 21.304447174072266 15.760000228881836 C 21.024446487426758 15.220000267028809 20.88444709777832 14.566666603088379 20.88444709777832 13.800000190734863 L 20.88444709777832 9.529999732971191 C 20.88444709777832 9.103333473205566 20.957780838012695 8.646666526794434 21.104446411132812 8.15999984741211 C 21.257780075073242 7.673333168029785 21.501113891601562 7.220000267028809 21.83444595336914 6.800000190734863 C 22.161113739013672 6.386666297912598 22.59444808959961 6.0366668701171875 23.13444709777832 5.75 C 23.66777992248535 5.470000267028809 24.317779541015625 5.329999923706055 25.08444595336914 5.329999923706055 L 30.574447631835938 5.329999923706055 C 31.001113891601562 5.329999923706055 31.457778930664062 5.40333366394043 31.944446563720703 5.550000190734863 C 32.431114196777344 5.703332901000977 32.88444519042969 5.946666717529297 33.304447174072266 6.279999732971191 C 33.71778106689453 6.606666564941406 34.067779541015625 7.039999961853027 34.35444641113281 7.579999923706055 C 34.63444519042969 8.113333702087402 34.77444839477539 8.763333320617676 34.77444839477539 9.529999732971191 ZM 50.78759765625 13.719999313354492 C 50.78759765625 14.24666690826416 50.72093200683594 14.716667175292969 50.58760070800781 15.130000114440918 C 50.45426559448242 15.550000190734863 50.2775993347168 15.920000076293945 50.05760192871094 16.239999771118164 C 49.83760070800781 16.553333282470703 49.584266662597656 16.81999969482422 49.29759979248047 17.040000915527344 C 49.01093292236328 17.266666412353516 48.70759963989258 17.450000762939453 48.38759994506836 17.59000015258789 C 48.07426452636719 17.729999542236328 47.757598876953125 17.83333396911621 47.437599182128906 17.899999618530273 C 47.11759948730469 17.96666717529297 46.81093215942383 18 46.517601013183594 18 L 41.0275993347168 18 L 41.0275993347168 14.949999809265137 L 46.517601013183594 14.949999809265137 C 46.92426681518555 14.949999809265137 47.230934143066406 14.84666633605957 47.437599182128906 14.640000343322754 C 47.63759994506836 14.426666259765625 47.73760223388672 14.119999885559082 47.73760223388672 13.719999313354492 L 47.73760223388672 9.619999885559082 C 47.73760223388672 9.199999809265137 47.6342658996582 8.886666297912598 47.4276008605957 8.680000305175781 C 47.22093200683594 8.479999542236328 46.917598724365234 8.380000114440918 46.517601013183594 8.380000114440918 L 41.04759979248047 8.380000114440918 C 40.6342658996582 8.380000114440918 40.3209342956543 8.483333587646484 40.107601165771484 8.6899995803833 C 39.90093231201172 8.896666526794434 39.79759979248047 9.199999809265137 39.79759979248047 9.600000381469727 L 39.79759979248047 21.959999084472656 L 36.74760055541992 21.959999084472656 L 36.74760055541992 9.600000381469727 C 36.74760055541992 9.073333740234375 36.814266204833984 8.603333473205566 36.947601318359375 8.1899995803833 C 37.0809326171875 7.776666641235352 37.257598876953125 7.413332939147949 37.47760009765625 7.100000381469727 C 37.70426559448242 6.779999732971191 37.960933685302734 6.510000228881836 38.24760055541992 6.289999961853027 C 38.53426742553711 6.063333511352539 38.83760070800781 5.880000114440918 39.15760040283203 5.739999771118164 C 39.47093200683594 5.600000381469727 39.790931701660156 5.49666690826416 40.11759948730469 5.430000305175781 C 40.437599182128906 5.363333702087402 40.74093246459961 5.329999923706055 41.0275993347168 5.329999923706055 L 46.517601013183594 5.329999923706055 C 47.04426574707031 5.329999923706055 47.51426696777344 5.396666526794434 47.9276008605957 5.529999732971191 C 48.34093475341797 5.663332939147949 48.70426559448242 5.840000152587891 49.017601013183594 6.060000419616699 C 49.33760070800781 6.279999732971191 49.607601165771484 6.533333778381348 49.827598571777344 6.819999694824219 C 50.05426788330078 7.106666564941406 50.23760223388672 7.409999847412109 50.377601623535156 7.729999542236328 C 50.517601013183594 8.043333053588867 50.620933532714844 8.359999656677246 50.687599182128906 8.680000305175781 C 50.75426483154297 9 50.78759765625 9.306666374206543 50.78759765625 9.600000381469727 L 50.78759765625 13.719999313354492 ZM 67.23101043701172 16.459999084472656 C 67.23101043701172 16.68000030517578 67.19100952148438 16.883333206176758 67.11100769042969 17.06999969482422 C 67.03768157958984 17.26333236694336 66.93101501464844 17.426666259765625 66.791015625 17.559999465942383 C 66.65767669677734 17.700000762939453 66.4976806640625 17.80666732788086 66.3110122680664 17.8799991607666 C 66.13101196289062 17.959999084472656 65.93434143066406 18 65.72100830078125 18 L 58.83101272583008 18 C 58.457679748535156 18 58.05767822265625 17.956666946411133 57.631011962890625 17.8700008392334 C 57.204345703125 17.78333282470703 56.78434371948242 17.64666748046875 56.371009826660156 17.459999084472656 C 55.957679748535156 17.266666412353516 55.55767822265625 17.023332595825195 55.17101287841797 16.729999542236328 C 54.78434371948242 16.43666648864746 54.44434356689453 16.079999923706055 54.1510124206543 15.65999984741211 C 53.86434555053711 15.24666690826416 53.63434600830078 14.763333320617676 53.46100997924805 14.210000038146973 C 53.28101348876953 13.663333892822266 53.19101333618164 13.046667098999023 53.19101333618164 12.360000610351562 L 53.19101333618164 5.329999923706055 L 56.24101257324219 5.329999923706055 L 56.24101257324219 12.360000610351562 C 56.24101257324219 12.760000228881836 56.30767822265625 13.119999885559082 56.441009521484375 13.440000534057617 C 56.58101272583008 13.753334045410156 56.767677307128906 14.023333549499512 57.00101089477539 14.25 C 57.234344482421875 14.476666450500488 57.51101303100586 14.649999618530273 57.83101272583008 14.770000457763672 C 58.144344329833984 14.890000343322754 58.484344482421875 14.949999809265137 58.85101318359375 14.949999809265137 L 64.18101501464844 14.949999809265137 L 64.18101501464844 5.329999923706055 L 67.23101043701172 5.329999923706055 L 67.23101043701172 16.459999084472656 ZM 84.05499267578125 13.719999313354492 C 84.05499267578125 14.013333320617676 84.02165985107422 14.319999694824219 83.95499420166016 14.640000343322754 C 83.88832092285156 14.960000038146973 83.78498840332031 15.276666641235352 83.64498901367188 15.59000015258789 C 83.50498962402344 15.90999984741211 83.3216552734375 16.213333129882812 83.0949935913086 16.5 C 82.87499237060547 16.786666870117188 82.60498809814453 17.043333053588867 82.28498840332031 17.270000457763672 C 81.9716567993164 17.489999771118164 81.60832214355469 17.66666603088379 81.19499206542969 17.799999237060547 C 80.78166198730469 17.933332443237305 80.31166076660156 18 79.78498840332031 18 L 74.29499053955078 18 C 74.00165557861328 18 73.69499206542969 17.96666717529297 73.37499237060547 17.899999618530273 C 73.05499267578125 17.83333396911621 72.73832702636719 17.729999542236328 72.42498779296875 17.59000015258789 C 72.10498809814453 17.450000762939453 71.8016586303711 17.266666412353516 71.5149917602539 17.040000915527344 C 71.22832489013672 16.81999969482422 70.9716567993164 16.553333282470703 70.74498748779297 16.239999771118164 C 70.52499389648438 15.920000076293945 70.34832763671875 15.550000190734863 70.2149887084961 15.130000114440918 C 70.08165740966797 14.716667175292969 70.0149917602539 14.24666690826416 70.0149917602539 13.719999313354492 L 70.0149917602539 -0.020000457763671875 L 73.06498718261719 -0.020000457763671875 L 73.06498718261719 13.719999313354492 C 73.06498718261719 14.100000381469727 73.18165588378906 14.399999618530273 73.41499328613281 14.619999885559082 C 73.64832305908203 14.84000015258789 73.94165802001953 14.949999809265137 74.29499053955078 14.949999809265137 L 79.78498840332031 14.949999809265137 C 80.17166137695312 14.949999809265137 80.4716567993164 14.836666107177734 80.68498992919922 14.609999656677246 C 80.89832305908203 14.383333206176758 81.00498962402344 14.086666107177734 81.00498962402344 13.719999313354492 L 81.00498962402344 9.600000381469727 C 81.00498962402344 9.213333129882812 80.89165496826172 8.91333293914795 80.66499328613281 8.699999809265137 C 80.43832397460938 8.486666679382324 80.14498901367188 8.380000114440918 79.78498840332031 8.380000114440918 L 74.29499053955078 8.380000114440918 L 74.29499053955078 5.329999923706055 L 79.78498840332031 5.329999923706055 C 80.07832336425781 5.329999923706055 80.38499450683594 5.363333702087402 80.70499420166016 5.430000305175781 C 81.02499389648438 5.49666690826416 81.34165954589844 5.600000381469727 81.65499114990234 5.739999771118164 C 81.97499084472656 5.880000114440918 82.2783203125 6.063333511352539 82.56498718261719 6.289999961853027 C 82.85165405273438 6.510000228881836 83.10498809814453 6.779999732971191 83.32498931884766 7.100000381469727 C 83.54499053955078 7.413332939147949 83.7216567993164 7.776666641235352 83.85498809814453 8.1899995803833 C 83.98832702636719 8.603333473205566 84.05499267578125 9.073333740234375 84.05499267578125 9.600000381469727 L 84.05499267578125 13.719999313354492 ZM 92.2184066772461 18 L 90.85840606689453 18 C 90.41840362548828 18 89.95173645019531 17.926666259765625 89.45840454101562 17.780000686645508 C 88.95840454101562 17.626667022705078 88.49507141113281 17.3799991607666 88.06840515136719 17.040000915527344 C 87.63507080078125 16.706666946411133 87.27840423583984 16.266666412353516 86.99840545654297 15.720000267028809 C 86.7184066772461 15.180000305175781 86.57840728759766 14.513333320617676 86.57840728759766 13.719999313354492 L 86.57840728759766 -0.020000457763671875 L 89.62840270996094 -0.020000457763671875 L 89.62840270996094 13.719999313354492 C 89.62840270996094 14.100000381469727 89.74507141113281 14.399999618530273 89.97840881347656 14.619999885559082 C 90.21173858642578 14.84000015258789 90.50507354736328 14.949999809265137 90.85840606689453 14.949999809265137 L 92.2184066772461 14.949999809265137 L 92.2184066772461 18 ZM 97.25870513916016 2.729999542236328 L 94.21871185302734 2.729999542236328 L 94.21871185302734 -0.020000457763671875 L 97.25870513916016 -0.020000457763671875 L 97.25870513916016 2.729999542236328 M 97.25870513916016 18 L 94.21871185302734 18 L 94.21871185302734 5.329999923706055 L 97.25870513916016 5.329999923706055 L 97.25870513916016 18 ZM 112.44791412353516 18 L 104.18791961669922 18 C 103.7612533569336 18 103.29792022705078 17.926666259765625 102.79792022705078 17.780000686645508 C 102.29792022705078 17.626667022705078 101.8379135131836 17.3799991607666 101.41791534423828 17.040000915527344 C 100.99124908447266 16.706666946411133 100.63458251953125 16.266666412353516 100.34791564941406 15.720000267028809 C 100.06124877929688 15.180000305175781 99.91791534423828 14.513333320617676 99.91791534423828 13.719999313354492 L 99.91791534423828 9.600000381469727 C 99.91791534423828 9.306666374206543 99.95124816894531 9 100.01791381835938 8.680000305175781 C 100.08458709716797 8.359999656677246 100.18791961669922 8.043333053588867 100.32791900634766 7.729999542236328 C 100.4679183959961 7.409999847412109 100.65125274658203 7.106666564941406 100.87791442871094 6.819999694824219 C 101.09791564941406 6.533333778381348 101.367919921875 6.279999732971191 101.68791961669922 6.060000419616699 C 102.00125122070312 5.840000152587891 102.36458587646484 5.663332939147949 102.77791595458984 5.529999732971191 C 103.19125366210938 5.396666526794434 103.66124725341797 5.329999923706055 104.18791961669922 5.329999923706055 L 112.44791412353516 5.329999923706055 L 112.44791412353516 8.380000114440918 L 104.18791961669922 8.380000114440918 C 103.78791809082031 8.380000114440918 103.48458099365234 8.479999542236328 103.27791595458984 8.680000305175781 C 103.07125091552734 8.886666297912598 102.9679183959961 9.199999809265137 102.9679183959961 9.619999885559082 L 102.9679183959961 13.719999313354492 C 102.9679183959961 14.119999885559082 103.0745849609375 14.426666259765625 103.28791809082031 14.640000343322754 C 103.49458312988281 14.84666633605957 103.80125427246094 14.949999809265137 104.20791625976562 14.949999809265137 L 112.44791412353516 14.949999809265137 L 112.44791412353516 18 Z" transform="matrix(-0.16217823326587677, -1.25254487991333, 1.25254487991333, -0.16217823326587677, 582.8382568359375, 553.5474243164062)" style="fill: rgb(50, 50, 50);"/><path d="M 16.81999969482422 18 L 5.820000171661377 18 C 5.539999961853027 18 5.239999771118164 17.96666717529297 4.920000076293945 17.899999618530273 C 4.5933332443237305 17.83333396911621 4.273333549499512 17.729999542236328 3.9600000381469727 17.59000015258789 C 3.640000104904175 17.450000762939453 3.3366665840148926 17.266666412353516 3.049999952316284 17.040000915527344 C 2.756666660308838 16.81999969482422 2.5 16.553333282470703 2.2799999713897705 16.239999771118164 C 2.059999942779541 15.920000076293945 1.8833333253860474 15.550000190734863 1.75 15.130000114440918 C 1.6166666746139526 14.716667175292969 1.5499999523162842 14.24666690826416 1.5499999523162842 13.719999313354492 L 1.5499999523162842 5.470000267028809 C 1.5499999523162842 5.189999580383301 1.5833333730697632 4.886666297912598 1.649999976158142 4.560000419616699 C 1.7166666984558105 4.239999771118164 1.8200000524520874 3.9200000762939453 1.9600000381469727 3.6000003814697266 C 2.0999999046325684 3.2866668701171875 2.2833333015441895 2.986666679382324 2.509999990463257 2.6999998092651367 C 2.736666679382324 2.4066667556762695 3.006666660308838 2.1499996185302734 3.319999933242798 1.9300003051757812 C 3.640000104904175 1.7033329010009766 4.006666660308838 1.5233325958251953 4.420000076293945 1.3899993896484375 C 4.833333492279053 1.2633342742919922 5.300000190734863 1.2000007629394531 5.820000171661377 1.2000007629394531 L 16.81999969482422 1.2000007629394531 L 16.81999969482422 4.239999771118164 L 5.820000171661377 4.239999771118164 C 5.426666736602783 4.239999771118164 5.12333345413208 4.34666633605957 4.909999847412109 4.560000419616699 C 4.696666717529297 4.766666412353516 4.590000152587891 5.079999923706055 4.590000152587891 5.5 L 4.590000152587891 13.719999313354492 C 4.590000152587891 14.113332748413086 4.699999809265137 14.416666984558105 4.920000076293945 14.630000114440918 C 5.133333206176758 14.84333324432373 5.433333396911621 14.949999809265137 5.820000171661377 14.949999809265137 L 16.81999969482422 14.949999809265137 L 16.81999969482422 18 ZM 32.3619384765625 13.800000190734863 C 32.3619384765625 14.226666450500488 32.288604736328125 14.683333396911621 32.14194107055664 15.170000076293945 C 31.988605499267578 15.65666675567627 31.74527359008789 16.110000610351562 31.411941528320312 16.530000686645508 C 31.08527374267578 16.950000762939453 30.651939392089844 17.299999237060547 30.111940383911133 17.579999923706055 C 29.57860565185547 17.860000610351562 28.928607940673828 18 28.161941528320312 18 L 22.671939849853516 18 C 22.24527359008789 18 21.788606643676758 17.926666259765625 21.30194091796875 17.780000686645508 C 20.81527328491211 17.626667022705078 20.361940383911133 17.386667251586914 19.941940307617188 17.059999465942383 C 19.521940231323242 16.726667404174805 19.171939849853516 16.293333053588867 18.89194107055664 15.760000228881836 C 18.611940383911133 15.220000267028809 18.471940994262695 14.566666603088379 18.471940994262695 13.800000190734863 C 18.471940994262695 13.380000114440918 18.545272827148438 12.923333168029785 18.691940307617188 12.430000305175781 C 18.845273971557617 11.94333267211914 19.08527374267578 11.489999771118164 19.41193962097168 11.069999694824219 C 19.74527359008789 10.649999618530273 20.18194007873535 10.300000190734863 20.721939086914062 10.020000457763672 C 21.255273818969727 9.739999771118164 21.9052734375 9.600000381469727 22.671939849853516 9.600000381469727 L 28.161941528320312 9.600000381469727 L 28.161941528320312 12.5 L 22.671939849853516 12.5 C 22.25860595703125 12.5 21.93860626220703 12.626667022705078 21.71194076538086 12.880000114440918 C 21.485273361206055 13.139999389648438 21.37194061279297 13.456666946411133 21.37194061279297 13.829999923706055 C 21.37194061279297 14.229999542236328 21.50193977355957 14.539999961853027 21.761940002441406 14.760000228881836 C 22.021940231323242 14.979999542236328 22.331939697265625 15.09000015258789 22.691940307617188 15.09000015258789 L 28.161941528320312 15.09000015258789 C 28.575273513793945 15.09000015258789 28.895273208618164 14.966667175292969 29.12194061279297 14.720000267028809 C 29.34860610961914 14.466667175292969 29.46194076538086 14.15333366394043 29.46194076538086 13.780000686645508 L 29.46194076538086 9.529999732971191 C 29.46194076538086 9.130000114440918 29.338607788085938 8.813333511352539 29.09193992614746 8.579999923706055 C 28.851940155029297 8.34666633605957 28.54193878173828 8.229999542236328 28.161941528320312 8.229999542236328 L 21.471939086914062 8.229999542236328 L 21.471939086914062 5.329999923706055 L 28.161941528320312 5.329999923706055 C 28.588607788085938 5.329999923706055 29.045272827148438 5.40333366394043 29.531940460205078 5.550000190734863 C 30.01860809326172 5.703332901000977 30.471939086914062 5.946666717529297 30.89194107055664 6.279999732971191 C 31.305273056030273 6.606666564941406 31.6552734375 7.039999961853027 31.941940307617188 7.579999923706055 C 32.22193908691406 8.113333702087402 32.3619384765625 8.763333320617676 32.3619384765625 9.529999732971191 L 32.3619384765625 13.800000190734863 ZM 46.04509353637695 8.380000114440918 L 39.18509292602539 8.380000114440918 C 38.771759033203125 8.380000114440918 38.45842742919922 8.483333587646484 38.245094299316406 8.6899995803833 C 38.03842544555664 8.896666526794434 37.93509292602539 9.199999809265137 37.93509292602539 9.600000381469727 L 37.93509292602539 18 L 34.885093688964844 18 L 34.885093688964844 9.600000381469727 C 34.885093688964844 9.073333740234375 34.951759338378906 8.603333473205566 35.0850944519043 8.1899995803833 C 35.21842575073242 7.776666641235352 35.39509201049805 7.413332939147949 35.61509323120117 7.100000381469727 C 35.841758728027344 6.779999732971191 36.098426818847656 6.510000228881836 36.385093688964844 6.289999961853027 C 36.67176055908203 6.063333511352539 36.975093841552734 5.880000114440918 37.29509353637695 5.739999771118164 C 37.60842514038086 5.600000381469727 37.92842483520508 5.49666690826416 38.25509262084961 5.430000305175781 C 38.57509231567383 5.363333702087402 38.87842559814453 5.329999923706055 39.16509246826172 5.329999923706055 L 46.04509353637695 5.329999923706055 L 46.04509353637695 8.380000114440918 Z" transform="matrix(1.1474746465682983, 0.5277052521705627, -0.5277052521705627, 1.1474746465682983, 710.4334716796875, 360.8758239746094)" style="fill: rgb(50, 50, 50); white-space: pre;"/><path d="M 16.81999969482422 18 L 5.820000171661377 18 C 5.539999961853027 18 5.239999771118164 17.96666717529297 4.920000076293945 17.899999618530273 C 4.5933332443237305 17.83333396911621 4.273333549499512 17.729999542236328 3.9600000381469727 17.59000015258789 C 3.640000104904175 17.450000762939453 3.3366665840148926 17.266666412353516 3.049999952316284 17.040000915527344 C 2.756666660308838 16.81999969482422 2.5 16.553333282470703 2.2799999713897705 16.239999771118164 C 2.059999942779541 15.920000076293945 1.8833333253860474 15.550000190734863 1.75 15.130000114440918 C 1.6166666746139526 14.716667175292969 1.5499999523162842 14.24666690826416 1.5499999523162842 13.719999313354492 L 1.5499999523162842 5.470000267028809 C 1.5499999523162842 5.189999580383301 1.5833333730697632 4.886666297912598 1.649999976158142 4.560000419616699 C 1.7166666984558105 4.239999771118164 1.8200000524520874 3.9200000762939453 1.9600000381469727 3.6000003814697266 C 2.0999999046325684 3.2866668701171875 2.2833333015441895 2.986666679382324 2.509999990463257 2.6999998092651367 C 2.736666679382324 2.4066667556762695 3.006666660308838 2.1499996185302734 3.319999933242798 1.9300003051757812 C 3.640000104904175 1.7033329010009766 4.006666660308838 1.5233325958251953 4.420000076293945 1.3899993896484375 C 4.833333492279053 1.2633342742919922 5.300000190734863 1.2000007629394531 5.820000171661377 1.2000007629394531 L 16.81999969482422 1.2000007629394531 L 16.81999969482422 4.239999771118164 L 5.820000171661377 4.239999771118164 C 5.426666736602783 4.239999771118164 5.12333345413208 4.34666633605957 4.909999847412109 4.560000419616699 C 4.696666717529297 4.766666412353516 4.590000152587891 5.079999923706055 4.590000152587891 5.5 L 4.590000152587891 13.719999313354492 C 4.590000152587891 14.113332748413086 4.699999809265137 14.416666984558105 4.920000076293945 14.630000114440918 C 5.133333206176758 14.84333324432373 5.433333396911621 14.949999809265137 5.820000171661377 14.949999809265137 L 16.81999969482422 14.949999809265137 L 16.81999969482422 18 ZM 24.9296817779541 18 L 23.56968116760254 18 C 23.129680633544922 18 22.663015365600586 17.926666259765625 22.169681549072266 17.780000686645508 C 21.669681549072266 17.626667022705078 21.206348419189453 17.3799991607666 20.779682159423828 17.040000915527344 C 20.34634780883789 16.706666946411133 19.989681243896484 16.266666412353516 19.70968246459961 15.720000267028809 C 19.4296817779541 15.180000305175781 19.289682388305664 14.513333320617676 19.289682388305664 13.719999313354492 L 19.289682388305664 -0.020000457763671875 L 22.33968162536621 -0.020000457763671875 L 22.33968162536621 13.719999313354492 C 22.33968162536621 14.100000381469727 22.456348419189453 14.399999618530273 22.689682006835938 14.619999885559082 C 22.923015594482422 14.84000015258789 23.21634864807129 14.949999809265137 23.56968116760254 14.949999809265137 L 24.9296817779541 14.949999809265137 L 24.9296817779541 18 ZM 40.545616149902344 16.459999084472656 C 40.545616149902344 16.68000030517578 40.505615234375 16.883333206176758 40.42561721801758 17.06999969482422 C 40.3522834777832 17.26333236694336 40.2456169128418 17.426666259765625 40.10561752319336 17.559999465942383 C 39.97228240966797 17.700000762939453 39.812286376953125 17.80666732788086 39.62561798095703 17.8799991607666 C 39.44561767578125 17.959999084472656 39.24895095825195 18 39.03561782836914 18 L 32.1456184387207 18 C 31.77228355407715 18 31.372283935546875 17.956666946411133 30.94561767578125 17.8700008392334 C 30.518951416015625 17.78333282470703 30.09895133972168 17.64666748046875 29.685617446899414 17.459999084472656 C 29.27228355407715 17.266666412353516 28.872283935546875 17.023332595825195 28.48561668395996 16.729999542236328 C 28.09895133972168 16.43666648864746 27.75895118713379 16.079999923706055 27.465618133544922 15.65999984741211 C 27.178951263427734 15.24666690826416 26.948949813842773 14.763333320617676 26.775617599487305 14.210000038146973 C 26.595617294311523 13.663333892822266 26.505617141723633 13.046667098999023 26.505617141723633 12.360000610351562 L 26.505617141723633 5.329999923706055 L 29.555618286132812 5.329999923706055 L 29.555618286132812 12.360000610351562 C 29.555618286132812 12.760000228881836 29.622283935546875 13.119999885559082 29.755617141723633 13.440000534057617 C 29.895618438720703 13.753334045410156 30.08228302001953 14.023333549499512 30.315616607666016 14.25 C 30.5489501953125 14.476666450500488 30.82561683654785 14.649999618530273 31.145618438720703 14.770000457763672 C 31.45895004272461 14.890000343322754 31.7989501953125 14.949999809265137 32.165618896484375 14.949999809265137 L 37.4956169128418 14.949999809265137 L 37.4956169128418 5.329999923706055 L 40.545616149902344 5.329999923706055 L 40.545616149902344 16.459999084472656 ZM 57.376548767089844 13.719999313354492 C 57.376548767089844 14.013333320617676 57.34321594238281 14.319999694824219 57.276546478271484 14.640000343322754 C 57.20988082885742 14.960000038146973 57.10654830932617 15.276666641235352 56.96654510498047 15.59000015258789 C 56.82654571533203 15.90999984741211 56.64321517944336 16.213333129882812 56.41654586791992 16.5 C 56.19654846191406 16.786666870117188 55.92654800415039 17.043333053588867 55.60654830932617 17.270000457763672 C 55.293212890625 17.489999771118164 54.92987823486328 17.66666603088379 54.51654815673828 17.799999237060547 C 54.103214263916016 17.933332443237305 53.63321304321289 18 53.10654830932617 18 L 47.616546630859375 18 C 47.32321548461914 18 47.01654815673828 17.96666717529297 46.69654846191406 17.899999618530273 C 46.376548767089844 17.83333396911621 46.059879302978516 17.729999542236328 45.74654769897461 17.59000015258789 C 45.42654800415039 17.450000762939453 45.12321472167969 17.266666412353516 44.8365478515625 17.040000915527344 C 44.54988098144531 16.81999969482422 44.293212890625 16.553333282470703 44.06654739379883 16.239999771118164 C 43.8465461730957 15.920000076293945 43.66987991333008 15.550000190734863 43.53654861450195 15.130000114440918 C 43.40321350097656 14.716667175292969 43.3365478515625 14.24666690826416 43.3365478515625 13.719999313354492 L 43.3365478515625 -0.020000457763671875 L 46.38654708862305 -0.020000457763671875 L 46.38654708862305 13.719999313354492 C 46.38654708862305 14.100000381469727 46.503211975097656 14.399999618530273 46.736549377441406 14.619999885559082 C 46.969879150390625 14.84000015258789 47.263214111328125 14.949999809265137 47.616546630859375 14.949999809265137 L 53.10654830932617 14.949999809265137 C 53.49321365356445 14.949999809265137 53.793212890625 14.836666107177734 54.00654602050781 14.609999656677246 C 54.219879150390625 14.383333206176758 54.32654571533203 14.086666107177734 54.32654571533203 13.719999313354492 L 54.32654571533203 9.600000381469727 C 54.32654571533203 9.213333129882812 54.21321487426758 8.91333293914795 53.986549377441406 8.699999809265137 C 53.75988006591797 8.486666679382324 53.46654510498047 8.380000114440918 53.10654830932617 8.380000114440918 L 47.616546630859375 8.380000114440918 L 47.616546630859375 5.329999923706055 L 53.10654830932617 5.329999923706055 C 53.399879455566406 5.329999923706055 53.706546783447266 5.363333702087402 54.026546478271484 5.430000305175781 C 54.3465461730957 5.49666690826416 54.66321563720703 5.600000381469727 54.97654724121094 5.739999771118164 C 55.296546936035156 5.880000114440918 55.59988021850586 6.063333511352539 55.88654708862305 6.289999961853027 C 56.173213958740234 6.510000228881836 56.42654800415039 6.779999732971191 56.64654541015625 7.100000381469727 C 56.866546630859375 7.413332939147949 57.043212890625 7.776666641235352 57.17654800415039 8.1899995803833 C 57.309879302978516 8.603333473205566 57.376548767089844 9.073333740234375 57.376548767089844 9.600000381469727 L 57.376548767089844 13.719999313354492 Z" transform="matrix(-0.7218995094299316, 1.0363565683364868, -1.0363565683364868, -0.7218995094299316, 816.7857055664062, 513.6921997070312)" style="fill: rgb(50, 50, 50); white-space: pre;"/></svg>