<?xml version="1.0" encoding="utf-8"?>
<svg id="master-artboard" viewBox="0 0 1096 780" version="1.1" xmlns="http://www.w3.org/2000/svg" x="0px" y="0px" style="enable-background:new 0 0 1096 780;" width="1096px" height="780px"><defs><style id="ee-google-fonts">@import url(https://fonts.googleapis.com/css?family=Aldrich:400);</style></defs>

<g transform="matrix(0.9999999999999999, 0, 0, 0.9999999999999999, 0, -7.105427357601002e-15)">
		<path class="st0" d="M869.4,293l9.7-9.7c0.7-0.7,0.7-1.9,0-2.6c-8.9-8.9,1.9-22.9,8.4-29.5l42.2-42.2c3.2-3.2,3.2-8.3,0-11.5&#10;&#9;&#9;&#9;c-3.2-3.2-8.3-3.2-11.5,0l-42.2,42.2c-6.5,6.5-20.6,17.3-29.5,8.4c-0.7-0.7-1.9-0.7-2.6,0l-9.7,9.7l1.8,1.8l-0.6,0.6l-1.8-1.8&#10;&#9;&#9;&#9;l-9.6,9.6c-0.7,0.7-0.7,1.9,0,2.6l3.9,3.9c-0.7,6.5,1.4,13.3,6.4,18.3c5,5,11.8,7.1,18.3,6.4l3.9,3.9c0.7,0.7,1.9,0.7,2.6,0&#10;&#9;&#9;&#9;l9.6-9.6l-1.8-1.8l0.6-0.6L869.4,293z M843.6,283.7c-4.4-4.4-4.4-11.5,0-15.8c4.4-4.4,11.5-4.4,15.8,0c4.4,4.4,4.4,11.5,0,15.8&#10;&#9;&#9;&#9;C855,288.1,847.9,288.1,843.6,283.7z" style="fill: rgb(7, 7, 55);"/>
		<path class="st1" d="M973.5,192.7l-38.9-38.9c-0.5-0.5-1.3-0.5-1.8,0l-3.6,3.6c-0.5,0.5-0.5,1.3,0,1.8l38.9,38.9&#10;&#9;&#9;&#9;c0.5,0.5,1.3,0.5,1.8,0l3.6-3.6C974,194,974,193.2,973.5,192.7z M960.9,205.3l-38.9-38.9c-0.5-0.5-1.3-0.5-1.8,0l-25.3,25.3&#10;&#9;&#9;&#9;c-0.5,0.5-0.5,1.3,0,1.8l38.9,38.9c0.5,0.5,1.3,0.5,1.8,0l25.3-25.3C961.4,206.7,961.4,205.8,960.9,205.3z M966.3,199.9L927.4,161&#10;&#9;&#9;&#9;c-0.5-0.5-1.3-0.5-1.8,0l-1.8,1.8c-0.5,0.5-0.5,1.3,0,1.8l38.9,38.9c0.5,0.5,1.3,0.5,1.8,0l1.8-1.8&#10;&#9;&#9;&#9;C966.8,201.2,966.8,200.4,966.3,199.9z" style="fill: rgb(7, 7, 55);"/>
		<path d="M 931.5 203.300003 A 7.5 7.5 0 0 1 924 210.800003 A 7.5 7.5 0 0 1 916.5 203.300003 A 7.5 7.5 0 0 1 924 195.800003 A 7.5 7.5 0 0 1 931.5 203.300003 Z" class="st2" style="fill: rgb(7, 7, 55);"/>
	</g><path id="SVGID_x5F_1_x5F_" class="st3" d="M802.1,223.7c0-52.1,42.2-94.3,94.3-94.3c52.1,0,94.3,42.2,94.3,94.3" style="fill: none;" transform="matrix(0.9999999999999999, 0, 0, 0.9999999999999999, 0, -7.105427357601002e-15)"/><path d="M 787.491943359375 216.1566162109375 L 802.2572631835938 217.5399932861328 L 801.9447631835938 220.87538146972656 L 783.8241577148438 219.1776580810547 L 784.1366577148438 215.84225463867188 L 787.3326416015625 216.14169311523438 C 786.8970336914062 216.0740966796875 786.4918212890625 215.93235778808594 786.1170043945312 215.71644592285156 C 785.7421875 215.5005340576172 785.4230346679688 215.2262420654297 785.1596069335938 214.8935546875 C 784.8955078125 214.56748962402344 784.7025146484375 214.1978759765625 784.5805053710938 213.78469848632812 C 784.451904296875 213.3708953857422 784.40869140625 212.9383087158203 784.4509887695312 212.48695373535156 L 784.7839965820312 208.93252563476562 C 784.8275146484375 208.4678955078125 784.95458984375 208.0412139892578 785.1651000976562 207.65248107910156 C 785.381591796875 207.27102661132812 785.65380859375 206.93829345703125 785.9817504882812 206.65431213378906 C 786.3090209960938 206.37696838378906 786.6865234375 206.17127990722656 787.1142578125 206.03726196289062 C 787.5425415039062 205.8966064453125 787.9890747070312 205.84803771972656 788.4536743164062 205.89157104492188 L 791.5103149414062 206.17794799804688 L 791.1959228515625 209.53326416015625 L 788.1393432617188 209.24688720703125 L 787.491943359375 216.1566162109375 ZM 801.5265502929688 186.23294067382812 L 797.96484375 197.74452209472656 L 801.795654296875 198.92979431152344 L 805.3573608398438 187.41819763183594 L 808.5767822265625 188.414306640625 L 805.0150756835938 199.92588806152344 C 804.8810424804688 200.3589630126953 804.670166015625 200.74732971191406 804.3824462890625 201.09095764160156 C 804.0902709960938 201.42625427246094 803.7565307617188 201.69285583496094 803.3812866210938 201.89077758789062 C 802.9976806640625 202.0930938720703 802.5859985351562 202.21694946289062 802.1463012695312 202.26234436035156 C 801.6982421875 202.31211853027344 801.2512817382812 202.26805114746094 800.8054809570312 202.13011169433594 L 789.8574829101562 198.7427978515625 C 789.4116821289062 198.6048583984375 789.0179443359375 198.38882446289062 788.67626953125 198.09469604492188 C 788.3326416015625 197.8069305419922 788.0628662109375 197.4722442626953 787.866943359375 197.09060668945312 C 787.6690063476562 196.71533203125 787.5441284179688 196.3068389892578 787.4923706054688 195.86514282226562 C 787.448974609375 195.41905212402344 787.4942626953125 194.97946166992188 787.6282348632812 194.54638671875 L 790.19384765625 186.25421142578125 C 790.331787109375 185.8083953857422 790.544677734375 185.41368103027344 790.8323974609375 185.07003784179688 C 791.1265258789062 184.72837829589844 791.4612426757812 184.45858764648438 791.8365478515625 184.2606658935547 C 792.2117919921875 184.062744140625 792.6234741210938 183.9388885498047 793.071533203125 183.88909912109375 C 793.5176391601562 183.84568786621094 793.9635620117188 183.8929443359375 794.409423828125 184.0308837890625 L 801.5265502929688 186.23294067382812 M 790.8477172851562 195.54248046875 L 794.745361328125 196.74842834472656 L 797.3109741210938 188.45626831054688 L 793.413330078125 187.25030517578125 L 790.8477172851562 195.54248046875 ZM 816.0195922851562 167.6049041748047 C 816.4227294921875 167.83993530273438 816.7592163085938 168.13641357421875 817.0289916992188 168.49432373046875 C 817.2896728515625 168.85464477539062 817.4769287109375 169.2416229248047 817.5907592773438 169.65524291992188 C 817.6988525390625 170.0655059814453 817.7265625 170.4945068359375 817.6738891601562 170.94224548339844 C 817.6187744140625 171.38087463378906 817.4720458984375 171.8046417236328 817.2337036132812 172.21356201171875 L 812.509521484375 180.31704711914062 L 818.8592529296875 184.01882934570312 L 817.1720581054688 186.91293334960938 L 795.09912109375 174.04486083984375 L 796.7863159179688 171.1507568359375 L 799.4471435546875 172.7019805908203 C 799.089599609375 172.45492553710938 798.7982177734375 172.1538848876953 798.5730590820312 171.798828125 C 798.3536987304688 171.4471435546875 798.1985473632812 171.07119750976562 798.1077880859375 170.67100524902344 C 798.0136108398438 170.2765655517578 797.9964599609375 169.86915588378906 798.0563354492188 169.4487762451172 C 798.1162109375 169.02838134765625 798.2586059570312 168.625244140625 798.4835815429688 168.23936462402344 L 801.510498046875 163.04725646972656 C 801.7489013671875 162.63833618164062 802.0453491210938 162.30186462402344 802.39990234375 162.037841796875 C 802.7636108398438 161.7714080810547 803.1505737304688 161.5841522216797 803.5608520507812 161.47607421875 C 803.9710693359375 161.3679962158203 804.4000854492188 161.3402862548828 804.8478393554688 161.39295959472656 C 805.292236328125 161.45138549804688 805.7160034179688 161.59811401367188 806.119140625 161.83314514160156 L 816.0195922851562 167.6049041748047 M 814.3223266601562 170.5162811279297 L 804.421875 164.74453735351562 L 799.6976928710938 172.8480224609375 L 809.59814453125 178.61978149414062 L 814.3223266601562 170.5162811279297 ZM 809.1156616210938 152.25 L 811.4175415039062 149.8160858154297 L 822.192138671875 160.0061492919922 L 828.6373291015625 153.1912078857422 L 817.8627319335938 143.0011444091797 L 820.1783447265625 140.55271911621094 L 833.4013671875 153.05838012695312 L 831.0857543945312 155.50682067871094 L 828.8480224609375 153.39047241210938 C 829.1351318359375 153.70787048339844 829.3478393554688 154.06504821777344 829.4862670898438 154.46205139160156 C 829.6246337890625 154.85903930664062 829.6925048828125 155.26271057128906 829.6898193359375 155.67306518554688 C 829.6870727539062 156.0834197998047 829.6110229492188 156.48403930664062 829.4615478515625 156.87490844726562 C 829.3075561523438 157.27061462402344 829.083984375 157.62347412109375 828.790771484375 157.93345642089844 L 824.6405639648438 162.32176208496094 C 824.3290405273438 162.651123046875 823.9683227539062 162.90640258789062 823.5584106445312 163.0876007080078 C 823.148193359375 163.25938415527344 822.7310180664062 163.35118103027344 822.3069458007812 163.36300659179688 C 821.8734130859375 163.37509155273438 821.4493408203125 163.3043975830078 821.0347900390625 163.15089416503906 C 820.61083984375 162.99766540527344 820.2293090820312 162.76071166992188 819.8902587890625 162.4400634765625 L 809.1156616210938 152.25 ZM 849.3285522460938 137.714599609375 C 849.5858154296875 138.1039581298828 849.7560424804688 138.5188446044922 849.8392944335938 138.95925903320312 C 849.9132690429688 139.3977813720703 849.9096069335938 139.82766723632812 849.828369140625 140.2489013671875 C 849.7434692382812 140.66458129882812 849.578125 141.06143188476562 849.33251953125 141.439453125 C 849.0887451171875 141.80825805664062 848.7694091796875 142.12310791015625 848.37451171875 142.38401794433594 L 840.5482788085938 147.55462646484375 C 840.1700439453125 147.8045196533203 839.7607421875 147.97108459472656 839.3203125 148.05430603027344 C 838.8817749023438 148.1282958984375 838.4547119140625 148.12281799316406 838.0390014648438 148.0378875732422 C 837.6141357421875 147.95106506347656 837.21728515625 147.78578186035156 836.8484497070312 147.54202270507812 C 836.470458984375 147.29637145996094 836.15283203125 146.9788818359375 835.8955688476562 146.58950805664062 L 823.8565673828125 128.36734008789062 L 826.651611328125 126.52069091796875 L 832.2852783203125 135.04774475097656 C 832.06494140625 134.66592407226562 831.9215087890625 134.26132202148438 831.8548583984375 133.83392333984375 C 831.7882080078125 133.40652465820312 831.802001953125 132.9859161376953 831.8961791992188 132.57212829589844 C 831.9847412109375 132.16201782226562 832.15185546875 131.77996826171875 832.3973999023438 131.4259796142578 C 832.6392822265625 131.06642150878906 832.9492797851562 130.76170349121094 833.3275146484375 130.51181030273438 L 838.3419799804688 127.1988754272461 C 838.7368774414062 126.93795776367188 839.1517944335938 126.7677230834961 839.586669921875 126.68817138671875 C 840.0307006835938 126.61051177978516 840.4606323242188 126.61415100097656 840.8762817382812 126.69908142089844 C 841.2919311523438 126.78401947021484 841.6887817382812 126.94930267333984 842.0668334960938 127.1949462890625 C 842.4393310546875 127.44425964355469 842.754150390625 127.76360321044922 843.0114135742188 128.15296936035156 L 849.3285522460938 137.714599609375 M 832.3734741210938 135.1812286376953 L 838.6906127929688 144.7428741455078 L 846.516845703125 139.572265625 L 840.1996459960938 130.01063537597656 L 832.3734741210938 135.1812286376953 ZM 849.1148681640625 113.89680480957031 L 859.4156494140625 136.90634155273438 L 856.3580322265625 138.275146484375 L 846.0573120117188 115.26560974121094 L 849.1148681640625 113.89680480957031 ZM 862.206298828125 116.47837829589844 L 867.9899291992188 133.73495483398438 L 864.7946166992188 134.80587768554688 L 859.010986328125 117.54930114746094 L 862.206298828125 116.47837829589844 M 856.6221313476562 110.95670318603516 L 860.1398315429688 109.77772521972656 L 861.2552490234375 113.10578155517578 L 857.737548828125 114.28475189208984 L 856.6221313476562 110.95670318603516 ZM 874.403564453125 116.7000961303711 L 876.2490844726562 128.01052856445312 L 884.8157958984375 126.61271667480469 L 884.3214111328125 123.5827865600586 L 887.6473999023438 123.04008483886719 L 888.1417846679688 126.07001495361328 C 888.2169799804688 126.53059387207031 888.2022705078125 126.97880554199219 888.0977783203125 127.41465759277344 C 887.985595703125 127.84500885009766 887.80615234375 128.2356719970703 887.5594482421875 128.58663940429688 C 887.3117065429688 128.9310302734375 886.9983520507812 129.225341796875 886.619384765625 129.4695587158203 C 886.2393798828125 129.70718383789062 885.819091796875 129.86358642578125 885.3584594726562 129.93873596191406 L 876.791748046875 131.33653259277344 C 876.3443603515625 131.4095458984375 875.9027099609375 131.39378356933594 875.4668579101562 131.28927612304688 C 875.0364990234375 131.1771240234375 874.649169921875 130.9971466064453 874.3047485351562 130.74937438964844 C 873.9526977539062 130.49609375 873.6583862304688 130.1827392578125 873.421875 129.80929565429688 C 873.1776123046875 129.4303436279297 873.0179443359375 129.0105743408203 872.9428100585938 128.5500030517578 L 871.0972900390625 117.23957061767578 C 871.0221557617188 116.77899169921875 871.0401000976562 116.33024597167969 871.1512451171875 115.89331817626953 C 871.2557373046875 115.45746612548828 871.4351806640625 115.06681060791016 871.6895141601562 114.7213363647461 C 871.937255859375 114.37693786621094 872.2473754882812 114.08317565917969 872.6197509765625 113.84003448486328 C 872.999755859375 113.60240173339844 873.4134521484375 113.44708251953125 873.8609008789062 113.37407684326172 L 882.4276123046875 111.97627258300781 C 882.88818359375 111.901123046875 883.3363647460938 111.91580200195312 883.772216796875 112.02030944824219 C 884.2091674804688 112.13140106201172 884.599853515625 112.31082916259766 884.9442138671875 112.55860137939453 C 885.2886352539062 112.8063735961914 885.5829467773438 113.11973571777344 885.8271484375 113.49868774414062 C 886.0647583007812 113.87871551513672 886.22119140625 114.29901123046875 886.2963256835938 114.75959014892578 L 886.7907104492188 117.78952026367188 L 883.4646606445312 118.33222198486328 L 882.9702758789062 115.30228424072266 L 874.403564453125 116.7000961303711 ZM 910.7014770507812 115.41200256347656 L 908.7628784179688 126.70684814453125 L 917.3178100585938 128.17514038085938 L 917.837158203125 125.14938354492188 L 921.1585693359375 125.71944427490234 L 920.6392822265625 128.74520874023438 C 920.560302734375 129.20513916015625 920.4004516601562 129.6241455078125 920.1597290039062 130.002197265625 C 919.9135131835938 130.37255859375 919.6166381835938 130.68348693847656 919.2691040039062 130.9349822998047 C 918.9226684570312 131.17991638183594 918.530517578125 131.3561248779297 918.0927124023438 131.46360778808594 C 917.656005859375 131.5645294189453 917.2077026367188 131.5755157470703 916.7477416992188 131.49658203125 L 908.19287109375 130.02828979492188 C 907.7460327148438 129.95159912109375 907.3336181640625 129.79287719726562 906.95556640625 129.5521240234375 C 906.585205078125 129.30592346191406 906.2775268554688 129.00961303710938 906.0326538085938 128.66319274902344 C 905.7822265625 128.30906677246094 905.6060180664062 127.91694641113281 905.5040283203125 127.48681640625 C 905.396484375 127.04899597167969 905.3822631835938 126.60011291503906 905.461181640625 126.14016723632812 L 907.3997192382812 114.84532165527344 C 907.4786987304688 114.3853759765625 907.6417846679688 113.9669418334961 907.88916015625 113.59001159667969 C 908.1298828125 113.21195983886719 908.4267578125 112.90103149414062 908.7797241210938 112.6572265625 C 909.1261596679688 112.41230010986328 909.5150146484375 112.23552703857422 909.9462890625 112.12691497802734 C 910.3829956054688 112.02599334716797 910.82470703125 112.01387786865234 911.2715454101562 112.09056091308594 L 919.826416015625 113.55885314941406 C 920.286376953125 113.6377944946289 920.7053833007812 113.79764556884766 921.0834350585938 114.03839874267578 C 921.4603271484375 114.28572082519531 921.7713012695312 114.58259582519531 922.0162353515625 114.92902374267578 C 922.2611694335938 115.27544403076172 922.4373779296875 115.66757202148438 922.5448608398438 116.10539245605469 C 922.645751953125 116.5420913696289 922.65673828125 116.99040985107422 922.5778198242188 117.45035552978516 L 922.0584716796875 120.47611236572266 L 918.737060546875 119.90605163574219 L 919.25634765625 116.88028717041016 L 910.7014770507812 115.41200256347656 ZM 928.544189453125 126.29588317871094 C 928.723388671875 125.86498260498047 928.9728393554688 125.49942016601562 929.2926025390625 125.19918823242188 C 929.6088256835938 124.8902359008789 929.9673461914062 124.6530532836914 930.3682250976562 124.48763275146484 C 930.7630004882812 124.31965637207031 931.1826782226562 124.23062896728516 931.6273193359375 124.22056579589844 C 932.0755004882812 124.2192153930664 932.5089111328125 124.3055648803711 932.927490234375 124.4796142578125 L 940.9421997070312 127.81224822998047 L 942.293701171875 124.5620346069336 L 932.1552734375 120.34632873535156 L 933.4491577148438 117.234619140625 L 943.5875854492188 121.45032501220703 C 944.0184936523438 121.62950134277344 944.3914794921875 121.87845611572266 944.7066040039062 122.19720458984375 C 945.0191650390625 122.52210235595703 945.25634765625 122.88065338134766 945.4181518554688 123.27284240722656 C 945.5799560546875 123.66503143310547 945.6646118164062 124.08650970458984 945.672119140625 124.53726959228516 C 945.6735229492188 124.9854736328125 945.5845947265625 125.4250259399414 945.4053955078125 125.85592651367188 L 939.7115478515625 139.54930114746094 L 936.5997924804688 138.2554168701172 L 937.7823486328125 135.41146850585938 C 937.5877685546875 135.7926483154297 937.3295288085938 136.11846923828125 937.0076904296875 136.3889617919922 C 936.6858520507812 136.65945434570312 936.3326416015625 136.8663787841797 935.9481201171875 137.00973510742188 C 935.5635986328125 137.15309143066406 935.1590576171875 137.22312927246094 934.7344360351562 137.2198486328125 C 934.3159790039062 137.21913146972656 933.9066772460938 137.1355743408203 933.506591796875 136.9691925048828 L 928.5850830078125 134.9227752685547 C 928.16650390625 134.74871826171875 927.7996215820312 134.5023193359375 927.4845581054688 134.18357849121094 C 927.1781616210938 133.86123657226562 926.9440307617188 133.50396728515625 926.7822265625 133.11178588867188 C 926.6168212890625 132.71087646484375 926.5321044921875 132.28939819335938 926.5281982421875 131.84735107421875 C 926.5206909179688 131.39659118652344 926.6065673828125 130.95574951171875 926.7857055664062 130.5248565673828 L 928.544189453125 126.29588317871094 M 929.8789672851562 131.81106567382812 L 937.8936767578125 135.14370727539062 L 939.6521606445312 130.91473388671875 L 931.637451171875 127.58209228515625 L 929.8789672851562 131.81106567382812 ZM 955.7379150390625 132.04640197753906 L 947.357177734375 144.28128051757812 L 944.5933837890625 142.3881378173828 L 954.8786010742188 127.37297058105469 L 957.6423950195312 129.26611328125 L 955.8283081054688 131.91439819335938 C 956.0989990234375 131.56646728515625 956.419677734375 131.28111267089844 956.7904663085938 131.05831909179688 C 957.1612548828125 130.83554077148438 957.5560302734375 130.68980407714844 957.9747924804688 130.62109375 C 958.3880615234375 130.5486297607422 958.804931640625 130.55941772460938 959.225341796875 130.65347290039062 C 959.6495361328125 130.7420196533203 960.0486450195312 130.9143829345703 960.4226684570312 131.17056274414062 L 963.367919921875 133.18804931640625 C 963.7529296875 133.45176696777344 964.064208984375 133.77003479003906 964.3017578125 134.14285278320312 C 964.530029296875 134.5174102783203 964.6886596679688 134.91696166992188 964.7776489257812 135.34153747558594 C 964.861083984375 135.76234436035156 964.8575439453125 136.19223022460938 964.7669677734375 136.6311798095703 C 964.681884765625 137.07391357421875 964.5075073242188 137.48777770996094 964.2437744140625 137.87277221679688 L 962.5088500976562 140.4055633544922 L 959.7285766601562 138.5010986328125 L 961.4635009765625 135.96832275390625 L 955.7379150390625 132.04640197753906 ZM 980.4065551757812 153.88720703125 L 971.3118896484375 160.85997009277344 L 976.5932006835938 167.74839782714844 L 979.029541015625 165.88047790527344 L 981.0800170898438 168.55490112304688 L 978.6436767578125 170.42282104492188 C 978.2733154296875 170.70675659179688 977.8713989257812 170.9056854248047 977.4379272460938 171.01962280273438 C 977.0056762695312 171.12420654296875 976.5765991210938 171.1507568359375 976.1506958007812 171.09927368164062 C 975.7301025390625 171.04371643066406 975.3226318359375 170.90670776367188 974.9282836914062 170.68820190429688 C 974.5392456054688 170.46563720703125 974.2026977539062 170.169189453125 973.9187622070312 169.79884338378906 L 968.6375122070312 162.91041564941406 C 968.3616943359375 162.5506591796875 968.1668090820312 162.15403747558594 968.0528564453125 161.72055053710938 C 967.9482421875 161.28829956054688 967.9237670898438 160.86187744140625 967.9793090820312 160.44125366210938 C 968.0360717773438 160.0113067626953 968.173095703125 159.60382080078125 968.390380859375 159.21884155273438 C 968.60888671875 158.82449340820312 968.9032592773438 158.4853515625 969.2736206054688 158.201416015625 L 978.3682861328125 151.22865295410156 C 978.7385864257812 150.94471740722656 979.1425170898438 150.74842834472656 979.580078125 150.63978576660156 C 980.0135498046875 150.52584838867188 980.442626953125 150.49929809570312 980.8673095703125 150.5601348876953 C 981.2879028320312 150.6156768798828 981.693359375 150.75006103515625 982.0836791992188 150.96327209472656 C 982.4727172851562 151.18582153320312 982.8051147460938 151.47698974609375 983.0809936523438 151.8367462158203 L 988.3622436523438 158.7251739501953 C 988.6461791992188 159.09552001953125 988.8451538085938 159.4974365234375 988.9590454101562 159.93092346191406 C 989.0676879882812 160.3684539794922 989.09423828125 160.7975311279297 989.0386962890625 161.2181396484375 C 988.983154296875 161.63876342773438 988.8461303710938 162.04623413085938 988.6276245117188 162.44056701660156 C 988.4050903320312 162.82962036132812 988.108642578125 163.16610717773438 987.73828125 163.45005798339844 L 985.3019409179688 165.31797790527344 L 983.25146484375 162.6435546875 L 985.6878051757812 160.775634765625 L 980.4065551757812 153.88720703125 ZM 1002.4036254882812 168.42770385742188 L 980.2218017578125 180.40725708007812 L 978.6298828125 177.4596405029297 L 1000.811767578125 165.48008728027344 L 1002.4036254882812 168.42770385742188 ZM 1000.1630859375 179.41184997558594 L 1001.2542724609375 182.5791778564453 L 987.2329711914062 187.40957641601562 L 990.2882080078125 196.27806091308594 L 1004.3095092773438 191.44764709472656 L 1005.4071655273438 194.6338653564453 L 988.1996459960938 200.56195068359375 L 987.1019897460938 197.375732421875 L 990.0140380859375 196.3725128173828 C 989.5997924804688 196.47996520996094 989.1846923828125 196.50311279296875 988.7687377929688 196.44190979003906 C 988.352783203125 196.38072204589844 987.9635620117188 196.25392150878906 987.6011352539062 196.0614776611328 C 987.2387084960938 195.86903381347656 986.9188232421875 195.6160888671875 986.6416625976562 195.3026123046875 C 986.3622436523438 194.98284912109375 986.153076171875 194.6212615966797 986.0140991210938 194.21786499023438 L 984.0467529296875 188.5072479248047 C 983.8991088867188 188.07864379882812 983.8399047851562 187.6407012939453 983.869140625 187.19345092773438 C 983.9068603515625 186.75033569335938 984.0186767578125 186.33810424804688 984.20458984375 185.9567413330078 C 984.3946533203125 185.56690979003906 984.6536865234375 185.2238311767578 984.9817504882812 184.927490234375 C 985.3139038085938 184.62266540527344 985.7006225585938 184.39427185058594 986.1417846679688 184.2422637939453 L 1000.1630859375 179.41184997558594 ZM 994.380126953125 221.7880859375 C 993.915771484375 221.83489990234375 993.4692993164062 221.79281616210938 993.0407104492188 221.6618194580078 C 992.6180419921875 221.52352905273438 992.2390747070312 221.3205108642578 991.9038696289062 221.05279541015625 C 991.5752563476562 220.78440856933594 991.3007202148438 220.45361328125 991.0801391601562 220.0604248046875 C 990.8668823242188 219.67318725585938 990.7365112304688 219.24411010742188 990.6890258789062 218.77316284179688 L 989.748046875 209.4404754638672 C 989.7025756835938 208.9894256591797 989.745361328125 208.54959106445312 989.8763427734375 208.12095642089844 C 990.0146484375 207.6982879638672 990.2179565429688 207.32264709472656 990.4863891601562 206.99407958984375 C 990.7607421875 206.65818786621094 991.0914916992188 206.3836212158203 991.478759765625 206.1703643798828 C 991.8719482421875 205.94981384277344 992.3006591796875 205.8161163330078 992.7650146484375 205.76930236816406 L 1014.4948120117188 203.578369140625 L 1014.8308715820312 206.91146850585938 L 1004.6624145507812 207.93670654296875 C 1005.1029052734375 207.9191131591797 1005.52783203125 207.98011779785156 1005.937255859375 208.1197509765625 C 1006.3466186523438 208.25938415527344 1006.712646484375 208.46705627441406 1007.0352783203125 208.74273681640625 C 1007.3572387695312 209.0117950439453 1007.6178588867188 209.33729553222656 1007.8171997070312 209.71922302246094 C 1008.0231323242188 210.10049438476562 1008.1488647460938 210.5166473388672 1008.1943359375 210.9676971435547 L 1008.7972412109375 216.94737243652344 C 1008.8447265625 217.41831970214844 1008.8026123046875 217.8647918701172 1008.6709594726562 218.28680419921875 C 1008.5333251953125 218.7161102294922 1008.330322265625 219.0950469970703 1008.0619506835938 219.4236297607422 C 1007.7935180664062 219.75221252441406 1007.4627685546875 220.0267791748047 1007.069580078125 220.24734497070312 C 1006.6757202148438 220.4612579345703 1006.2466430664062 220.5916290283203 1005.7822875976562 220.63844299316406 L 994.380126953125 221.7880859375 M 1004.5032348632812 207.9527587890625 L 993.10107421875 209.10240173339844 L 994.0420532226562 218.43508911132812 L 1005.4442138671875 217.2854461669922 L 1004.5032348632812 207.9527587890625 Z" transform="matrix(1, 0, 0, 1, 0, -7.105427357601002e-15)" style="white-space: pre; fill: rgb(12, 12, 91);"/><path class="st0" d="M1008.7,229.9c0,62-50.2,112.2-112.2,112.2c-62,0-112.2-50.2-112.2-112.2h-6.6c0,65.6,53.2,118.8,118.8,118.8&#10;&#9;&#9;c65.6,0,118.8-53.2,118.8-118.8H1008.7z" style="fill: rgb(7, 7, 55);" transform="matrix(0.9999999999999999, 0, 0, 0.9999999999999999, 0, -7.105427357601002e-15)"/><path class="st0" d="M995.5,229.9c0,54.7-44.3,99-99,99c-54.7,0-99-44.3-99-99h-6.6c0,58.3,47.3,105.6,105.6,105.6&#10;&#9;&#9;c58.3,0,105.6-47.3,105.6-105.6H995.5z" style="fill: rgb(55, 4, 74);" transform="matrix(0.9999999999999999, 0, 0, 0.9999999999999999, 0, -7.105427357601002e-15)"/><path class="st2" d="M922.1,270.2c-2.4,7.7-0.6,16.4,5.4,22.5c6.1,6.1,14.9,7.9,22.6,5.4c-4.6-4.6-5.7-5.7-7.4-7.4&#10;&#9;&#9;&#9;c-3.9-3.9-3.9-10.3,0-14.2c3.9-3.9,10.3-3.9,14.2,0c1.8,1.8,3,3,7.4,7.4c2.5-7.7,0.8-16.5-5.4-22.7c-6.1-6.1-14.8-7.9-22.5-5.5&#10;&#9;&#9;&#9;l-66.1-66c2.4-7.7,0.6-16.4-5.4-22.5c-6.1-6.1-14.9-7.9-22.6-5.4c4.6,4.6,5.7,5.7,7.4,7.4c3.9,3.9,3.9,10.3,0,14.2&#10;&#9;&#9;&#9;c-3.9,3.9-10.3,3.9-14.2,0c-1.8-1.8-3-3-7.4-7.4c-2.5,7.7-0.8,16.5,5.4,22.7c6.1,6.1,14.8,7.9,22.5,5.5L922.1,270.2z" style="fill: rgb(7, 7, 55);" transform="matrix(0.9999999999999999, 0, 0, 0.9999999999999999, 0, -1.4210854715202004e-14)"/><path class="st1" d="M929.5,255.6c-2-2-58.9-58.6-58.9-58.6c-2-2-5.2-2-7.2,0c-2,2-2,5.2,0,7.2c2,2,58.9,58.6,58.9,58.6&#10;&#9;&#9;&#9;c2,2,5.2,2,7.2,0C931.5,260.9,931.5,257.6,929.5,255.6z" style="fill: rgb(204, 204, 204);" transform="matrix(0.9999999999999999, 0, 0, 0.9999999999999999, 0, -1.4210854715202004e-14)"/>

<linearGradient id="SVGID_2_" gradientUnits="userSpaceOnUse" x1="539.0242" y1="329.0571" x2="539.0242" y2="149.1514">
		<stop offset="0" style="stop-color:#B3B3B3"/>
		<stop offset="6.312016e-02" style="stop-color:#C0C0C0"/>
		<stop offset="0.1662" style="stop-color:#CECECE"/>
		<stop offset="0.2915" style="stop-color:#D6D6D6"/>
		<stop offset="0.5" style="stop-color:#D9D9D9"/>
		<stop offset="0.7085" style="stop-color:#D6D6D6"/>
		<stop offset="0.8338" style="stop-color:#CECECE"/>
		<stop offset="0.9369" style="stop-color:#C0C0C0"/>
		<stop offset="1" style="stop-color:#B3B3B3"/>
	</linearGradient><linearGradient id="SVGID_3_" gradientUnits="userSpaceOnUse" x1="539.0242" y1="271.2104" x2="539.0242" y2="157.168">
		<stop offset="0" style="stop-color:#790000"/>
		<stop offset="6.751239e-03" style="stop-color:#7C0000"/>
		<stop offset="9.040195e-02" style="stop-color:#9C0A0E"/>
		<stop offset="0.1746" style="stop-color:#B81319"/>
		<stop offset="0.258" style="stop-color:#CE181F"/>
		<stop offset="0.3405" style="stop-color:#DE1A22"/>
		<stop offset="0.4217" style="stop-color:#E81C23"/>
		<stop offset="0.5" style="stop-color:#ED1C24"/>
		<stop offset="0.5783" style="stop-color:#E81C23"/>
		<stop offset="0.6595" style="stop-color:#DE1A22"/>
		<stop offset="0.742" style="stop-color:#CE181F"/>
		<stop offset="0.8254" style="stop-color:#B81319"/>
		<stop offset="0.9096" style="stop-color:#9C0A0E"/>
		<stop offset="0.9932" style="stop-color:#7C0000"/>
		<stop offset="1" style="stop-color:#790000"/>
	</linearGradient><linearGradient id="SVGID_4_" gradientUnits="userSpaceOnUse" x1="539.0244" y1="321.0405" x2="539.0244" y2="271.2104">
		<stop offset="0" style="stop-color:#000000"/>
		<stop offset="3.238863e-02" style="stop-color:#181818"/>
		<stop offset="8.444095e-02" style="stop-color:#383838"/>
		<stop offset="0.1411" style="stop-color:#525252"/>
		<stop offset="0.2032" style="stop-color:#666666"/>
		<stop offset="0.2734" style="stop-color:#757575"/>
		<stop offset="0.3585" style="stop-color:#7D7D7D"/>
		<stop offset="0.5" style="stop-color:#808080"/>
		<stop offset="0.6415" style="stop-color:#7D7D7D"/>
		<stop offset="0.7266" style="stop-color:#757575"/>
		<stop offset="0.7968" style="stop-color:#666666"/>
		<stop offset="0.8589" style="stop-color:#525252"/>
		<stop offset="0.9156" style="stop-color:#383838"/>
		<stop offset="0.9676" style="stop-color:#181818"/>
		<stop offset="1" style="stop-color:#000000"/>
	</linearGradient>

<g transform="matrix(0.7709527611732483, 0, 0, 0.7709527611732483, 754.8704540110101, 47.710534926506625)">
		<path class="st8" d="M107.6,263.1c5.3,0,16.2,6.7,27.9,6.7c11.7,0,17.8-6.7,33.8-6.7c16,0,51.8,0,58.5,0c6.7,0,19.7,5,28.6,5&#10;&#9;&#9;&#9;c8.9,0,24-6.7,26.3-13.1c2.4-6.4,28.9-31.9-37.1-23.3c-66,8.6-136.5,6.2-136.5,6.2L107.6,263.1z" style="fill: rgb(88, 89, 91);"/>
		<g>
			<path d="M 154.400005 259.100006 A 18.799999 18.799999 0 0 1 135.600006 277.900005 A 18.799999 18.799999 0 0 1 116.800007 259.100006 A 18.799999 18.799999 0 0 1 135.600006 240.300007 A 18.799999 18.799999 0 0 1 154.400005 259.100006 Z"/>
			<path d="M 152.000006 259.100006 A 16.4 16.4 0 0 1 135.600006 275.500006 A 16.4 16.4 0 0 1 119.200006 259.100006 A 16.4 16.4 0 0 1 135.600006 242.700006 A 16.4 16.4 0 0 1 152.000006 259.100006 Z" class="st20" style="fill: rgb(255, 255, 255);"/>
			<path d="M 146.400006 259.100006 A 10.8 10.8 0 0 1 135.600006 269.900006 A 10.8 10.8 0 0 1 124.800006 259.100006 A 10.8 10.8 0 0 1 135.600006 248.300006 A 10.8 10.8 0 0 1 146.400006 259.100006 Z"/>
			<path d="M 143.000006 259.100006 A 7.4 7.4 0 0 1 135.600006 266.500006 A 7.4 7.4 0 0 1 128.200006 259.100006 A 7.4 7.4 0 0 1 135.600006 251.700006 A 7.4 7.4 0 0 1 143.000006 259.100006 Z" class="st20" style="fill: rgb(255, 255, 255);"/>
		</g>
		<g>
			<path d="M 275.099987 259.100006 A 18.799999 18.799999 0 0 1 256.299988 277.900005 A 18.799999 18.799999 0 0 1 237.499989 259.100006 A 18.799999 18.799999 0 0 1 256.299988 240.300007 A 18.799999 18.799999 0 0 1 275.099987 259.100006 Z"/>
			<path d="M 272.699987 259.100006 A 16.4 16.4 0 0 1 256.299988 275.500006 A 16.4 16.4 0 0 1 239.899988 259.100006 A 16.4 16.4 0 0 1 256.299988 242.700006 A 16.4 16.4 0 0 1 272.699987 259.100006 Z" class="st20" style="fill: rgb(255, 255, 255);"/>
			<path d="M 267.099988 259.100006 A 10.8 10.8 0 0 1 256.299988 269.900006 A 10.8 10.8 0 0 1 245.499988 259.100006 A 10.8 10.8 0 0 1 256.299988 248.300006 A 10.8 10.8 0 0 1 267.099988 259.100006 Z"/>
			<path d="M 263.699988 259.100006 A 7.4 7.4 0 0 1 256.299988 266.500006 A 7.4 7.4 0 0 1 248.899988 259.100006 A 7.4 7.4 0 0 1 256.299988 251.700006 A 7.4 7.4 0 0 1 263.699988 259.100006 Z" class="st20" style="fill: rgb(255, 255, 255);"/>
		</g>
		<path class="st24" d="M76.1,247.3c-2.1,0-3.9,1.7-3.9,3.9c0,2.1,1.7,3.9,3.9,3.9h6.3v-7.8H76.1z" style="fill: rgb(128, 130, 133);"/>
		<path class="st24" d="M293.9,257.7c2.1,0,3.9-1.7,3.9-3.9c0-2.1-1.7-3.9-3.9-3.9h-6.3v7.8H293.9z" style="fill: rgb(128, 130, 133);"/>
		<path d="M 297.499988 235.300003 A 7.2 8.3 0 0 1 290.299988 243.600003 A 7.2 8.3 0 0 1 283.099988 235.300003 A 7.2 8.3 0 0 1 290.299988 227.000003 A 7.2 8.3 0 0 1 297.499988 235.300003 Z" class="st15" style="fill: rgb(209, 211, 212);"/>
		<path class="st25" d="M236.9,220c0,0-9.2-12.2-17.6-18.8c-7.7-6-19.3-10.3-38.6-10.3c-24.3,0-45.2,8.1-58.1,32.2&#10;&#9;&#9;&#9;c0,0,28.8,1.4,60.2,1.4C200.6,224.6,236.9,220,236.9,220z" style="fill: rgb(120, 207, 225);"/>
		<path class="st26" d="M180.7,223c26.1,0,49.2-4.4,75.7-4.4c26.5,0,38.8,4.6,39,11.4c0.2,6.8-8.5,29.7-14.1,29.7&#10;&#9;&#9;&#9;c-5.6,0,0-22.6-24.1-22.6c-27.8,0-20.8,28-29.4,28h-68.7c0,0-0.6-6.6-3.9-6.6c-3.3,0-34.3,0-38.5,0s-4,6.6-4,6.6&#10;&#9;&#9;&#9;c-5.2,0-24.7,0.4-28.8-7.7c-4.6-9.1-7.8-33.6,22.7-34.8C138.2,221.5,145,223,180.7,223z" style="fill: rgb(3, 191, 215);"/>
		<path class="st27" d="M159.1,265.1h68.7c8.3,0,2.1-25.9,26.4-27.9c-14.4-4.7-27.6,8.4-34.9,17.3c-7.4,9-38.2,6.9-61.3,6.3&#10;&#9;&#9;&#9;C158.9,262.7,159.1,265.1,159.1,265.1z" style="fill: rgb(8, 167, 188);"/>
		<path class="st25" d="M162.1,265.1c3.5-10.4,0.1-20.2-8.4-20.2c-9.8,0-16,0-33.8,0c-15.4,0-13,13-10.2,20.2c1.3,0,2.3,0,3.1,0&#10;&#9;&#9;&#9;c0,0-0.2-6.6,4-6.6s35.2,0,38.5,0c3.3,0,3.9,6.6,3.9,6.6H162.1z" style="fill: rgb(120, 207, 225);"/>
		<path d="M 278.20001220703125 262.79998779296875 L 279.3999938964844 244.89999389648438 L 292.79998779296875 244.89999389648438 L 292.79998779296875 255 L 290.5 262.79998779296875 Z" class="st28" style="fill: rgb(167, 169, 172);"/>
		<path class="st28" d="M77.9,244.9c0,0,12.4-1.3,15.1,1.6c2.7,3,5.6,19.8,5.6,19.8s-12.5-0.6-15.9-3.5&#10;&#9;&#9;&#9;C79.5,260,77.9,244.9,77.9,244.9z" style="fill: rgb(167, 169, 172);"/>
		<path class="st29" d="M196.2,196.6c10.1,0,28.7,12.3,29.9,20.6l-26.7-0.1L196.2,196.6z" style="fill: rgb(171, 225, 250);"/>
		<path class="st29" d="M191.2,196.6c-4.8,0-31-1-40.3,4c-11.4,6.1-15.5,16.6-15.5,16.6h58.3L191.2,196.6z" style="fill: rgb(171, 225, 250);"/>
	</g>

<path d="M 721.2879638671875 485.1518859863281" style="fill: rgb(7, 7, 55); fill-opacity: 1; stroke: rgb(0, 0, 0); stroke-opacity: 1; stroke-width: 0; paint-order: fill;"/></svg>