<?xml version="1.0" encoding="utf-8"?>
<svg id="master-artboard" viewBox="0 0 1400 980" version="1.1" xmlns="http://www.w3.org/2000/svg" x="0px" y="0px" style="enable-background:new 0 0 1400 980;" width="1400px" height="980px"><defs><style id="ee-google-fonts">@import url(https://fonts.googleapis.com/css?family=Trocchi:400);</style></defs>


<g id="XMLID_198_" transform="matrix(1, 0, 0, 1, 360.71322142939545, 169.7473983197155)">
		<g id="XMLID_196_">
			<path id="XMLID_1549_" class="st1" d="M302.7,129.4l-199.4,33.7c-20.3,3.4-33.2,23.7-27.6,43.6l43.6,155.1&#10;&#9;&#9;&#9;&#9;c3.1,11.1,11.5,19.9,22.5,23.5l140.5,46.7c17,5.7,35.4,5.7,52.4,0l140.5-46.7c10.9-3.6,19.3-12.4,22.5-23.5l43.6-155.1&#10;&#9;&#9;&#9;&#9;c5.6-19.8-7.3-40.2-27.6-43.6l-199.4-33.7C310.5,128.7,306.5,128.7,302.7,129.4z" style="fill: rgb(189, 183, 162);"/>
		</g>
		<g id="XMLID_195_">
			<path id="XMLID_1531_" class="st2" d="M308.5,418.6c-7,0-13.9-1.1-20.6-3.3l-140.5-46.7c-5.4-1.8-9.5-6.1-11-11.5L92.8,201.9&#10;&#9;&#9;&#9;&#9;c-1.3-4.7-0.6-9.6,2-13.7c2.6-4.1,6.7-6.8,11.5-7.7l199.4-33.7c0.9-0.2,1.9-0.2,2.8-0.2c0.9,0,1.9,0.1,2.8,0.2l199.4,33.7&#10;&#9;&#9;&#9;&#9;c4.8,0.8,8.9,3.5,11.5,7.7c2.6,4.1,3.3,9,2,13.7L480.6,357c-1.5,5.4-5.6,9.7-11,11.5l-140.5,46.7&#10;&#9;&#9;&#9;&#9;C322.4,417.5,315.5,418.6,308.5,418.6z" style="fill: rgb(243, 110, 62);"/>
		</g>
		<g id="XMLID_174_">
			<path id="XMLID_6570_" class="st3" d="M122,306.3l14.3,50.9c1.5,5.4,5.6,9.7,11,11.5l140.5,46.7c6.7,2.2,13.6,3.3,20.6,3.3&#10;&#9;&#9;&#9;&#9;c7,0,13.9-1.1,20.6-3.3l140.5-46.7c5.4-1.8,9.5-6.1,11-11.5l14.3-50.9H122L122,306.3z" style="fill: rgb(35, 34, 34);"/>
		</g>
		<g id="XMLID_49_">
			<g id="XMLID_151_">
				<path id="XMLID_6568_" class="st3" d="M404.1,307c-8.3,0-16.3-4.4-20.7-11.5l-0.7-1.1H238.3l-0.7,1.1&#10;&#9;&#9;&#9;&#9;&#9;c-4.7,7.1-12.8,11.6-21.2,11.6c-8.7,0-16.7-4.4-21.3-11.7l-0.7-1.1l-1.3,0c-9.7-0.1-28.6-1.5-30.7-1.7l-0.3,0l-0.4-0.1&#10;&#9;&#9;&#9;&#9;&#9;c-3.1-0.9-4.9-3.9-4.7-8.1l0-0.3l-0.1-0.3c-0.5-2-1.6-7.3-1.3-12.8c0.3-5.6,1.3-13.4,4.3-18.1c3.3-5.1,13-10.8,26-15.3&#10;&#9;&#9;&#9;&#9;&#9;c17.4-5.9,30.5-8,34.1-8.4c2.8-0.4,8.2-2.9,16.6-7.1c7.6-3.7,17.1-8.4,27.6-12.5c18.7-7.2,40.8-13.9,75-13.9&#10;&#9;&#9;&#9;&#9;&#9;c3.9,0,8.1,0.1,12.3,0.3c40.5,1.6,96.8,22.8,97.4,23l3.9,1.5l-1.9,3.7c-0.4,0.7-0.9,2-1,2.8l-0.1,0.4l0,0.4&#10;&#9;&#9;&#9;&#9;&#9;c0.4,2.9,3.8,17.9,5.4,24c0.2,0.9,0.8,1.9,1.7,3c2.8,3.4,4.4,7.7,4.4,12.1v8c0,4-2.4,7.8-6,9.5c-1.3,0.6-2.7,1.4-4.1,2.3&#10;&#9;&#9;&#9;&#9;&#9;c-2.4,1.6-5.3,2.5-8.2,2.5l-15.5,0.5l-0.6,1.5C423.4,300.6,414.2,307,404.1,307z" style="fill: rgb(35, 34, 34);"/>
			</g>
			<g id="XMLID_253_">
				<g id="XMLID_254_">
					<path id="XMLID_6566_" class="st4" d="M332.2,206.7l-1.8,23c21.4-1.7,42-2.8,55.1-3.5c-3.4-6-11-16.2-11-16.2&#10;&#9;&#9;&#9;&#9;&#9;&#9;C352.3,205,332.2,206.7,332.2,206.7z" style="fill: rgb(255, 255, 255);"/>
				</g>
				<g id="XMLID_255_">
					<path id="XMLID_6564_" class="st4" d="M394.6,224.7c1.5,0,1.8,0.2,4.6-2.4c2.9-2.7,2.7-4.1,1.8-4.8c-0.9-0.8-10.5-3.6-10.5-3.6&#10;&#9;&#9;&#9;&#9;&#9;&#9;c-3.2-1-4.3,0.8-4.1,2c0.2,1.2,3.4,6.4,4.3,7.5C391.6,224.4,393.1,224.6,394.6,224.7z" style="fill: rgb(255, 255, 255);"/>
				</g>
				<g id="XMLID_258_">
					<path id="XMLID_6560_" class="st5" d="M320.4,255.4c1-10.6,1-12.5,0.9-14.2c0-0.4,0-0.8,0-1.3c0-2.2,1.2-6,1.8-7.8&#10;&#9;&#9;&#9;&#9;&#9;&#9;c-4.3,0.4-8.6,0.7-12.8,1.2l-7.5,0.7c-24.4,2.3-42.2,4-54.3,5.1c-0.5,2.4-1.4,7.1-1,10.5c0.2,2,0.2,4.6,0.2,7.5&#10;&#9;&#9;&#9;&#9;&#9;&#9;c0,4.3,0,9.7,0.6,15.3c0.8,7.1,2.2,9.8,2.7,10.5l73.1-0.2C322.8,278.9,319.3,266.6,320.4,255.4z M318.7,246.6l-13.7,1.2&#10;&#9;&#9;&#9;&#9;&#9;&#9;c-0.8,0.1-1.6-0.5-1.6-1.4c-0.1-0.8,0.5-1.6,1.4-1.6l13.7-1.2c0.8-0.1,1.6,0.5,1.6,1.4C320.1,245.7,319.5,246.5,318.7,246.6z" style="fill: rgb(222, 221, 221);"/>
				</g>
				<g id="XMLID_261_">
					<path id="XMLID_6554_" class="st5" d="M190.2,281.7c0-14.5,11.7-26.2,26.2-26.2c14.5,0,26.2,11.7,26.2,26.2v7.1h136.3v-6.3&#10;&#9;&#9;&#9;&#9;&#9;&#9;c0-13.9,11.3-25.2,25.2-25.2c2.4,0,4.7,0.4,6.8,1c2.1-1.8,7.5-6.1,9.7-6.7c1.3-0.4,4.3-0.5,7.8-0.6c3.6-0.1,7.7-0.3,10.3-0.8&#10;&#9;&#9;&#9;&#9;&#9;&#9;c1.6-0.3,2.8-0.5,3.6-0.6c1.1-0.2,1.6-0.2,2.1-0.5c-1.8-1.8-4.8-4.9-7.5-8c-7.4-8.6-7-10.2-6.8-10.9c0.7-2.5,7.8-6.3,11.8-8.3&#10;&#9;&#9;&#9;&#9;&#9;&#9;c-14.8-5.2-58.1-19.5-90.6-20.8c-38.1-1.5-61.6,4.2-85.2,13.3c-10.3,4-19.7,8.6-27.2,12.3c-8.4,4.1-14.4,7.1-18.2,7.6&#10;&#9;&#9;&#9;&#9;&#9;&#9;c-3.5,0.5-16.2,2.4-33.2,8.2c-14.1,4.8-21.4,10.1-23.3,13.2c-1.8,2.9-3.1,8.6-3.5,15.6c-0.3,6.1,1.3,12.1,1.4,12.2l0.1,0.3&#10;&#9;&#9;&#9;&#9;&#9;&#9;l0,0.3c-0.1,1.1,0,3.2,0.8,3.6c1.9,0.1,17.4,1.3,27.3,1.6V281.7z M418.6,236.7c3.2,0,5.7,2.6,5.7,5.7c0,3.2-2.6,5.7-5.7,5.7&#10;&#9;&#9;&#9;&#9;&#9;&#9;c-3.2,0-5.7-2.6-5.7-5.7C412.8,239.2,415.4,236.7,418.6,236.7z M244.5,227.3c10.1-5.4,36.3-16.9,53.7-20.2&#10;&#9;&#9;&#9;&#9;&#9;&#9;c14.7-2.8,37-5.5,59.8-2.9c19.3,2.2,38.8,7.2,46.4,10.7c0.8,0.4,1.4,1.1,1.6,1.9c0.2,0.9,0,1.8-0.5,2.4l-4.9,6.2&#10;&#9;&#9;&#9;&#9;&#9;&#9;c-1,1.2-2.4,2-4,2c-1.3,0.1-3.4,0.2-6.3,0.3c4,8,5.1,17-3.5,26.5c-6.8,7.5-8.5,12.7-10,17.4c-0.9,2.6-1.7,5.1-3.3,7.7&#10;&#9;&#9;&#9;&#9;&#9;&#9;c-0.7,1.2-3,4.7-26.1,5.4c-2.9,0.1-5.8,0.1-8.4,0.1c-7.4,0-13.2-0.3-13.7-0.3l-75.2,0.2l-0.3-0.2c-0.2-0.2-2.4-2.4-3.5-12&#10;&#9;&#9;&#9;&#9;&#9;&#9;c-0.6-5.7-0.6-11.2-0.6-15.5c0-2.9,0-5.4-0.2-7.3c-0.3-3.4,0.4-7.9,0.9-10.5c-8.3,0.7-13.8,1.1-16.4,1.1c-1.1,0-1.7-0.1-2-0.2&#10;&#9;&#9;&#9;&#9;&#9;&#9;c-0.5-0.2-0.9-0.6-0.9-1.2C227.1,237.7,228.3,235.9,244.5,227.3z M168.2,258.4c-0.7,0-1.3-0.3-1.7-0.9&#10;&#9;&#9;&#9;&#9;&#9;&#9;c-0.5-0.7-0.5-1.5-0.1-2.2v0c2-3.3,6-6.7,9.8-8.2c3.1-1.2,23.1-5.4,25.1-4.3c0.8,0.4,1,0.9,1,1.3c0,1.2-1.4,1.8-6.4,4.2&#10;&#9;&#9;&#9;&#9;&#9;&#9;l-0.5,0.3c-5.8,2.7-12.4,6.7-12.4,6.7c-0.3,0.2-1,0.6-14.5,3.1C168.4,258.4,168.3,258.4,168.2,258.4z" style="fill: rgb(222, 221, 221);"/>
				</g>
				<g id="XMLID_264_">
					<path id="XMLID_6552_" class="st4" d="M195.2,246.5c1.8-0.8,3.4-1.6,4.3-2.1c-4.3,0.3-19,2.9-22.6,4.4&#10;&#9;&#9;&#9;&#9;&#9;&#9;c-2.9,1.2-6.9,4.1-8.9,7.4c0,0-0.1,0.1,0,0.2c0.1,0.1,0.1,0.1,0.2,0.1c9.4-1.7,13.3-2.6,13.8-2.9c0,0,6.7-4.1,12.6-6.8&#10;&#9;&#9;&#9;&#9;&#9;&#9;L195.2,246.5z" style="fill: rgb(255, 255, 255);"/>
				</g>
				<g id="XMLID_267_">
					<path id="XMLID_6548_" class="st4" d="M323.2,239.9c0,0.5,0,0.9,0,1.3c0.1,1.8,0.1,3.7-0.9,14.4c-1.1,11.3,2.7,24.3,3.6,27.1&#10;&#9;&#9;&#9;&#9;&#9;&#9;c17.1,0.8,42.9,0.2,45.9-4.4c1.5-2.4,2.2-4.6,3.1-7.2c1.6-4.8,3.4-10.3,10.4-18c8.2-9,7-17.4,2.9-25.1c-13.2,0.6-38.1,2-63,4.1&#10;&#9;&#9;&#9;&#9;&#9;&#9;C324.9,232.7,323.2,237.6,323.2,239.9z M372.6,238.5l13.7-1.2c0.8-0.1,1.6,0.5,1.6,1.4c0.1,0.8-0.5,1.6-1.4,1.6l-13.7,1.2&#10;&#9;&#9;&#9;&#9;&#9;&#9;c-0.8,0.1-1.6-0.5-1.6-1.4C371.1,239.3,371.7,238.6,372.6,238.5z" style="fill: rgb(255, 255, 255);"/>
				</g>
				<g id="XMLID_268_">
					<path id="XMLID_6546_" class="st4" d="M444.4,222.7c-5.7,2.8-12.1,6.5-12.5,8c-0.2,2.2,12.1,16,15,18.2c0.9,0.6,1.8,1,2.6,1.3&#10;&#9;&#9;&#9;&#9;&#9;&#9;c-1.5-6.3-4.9-20.7-4.9-22.7c0-1.4,0.5-3.1,1-4.2C445.4,223,445,222.9,444.4,222.7z" style="fill: rgb(255, 255, 255);"/>
				</g>
				<g id="XMLID_269_">
					<path id="XMLID_6544_" class="st5" d="M310.1,231.4c2.8-0.3,5.6-0.5,8.5-0.8l5-23.6c0,0-10.3,0.7-23.5,2.7&#10;&#9;&#9;&#9;&#9;&#9;&#9;c-13.2,2-36.3,11.4-36.3,11.4l-2.9,14.9c4.9-0.4,10.2-0.9,15.6-1.5c-0.5-1-1.2-2.7-1.5-3.5c-0.4-1.3,1.2-2.6,2.3-1.1l2.3,4.3&#10;&#9;&#9;&#9;&#9;&#9;&#9;c7.5-0.7,15.3-1.5,23-2.2L310.1,231.4z" style="fill: rgb(222, 221, 221);"/>
				</g>
				<g id="XMLID_270_">
					<path id="XMLID_6542_" class="st4" d="M418.6,246.3c2.1,0,3.9-1.7,3.9-3.9c0-2.1-1.7-3.9-3.9-3.9c-2.1,0-3.9,1.7-3.9,3.9&#10;&#9;&#9;&#9;&#9;&#9;&#9;C414.7,244.5,416.5,246.3,418.6,246.3z" style="fill: rgb(255, 255, 255);"/>
				</g>
				<g id="XMLID_271_">
					<path id="XMLID_6540_" class="st5" d="M250.1,233.5c-0.3,1.4,4.5,1,7.1,0.7l1.4-6.8C258.6,227.5,250.5,231.6,250.1,233.5z" style="fill: rgb(222, 221, 221);"/>
				</g>
				<g id="XMLID_272_">
					<path id="XMLID_6538_" class="st4" d="M450.3,252.9c0-0.1-0.1-0.4-0.2-0.7c-1.1-0.3-2.8-0.8-4.3-1.9c0,0-0.1,0-0.1-0.1&#10;&#9;&#9;&#9;&#9;&#9;&#9;c-1,0.8-1.7,0.9-3.2,1.1c-0.8,0.1-1.9,0.3-3.5,0.6c-2.7,0.5-6.9,0.7-10.6,0.8c-3.2,0.1-6.2,0.2-7.3,0.6&#10;&#9;&#9;&#9;&#9;&#9;&#9;c-1.6,0.5-5.5,3.5-8.2,5.6c9.5,3.6,16.2,12.8,16.2,23.5v1.9l13.7-0.4c2-0.1,4-0.7,5.6-1.7c1.6-1,3.1-1.9,4.6-2.6&#10;&#9;&#9;&#9;&#9;&#9;&#9;c1.9-0.9,3.1-2.8,3.1-4.9v-8c0-3.2-1.1-6.3-3.2-8.9C451.7,256.2,450.7,254.6,450.3,252.9z" style="fill: rgb(255, 255, 255);"/>
				</g>
				<g id="XMLID_282_">
					<path id="XMLID_6528_" class="st4" d="M216.4,266.4c-8.5,0-15.3,6.9-15.3,15.3c0,8.5,6.9,15.3,15.3,15.3&#10;&#9;&#9;&#9;&#9;&#9;&#9;c8.5,0,15.3-6.9,15.3-15.3C231.7,273.3,224.8,266.4,216.4,266.4z M220.9,278l3.3-5.1c0.3-0.4,0.9-0.5,1.2-0.1&#10;&#9;&#9;&#9;&#9;&#9;&#9;c1.5,1.5,2.5,3.4,3.2,5.5c0.1,0.5-0.2,1-0.7,1l-5.8,0.6c-0.5,0.1-1-0.2-1.2-0.6C220.6,278.9,220.6,278.4,220.9,278z&#10;&#9;&#9;&#9;&#9;&#9;&#9; M211.9,285.4l-3.3,5.1c-0.3,0.4-0.9,0.5-1.2,0.1c-1.5-1.5-2.5-3.4-3.2-5.5c-0.1-0.5,0.2-1,0.7-1l5.8-0.6&#10;&#9;&#9;&#9;&#9;&#9;&#9;c0.5-0.1,1,0.2,1.2,0.6C212.2,284.5,212.2,285,211.9,285.4z M212.1,279c-0.2,0.4-0.7,0.7-1.2,0.6l-6-0.3c-0.5,0-0.8-0.5-0.7-1&#10;&#9;&#9;&#9;&#9;&#9;&#9;c0.6-2,1.7-3.9,3.2-5.5c0.3-0.4,0.9-0.3,1.2,0.1l3.4,4.7C212.3,278.1,212.4,278.6,212.1,279z M213.2,269.5&#10;&#9;&#9;&#9;&#9;&#9;&#9;c2.1-0.5,4.2-0.5,6.4,0c0.5,0.1,0.7,0.6,0.5,1.1l-2.4,5.3c-0.2,0.5-0.7,0.8-1.2,0.8c-0.5,0-0.9-0.3-1.1-0.7l-2.7-5.4&#10;&#9;&#9;&#9;&#9;&#9;&#9;C212.5,270.1,212.7,269.6,213.2,269.5z M219.4,281.7c0,1.6-1.3,3-3,3c-1.6,0-3-1.3-3-3c0-1.6,1.3-3,3-3&#10;&#9;&#9;&#9;&#9;&#9;&#9;C218,278.7,219.4,280.1,219.4,281.7z M219.6,294c-2.1,0.5-4.2,0.5-6.4,0c-0.5-0.1-0.7-0.6-0.5-1.1l2.4-5.3&#10;&#9;&#9;&#9;&#9;&#9;&#9;c0.2-0.5,0.7-0.8,1.2-0.8c0.5,0,0.9,0.3,1.1,0.7l2.7,5.4C220.3,293.3,220.1,293.8,219.6,294z M225.4,290.6&#10;&#9;&#9;&#9;&#9;&#9;&#9;c-0.3,0.4-0.9,0.3-1.2-0.1l-3.4-4.7c-0.3-0.4-0.3-1-0.1-1.4c0.2-0.4,0.7-0.7,1.2-0.6l6,0.3c0.5,0,0.8,0.5,0.7,1&#10;&#9;&#9;&#9;&#9;&#9;&#9;C228,287.1,226.9,288.9,225.4,290.6z" style="fill: rgb(255, 255, 255);"/>
				</g>
				<g id="XMLID_289_">
					<path d="M 217.499994 281.700012 A 1.1 1.1 0 0 1 216.399994 282.800012 A 1.1 1.1 0 0 1 215.299994 281.700012 A 1.1 1.1 0 0 1 216.399994 280.600012 A 1.1 1.1 0 0 1 217.499994 281.700012 Z" id="XMLID_6526_" class="st4" style="fill: rgb(255, 255, 255);"/>
				</g>
				<g id="XMLID_314_">
					<path id="XMLID_6516_" class="st4" d="M404.1,297.5c8.2,0,14.9-6.7,14.9-14.9c0-8.2-6.7-14.9-14.9-14.9&#10;&#9;&#9;&#9;&#9;&#9;&#9;c-8.2,0-14.9,6.7-14.9,14.9C389.1,290.8,395.9,297.5,404.1,297.5z M408.5,278.9l3.2-5c0.3-0.4,0.8-0.5,1.2-0.1&#10;&#9;&#9;&#9;&#9;&#9;&#9;c1.4,1.5,2.4,3.3,3.1,5.4c0.1,0.5-0.2,0.9-0.6,1l-5.7,0.6c-0.5,0.1-1-0.2-1.2-0.6C408.2,279.8,408.2,279.3,408.5,278.9z&#10;&#9;&#9;&#9;&#9;&#9;&#9; M408.3,285.2c0.2-0.4,0.7-0.7,1.2-0.6l5.9,0.3c0.5,0,0.8,0.5,0.7,1c-0.6,2-1.7,3.8-3.1,5.4c-0.3,0.4-0.9,0.3-1.2-0.1l-3.4-4.6&#10;&#9;&#9;&#9;&#9;&#9;&#9;C408,286.1,408,285.6,408.3,285.2z M407.2,294.5c-2,0.5-4.1,0.4-6.2,0c-0.5-0.1-0.7-0.6-0.5-1l2.3-5.2c0.2-0.5,0.7-0.7,1.1-0.7&#10;&#9;&#9;&#9;&#9;&#9;&#9;c0.5,0,0.9,0.3,1.1,0.7l2.7,5.3C407.9,293.8,407.7,294.4,407.2,294.5z M401.2,282.5c0-1.6,1.3-2.9,2.9-2.9&#10;&#9;&#9;&#9;&#9;&#9;&#9;c1.6,0,2.9,1.3,2.9,2.9c0,1.6-1.3,2.9-2.9,2.9C402.5,285.5,401.2,284.2,401.2,282.5z M401,270.6c2-0.5,4.1-0.4,6.2,0&#10;&#9;&#9;&#9;&#9;&#9;&#9;c0.5,0.1,0.7,0.6,0.5,1l-2.3,5.2c-0.2,0.5-0.7,0.7-1.1,0.7c-0.5,0-0.9-0.3-1.1-0.7l-2.7-5.3C400.3,271.2,400.5,270.7,401,270.6&#10;&#9;&#9;&#9;&#9;&#9;&#9;z M392.2,279.3c0.6-2,1.7-3.8,3.1-5.4c0.3-0.4,0.9-0.3,1.2,0.1l3.4,4.6c0.3,0.4,0.3,0.9,0.1,1.4c-0.2,0.4-0.7,0.7-1.2,0.6&#10;&#9;&#9;&#9;&#9;&#9;&#9;l-5.9-0.3C392.4,280.2,392,279.7,392.2,279.3z M392.9,284.8l5.7-0.6c0.5-0.1,1,0.2,1.2,0.6c0.2,0.4,0.2,0.9,0,1.3l-3.2,5&#10;&#9;&#9;&#9;&#9;&#9;&#9;c-0.3,0.4-0.8,0.5-1.2,0.1c-1.4-1.5-2.4-3.3-3.1-5.4C392.1,285.4,392.4,284.9,392.9,284.8z" style="fill: rgb(255, 255, 255);"/>
				</g>
				<g id="XMLID_321_">
					<path d="M 405.100006 282.5 A 1 1 0 0 1 404.100006 283.5 A 1 1 0 0 1 403.100006 282.5 A 1 1 0 0 1 404.100006 281.5 A 1 1 0 0 1 405.100006 282.5 Z" id="XMLID_6514_" class="st4" style="fill: rgb(255, 255, 255);"/>
				</g>
			</g>
			<g id="XMLID_50_">
				<g id="XMLID_92_">
					<g id="XMLID_126_">
						<path d="M 237.100006 288.799988 H 385.400009 V 292.099988 H 237.100006 V 288.799988 Z" id="XMLID_6511_" class="st3" style="fill: rgb(35, 34, 34);"/>
					</g>
				</g>
				<g id="XMLID_91_">
					<g id="XMLID_124_">
						<path id="XMLID_6508_" class="st3" d="M194.3,291.9c-9.3,0-30.8-1.6-31.8-1.7l-0.1,0l-0.1,0c-3.2-0.9-3-5.1-2.9-6.4&#10;&#9;&#9;&#9;&#9;&#9;&#9;&#9;c-0.3-1.3-1.7-6.9-1.4-12.8c0.2-4.4,1.1-12.4,3.9-16.9c2.3-3.6,10-9.3,24.8-14.3c17.2-5.9,30.1-7.9,33.7-8.3&#10;&#9;&#9;&#9;&#9;&#9;&#9;&#9;c3.4-0.5,9.6-3.5,17.4-7.3c7.6-3.7,17-8.4,27.5-12.4c23.9-9.2,47.8-15,86.3-13.4c40.1,1.6,96.1,22.7,96.7,22.9l1.5,0.6&#10;&#9;&#9;&#9;&#9;&#9;&#9;&#9;L449,223c-0.4,0.7-1.4,2.9-1.4,4.4c0,1.8,4.1,19.4,5.5,24.8c0.3,1.2,1,2.5,2.2,3.9c2.5,3,3.9,6.8,3.9,10.6v8&#10;&#9;&#9;&#9;&#9;&#9;&#9;&#9;c0,3.1-1.8,6-4.7,7.4c-1.4,0.7-2.8,1.5-4.3,2.4c-2.1,1.3-4.5,2.1-7.1,2.2l-18.2,0.6l-0.1-2.8l18.2-0.6c2-0.1,4-0.7,5.6-1.7&#10;&#9;&#9;&#9;&#9;&#9;&#9;&#9;c1.6-1,3.1-1.9,4.6-2.6c1.9-0.9,3.1-2.8,3.1-4.9v-8c0-3.2-1.1-6.3-3.2-8.9c-1.4-1.7-2.3-3.4-2.7-5c-0.5-1.9-5.5-23-5.5-25.5&#10;&#9;&#9;&#9;&#9;&#9;&#9;&#9;c0-1.4,0.5-3.1,1-4.2c-8.9-3.3-58.3-20.7-94.4-22.2c-38.1-1.5-61.6,4.2-85.2,13.3c-10.3,4-19.7,8.6-27.2,12.3&#10;&#9;&#9;&#9;&#9;&#9;&#9;&#9;c-8.4,4.1-14.4,7.1-18.2,7.6c-3.5,0.5-16.2,2.4-33.2,8.2c-14.1,4.8-21.4,10.1-23.3,13.2c-1.8,2.9-3.1,8.6-3.5,15.6&#10;&#9;&#9;&#9;&#9;&#9;&#9;&#9;c-0.3,6.1,1.3,12.1,1.4,12.2l0.1,0.3l0,0.3c-0.1,1.1,0,3.2,0.8,3.6c2.3,0.2,25.4,1.8,32.9,1.6l0.1,2.8&#10;&#9;&#9;&#9;&#9;&#9;&#9;&#9;C195.5,291.9,194.9,291.9,194.3,291.9z" style="fill: rgb(35, 34, 34);"/>
					</g>
				</g>
				<g id="XMLID_90_">
					<g id="XMLID_147_">
						<path d="M 237.699993 281.700012 A 21.299999 21.299999 0 0 1 216.399994 303.000011 A 21.299999 21.299999 0 0 1 195.099995 281.700012 A 21.299999 21.299999 0 0 1 216.399994 260.400013 A 21.299999 21.299999 0 0 1 237.699993 281.700012 Z" id="XMLID_6505_" class="st3" style="fill: rgb(35, 34, 34);"/>
					</g>
				</g>
				<g id="XMLID_89_">
					<g id="XMLID_121_">
						<path id="XMLID_6500_" class="st3" d="M216.4,304.7c-12.7,0-23-10.3-23-23c0-12.7,10.3-23,23-23c12.7,0,23,10.3,23,23&#10;&#9;&#9;&#9;&#9;&#9;&#9;&#9;C239.4,294.4,229.1,304.7,216.4,304.7z M216.4,262c-10.9,0-19.7,8.8-19.7,19.7c0,10.9,8.8,19.7,19.7,19.7&#10;&#9;&#9;&#9;&#9;&#9;&#9;&#9;c10.9,0,19.7-8.8,19.7-19.7C236.1,270.9,227.3,262,216.4,262z" style="fill: rgb(35, 34, 34);"/>
					</g>
				</g>
				<g id="XMLID_88_">
					<g id="XMLID_146_">
						<path d="M 232.699993 281.700012 A 16.299999 16.299999 0 0 1 216.399994 298.000011 A 16.299999 16.299999 0 0 1 200.099995 281.700012 A 16.299999 16.299999 0 0 1 216.399994 265.400013 A 16.299999 16.299999 0 0 1 232.699993 281.700012 Z" id="XMLID_6497_" class="st5" style="fill: rgb(222, 221, 221);"/>
					</g>
				</g>
				<g id="XMLID_87_">
					<g id="XMLID_118_">
						<path id="XMLID_6492_" class="st3" d="M216.4,298.9c-9.5,0-17.2-7.7-17.2-17.2c0-9.5,7.7-17.2,17.2-17.2&#10;&#9;&#9;&#9;&#9;&#9;&#9;&#9;c9.5,0,17.2,7.7,17.2,17.2C233.6,291.2,225.9,298.9,216.4,298.9z M216.4,266.4c-8.5,0-15.3,6.9-15.3,15.3&#10;&#9;&#9;&#9;&#9;&#9;&#9;&#9;c0,8.5,6.9,15.3,15.3,15.3c8.5,0,15.3-6.9,15.3-15.3C231.7,273.3,224.8,266.4,216.4,266.4z" style="fill: rgb(35, 34, 34);"/>
					</g>
				</g>
				<g id="XMLID_86_">
					<g id="XMLID_145_">
						<path id="XMLID_6489_" class="st3" d="M216.4,255.5c-14.5,0-26.2,11.7-26.2,26.2v8.7l6.7,0c-1.2-2.7-1.8-5.6-1.8-8.7&#10;&#9;&#9;&#9;&#9;&#9;&#9;&#9;c0-11.8,9.6-21.3,21.3-21.3c11.8,0,21.3,9.6,21.3,21.3c0,3.1-0.7,6.1-1.9,8.7l6.7,0v-8.8C242.6,267.3,230.8,255.5,216.4,255.5&#10;&#9;&#9;&#9;&#9;&#9;&#9;&#9;z" style="fill: rgb(35, 34, 34);"/>
					</g>
				</g>
				<g id="XMLID_85_">
					<g id="XMLID_144_">
						<path d="M 424.600006 282.5 A 20.5 20.5 0 0 1 404.100006 303 A 20.5 20.5 0 0 1 383.600006 282.5 A 20.5 20.5 0 0 1 404.100006 262 A 20.5 20.5 0 0 1 424.600006 282.5 Z" id="XMLID_6486_" class="st3" style="fill: rgb(35, 34, 34);"/>
					</g>
				</g>
				<g id="XMLID_84_">
					<g id="XMLID_115_">
						<path id="XMLID_6481_" class="st3" d="M404.1,304.7c-12.2,0-22.2-9.9-22.2-22.2s9.9-22.2,22.2-22.2c12.2,0,22.2,9.9,22.2,22.2&#10;&#9;&#9;&#9;&#9;&#9;&#9;&#9;S416.3,304.7,404.1,304.7z M404.1,263.7c-10.4,0-18.9,8.5-18.9,18.9s8.5,18.9,18.9,18.9c10.4,0,18.9-8.5,18.9-18.9&#10;&#9;&#9;&#9;&#9;&#9;&#9;&#9;S414.5,263.7,404.1,263.7z" style="fill: rgb(35, 34, 34);"/>
					</g>
				</g>
				<g id="XMLID_83_">
					<g id="XMLID_143_">
						<path id="XMLID_6478_" class="st3" d="M424.4,285.7c0.1-0.1,0.2-0.1,0.4-0.1c1.5,0,3-0.1,4.5,0.1v-3.1&#10;&#9;&#9;&#9;&#9;&#9;&#9;&#9;c0-13.9-11.3-25.2-25.2-25.2c-13.9,0-25.2,11.3-25.2,25.2v8.3l6.4,0c-1.1-2.6-1.8-5.4-1.8-8.4c0-11.3,9.2-20.5,20.5-20.5&#10;&#9;&#9;&#9;&#9;&#9;&#9;&#9;c11.3,0,20.5,9.2,20.5,20.5C424.6,283.6,424.5,284.7,424.4,285.7z" style="fill: rgb(35, 34, 34);"/>
					</g>
				</g>
				<g id="XMLID_82_">
					<g id="XMLID_114_">
						<path id="XMLID_6475_" class="st3" d="M338.9,284.9c-7.4,0-13.2-0.3-13.7-0.3l-75.2,0.2l-0.3-0.2c-0.2-0.2-2.4-2.4-3.5-12&#10;&#9;&#9;&#9;&#9;&#9;&#9;&#9;c-0.6-5.7-0.6-11.2-0.6-15.5c0-2.9,0-5.4-0.2-7.3c-0.5-5,1.4-12.4,1.4-12.7l1.8,0.5c0,0.1-1.8,7.4-1.4,12.1&#10;&#9;&#9;&#9;&#9;&#9;&#9;&#9;c0.2,2,0.2,4.6,0.2,7.5c0,4.3,0,9.7,0.6,15.3c0.8,7.1,2.2,9.8,2.7,10.5l74.4-0.2l0,0c17.1,0.8,43.5,0.3,46.5-4.4&#10;&#9;&#9;&#9;&#9;&#9;&#9;&#9;c1.5-2.4,2.2-4.6,3.1-7.2c1.6-4.8,3.4-10.3,10.4-18c10.3-11.4,5.7-21.7-0.9-31.2c-6.7-9.7-9.2-13.3-9.2-13.3l1.5-1.1&#10;&#9;&#9;&#9;&#9;&#9;&#9;&#9;c0,0,2.5,3.6,9.2,13.3c6.7,9.6,12,21.1,0.7,33.5c-6.8,7.5-8.5,12.7-10,17.4c-0.9,2.6-1.7,5.1-3.3,7.7c-0.7,1.2-3,4.7-26.1,5.4&#10;&#9;&#9;&#9;&#9;&#9;&#9;&#9;C344.4,284.8,341.5,284.9,338.9,284.9z" style="fill: rgb(35, 34, 34);"/>
					</g>
				</g>
				<g id="XMLID_81_">
					<g id="XMLID_113_">
						<path id="XMLID_6472_" class="st3" d="M324.4,284c-0.2-0.6-5.2-15.3-3.9-28.5c1-10.6,1-12.5,0.9-14.2c0-0.4,0-0.8,0-1.3&#10;&#9;&#9;&#9;&#9;&#9;&#9;&#9;c0-2.6,1.8-7.9,2.1-8.7l3.7-27.2l1.9,0.3l-3.7,27.4l0,0.1c0,0.1-2,5.7-2,8.1c0,0.5,0,0.9,0,1.3c0.1,1.8,0.1,3.7-0.9,14.4&#10;&#9;&#9;&#9;&#9;&#9;&#9;&#9;c-1.3,12.8,3.8,27.6,3.8,27.7L324.4,284z" style="fill: rgb(35, 34, 34);"/>
					</g>
				</g>
				<g id="XMLID_80_">
					<g id="XMLID_110_">
						<path id="XMLID_6467_" class="st3" d="M230,240.3c-1.1,0-1.7-0.1-2-0.2c-0.5-0.2-0.9-0.6-0.9-1.2c-0.1-1.3,1.2-3,17.3-11.7&#10;&#9;&#9;&#9;&#9;&#9;&#9;&#9;c10.1-5.4,36.3-16.9,53.7-20.2c14.7-2.8,37-5.5,59.8-2.9c19.3,2.2,38.8,7.2,46.4,10.7c0.8,0.4,1.4,1.1,1.6,1.9&#10;&#9;&#9;&#9;&#9;&#9;&#9;&#9;c0.2,0.9,0,1.8-0.5,2.4l-4.9,6.2c-1,1.2-2.4,2-4,2c-8,0.3-49.5,2.2-86.3,5.8l-7.5,0.7C259.2,238.2,236.6,240.3,230,240.3z&#10;&#9;&#9;&#9;&#9;&#9;&#9;&#9; M229.5,238.4c5.8,0.1,40-3.1,73.1-6.3l7.5-0.7c35.9-3.4,75.2-5.3,86.4-5.8c1,0,2-0.5,2.6-1.3l4.9-6.2&#10;&#9;&#9;&#9;&#9;&#9;&#9;&#9;c0.2-0.2,0.3-0.5,0.2-0.8c-0.1-0.3-0.3-0.5-0.5-0.7c-7.5-3.4-26.7-8.3-45.9-10.5c-22.6-2.6-44.7,0.1-59.2,2.9&#10;&#9;&#9;&#9;&#9;&#9;&#9;&#9;c-17.2,3.3-43.1,14.6-53.2,20C234.4,234.8,230.6,237.3,229.5,238.4z" style="fill: rgb(35, 34, 34);"/>
					</g>
				</g>
				<g id="XMLID_79_">
					<g id="XMLID_142_">
						<path id="XMLID_6464_" class="st3" d="M330.3,230.6l1.9-23.9c0,0,20.2-1.6,42.3,3.3c0,0,8.4,11.3,11.5,17.1l2.8-0.1&#10;&#9;&#9;&#9;&#9;&#9;&#9;&#9;c0,0-11.2-18.7-13.8-19.1c-2.5-0.5-25-4.6-44.1-3.6c0,0-2.2-1.4-3.2,2.4c-1.1,3.9-3.3,24.8-3.3,24.8L330.3,230.6z" style="fill: rgb(35, 34, 34);"/>
					</g>
				</g>
				<g id="XMLID_78_">
					<g id="XMLID_141_">
						<path id="XMLID_6461_" class="st3" d="M318.3,231.6l5.2-24.6c0,0-10.3,0.7-23.5,2.7c-13.2,2-36.3,11.4-36.3,11.4l-3.2,16.1&#10;&#9;&#9;&#9;&#9;&#9;&#9;&#9;l-3.9,0.2l2.1-9.9c0,0-8.1,4.1-8.5,6c-0.4,1.9,8.8,0.5,8.8,0.5s-0.2,3.8-4,3.8c-3.9,0.1-25.4,1.5-25.4,1.5s-3.3-1.5,10.1-8.3&#10;&#9;&#9;&#9;&#9;&#9;&#9;&#9;c13.4-6.9,39-19.3,58.8-23c19.8-3.7,29.6-3.8,29.6-3.8l-3.7,27.3L318.3,231.6z" style="fill: rgb(35, 34, 34);"/>
					</g>
				</g>
				<g id="XMLID_75_">
					<g id="XMLID_209_">
						<path id="XMLID_6456_" class="st3" d="M404.5,216.1c-0.9-1.8-19.1-6.1-19.1-6.1l-8.3-1.8c0,0,3.5,6.2,6,10.1&#10;&#9;&#9;&#9;&#9;&#9;&#9;&#9;c2.5,3.9,5.9,8.3,5.9,8.3s4.5,0.1,7-0.2c2.6-0.3,3.7-1.5,5.3-3.5C402.9,220.9,405.5,217.9,404.5,216.1z M399.3,222.3&#10;&#9;&#9;&#9;&#9;&#9;&#9;&#9;c-2.9,2.7-3.1,2.5-4.6,2.4c-1.5,0-3.1-0.3-3.9-1.4c-0.9-1.1-4.1-6.3-4.3-7.5c-0.2-1.2,1-3,4.1-2c0,0,9.6,2.9,10.5,3.6&#10;&#9;&#9;&#9;&#9;&#9;&#9;&#9;C402,218.2,402.1,219.6,399.3,222.3z" style="fill: rgb(35, 34, 34);"/>
					</g>
				</g>
				<g id="XMLID_74_">
					<g id="XMLID_140_">
						<path id="XMLID_6453_" class="st3" d="M276.8,235.5c0,0-1.5-3.1-1.9-4.4s1.2-2.6,2.3-1.1l2.3,4.4L276.8,235.5z" style="fill: rgb(35, 34, 34);"/>
					</g>
				</g>
				<g id="XMLID_73_">
					<g id="XMLID_109_">
						<path id="XMLID_6450_" class="st3" d="M451.3,252.5c-0.1,0-3.1-0.3-5.4-2.1c-1.2-0.9-5.3-5.1-9-9.3c-7.4-8.6-7-10.2-6.8-10.9&#10;&#9;&#9;&#9;&#9;&#9;&#9;&#9;c0.8-2.9,10.7-7.8,13.7-9.3l0.8,1.7c-5.8,2.8-12.3,6.6-12.7,8.1c-0.2,2.2,12.1,16,15,18.2c2,1.5,4.5,1.7,4.5,1.7L451.3,252.5z&#10;&#9;&#9;&#9;&#9;&#9;&#9;&#9;" style="fill: rgb(35, 34, 34);"/>
					</g>
				</g>
				<g id="XMLID_72_">
					<g id="XMLID_108_">
						<path id="XMLID_6447_" class="st3" d="M411.3,260.5l-1.2-1.4c0.8-0.7,7.9-6.6,10.6-7.4c1.3-0.4,4.3-0.5,7.8-0.6&#10;&#9;&#9;&#9;&#9;&#9;&#9;&#9;c3.6-0.1,7.7-0.3,10.3-0.8c1.6-0.3,2.8-0.5,3.6-0.6c1.7-0.2,1.9-0.3,2.8-1.2l1.3,1.4c-1.4,1.3-2,1.4-3.9,1.7&#10;&#9;&#9;&#9;&#9;&#9;&#9;&#9;c-0.8,0.1-1.9,0.3-3.5,0.6c-2.7,0.5-6.9,0.7-10.6,0.8c-3.2,0.1-6.2,0.2-7.3,0.6C419.2,254,413.4,258.7,411.3,260.5z" style="fill: rgb(35, 34, 34);"/>
					</g>
				</g>
				<g id="XMLID_71_">
					<g id="XMLID_105_">
						<path id="XMLID_6442_" class="st3" d="M168.2,258.4c-0.7,0-1.3-0.3-1.7-0.9c-0.5-0.7-0.5-1.5-0.1-2.2v0c2-3.3,6-6.7,9.8-8.2&#10;&#9;&#9;&#9;&#9;&#9;&#9;&#9;c3.1-1.2,23.1-5.4,25.1-4.3c0.8,0.4,1,0.9,1,1.3c0,1.2-1.4,1.8-6.4,4.2l-0.5,0.3c-5.8,2.7-12.4,6.7-12.4,6.7&#10;&#9;&#9;&#9;&#9;&#9;&#9;&#9;c-0.3,0.2-1,0.6-14.5,3.1C168.4,258.4,168.3,258.4,168.2,258.4z M168.1,256.3c0,0-0.1,0.1,0,0.2c0.1,0.1,0.1,0.1,0.2,0.1&#10;&#9;&#9;&#9;&#9;&#9;&#9;&#9;c9.4-1.7,13.3-2.6,13.8-2.9c0,0,6.7-4.1,12.6-6.8l0.5-0.3c1.8-0.8,3.4-1.6,4.3-2.1c-4.3,0.3-19,2.9-22.6,4.4&#10;&#9;&#9;&#9;&#9;&#9;&#9;&#9;C174.1,250,170.1,252.9,168.1,256.3L168.1,256.3z" style="fill: rgb(35, 34, 34);"/>
					</g>
				</g>
				<g id="XMLID_70_">
					<g id="XMLID_139_">
						<path id="XMLID_6439_" class="st3" d="M387,240.2l-14.6,1.3c-0.6,0.1-1.1-0.4-1.1-0.9l-0.1-1c-0.1-0.6,0.4-1.1,0.9-1.1&#10;&#9;&#9;&#9;&#9;&#9;&#9;&#9;l14.6-1.3c0.6-0.1,1.1,0.4,1.1,0.9l0.1,1C387.9,239.6,387.5,240.1,387,240.2z" style="fill: rgb(35, 34, 34);"/>
					</g>
				</g>
				<g id="XMLID_69_">
					<g id="XMLID_138_">
						<path id="XMLID_6436_" class="st3" d="M319.2,246.5l-14.6,1.3c-0.6,0.1-1.1-0.4-1.1-0.9l-0.1-1c-0.1-0.6,0.4-1.1,0.9-1.1&#10;&#9;&#9;&#9;&#9;&#9;&#9;&#9;l14.6-1.3c0.6-0.1,1.1,0.4,1.1,0.9l0.1,1C320.1,246,319.7,246.5,319.2,246.5z" style="fill: rgb(35, 34, 34);"/>
					</g>
				</g>
				<g id="XMLID_62_">
					<g id="XMLID_68_">
						<g id="XMLID_137_">
							<path id="XMLID_6433_" class="st3" d="M215.4,276l-2.7-5.4c-0.2-0.4,0-1,0.5-1.1c2.1-0.5,4.2-0.5,6.4,0&#10;&#9;&#9;&#9;&#9;&#9;&#9;&#9;&#9;c0.5,0.1,0.7,0.6,0.5,1.1l-2.4,5.3c-0.2,0.5-0.7,0.8-1.2,0.8l0,0C216.1,276.7,215.6,276.4,215.4,276z" style="fill: rgb(35, 34, 34);"/>
						</g>
					</g>
					<g id="XMLID_67_">
						<g id="XMLID_136_">
							<path id="XMLID_6430_" class="st3" d="M210.9,279.7l-6-0.3c-0.5,0-0.8-0.5-0.7-1c0.6-2,1.7-3.9,3.2-5.5&#10;&#9;&#9;&#9;&#9;&#9;&#9;&#9;&#9;c0.3-0.4,0.9-0.3,1.2,0.1l3.4,4.7c0.3,0.4,0.3,1,0.1,1.4l0,0C211.9,279.5,211.4,279.7,210.9,279.7z" style="fill: rgb(35, 34, 34);"/>
						</g>
					</g>
					<g id="XMLID_66_">
						<g id="XMLID_135_">
							<path id="XMLID_6427_" class="st3" d="M211.9,285.4l-3.3,5.1c-0.3,0.4-0.9,0.5-1.2,0.1c-1.5-1.5-2.5-3.4-3.2-5.5&#10;&#9;&#9;&#9;&#9;&#9;&#9;&#9;&#9;c-0.1-0.5,0.2-1,0.7-1l5.8-0.6c0.5-0.1,1,0.2,1.2,0.6l0,0C212.2,284.5,212.2,285,211.9,285.4z" style="fill: rgb(35, 34, 34);"/>
						</g>
					</g>
					<g id="XMLID_65_">
						<g id="XMLID_134_">
							<path id="XMLID_6424_" class="st3" d="M217.4,287.5l2.7,5.4c0.2,0.4,0,1-0.5,1.1c-2.1,0.5-4.2,0.5-6.4,0&#10;&#9;&#9;&#9;&#9;&#9;&#9;&#9;&#9;c-0.5-0.1-0.7-0.6-0.5-1.1l2.4-5.3c0.2-0.5,0.7-0.8,1.2-0.8l0,0C216.7,286.8,217.1,287,217.4,287.5z" style="fill: rgb(35, 34, 34);"/>
						</g>
					</g>
					<g id="XMLID_64_">
						<g id="XMLID_133_">
							<path id="XMLID_6421_" class="st3" d="M221.8,283.8l6,0.3c0.5,0,0.8,0.5,0.7,1c-0.6,2-1.7,3.9-3.2,5.5&#10;&#9;&#9;&#9;&#9;&#9;&#9;&#9;&#9;c-0.3,0.4-0.9,0.3-1.2-0.1l-3.4-4.7c-0.3-0.4-0.3-1-0.1-1.4l0,0C220.9,284,221.4,283.7,221.8,283.8z" style="fill: rgb(35, 34, 34);"/>
						</g>
					</g>
					<g id="XMLID_63_">
						<g id="XMLID_132_">
							<path id="XMLID_6418_" class="st3" d="M220.9,278l3.3-5.1c0.3-0.4,0.9-0.5,1.2-0.1c1.5,1.5,2.5,3.4,3.2,5.5&#10;&#9;&#9;&#9;&#9;&#9;&#9;&#9;&#9;c0.1,0.5-0.2,1-0.7,1l-5.8,0.6c-0.5,0.1-1-0.2-1.2-0.6l0,0C220.6,278.9,220.6,278.4,220.9,278z" style="fill: rgb(35, 34, 34);"/>
						</g>
					</g>
				</g>
				<g id="XMLID_61_">
					<g id="XMLID_102_">
						<path id="XMLID_6412_" class="st3" d="M216.4,284.7c-1.6,0-3-1.3-3-3c0-1.6,1.3-3,3-3c1.6,0,3,1.3,3,3&#10;&#9;&#9;&#9;&#9;&#9;&#9;&#9;C219.4,283.4,218,284.7,216.4,284.7z M216.4,280.6c-0.6,0-1.1,0.5-1.1,1.1c0,0.6,0.5,1.1,1.1,1.1c0.6,0,1.1-0.5,1.1-1.1&#10;&#9;&#9;&#9;&#9;&#9;&#9;&#9;C217.5,281.1,217,280.6,216.4,280.6z" style="fill: rgb(35, 34, 34);"/>
					</g>
				</g>
				<g id="XMLID_60_">
					<g id="XMLID_131_">
						<path d="M 420.000006 282.5 A 15.9 15.9 0 0 1 404.100006 298.4 A 15.9 15.9 0 0 1 388.200006 282.5 A 15.9 15.9 0 0 1 404.100006 266.6 A 15.9 15.9 0 0 1 420.000006 282.5 Z" id="XMLID_6409_" class="st4" style="fill: rgb(255, 255, 255);"/>
					</g>
				</g>
				<g id="XMLID_59_">
					<g id="XMLID_99_">
						<path id="XMLID_6404_" class="st3" d="M404.1,299.4c-9.3,0-16.8-7.5-16.8-16.8c0-9.3,7.5-16.8,16.8-16.8&#10;&#9;&#9;&#9;&#9;&#9;&#9;&#9;c9.3,0,16.8,7.5,16.8,16.8C420.9,291.8,413.4,299.4,404.1,299.4z M404.1,267.6c-8.2,0-14.9,6.7-14.9,14.9&#10;&#9;&#9;&#9;&#9;&#9;&#9;&#9;c0,8.2,6.7,14.9,14.9,14.9c8.2,0,14.9-6.7,14.9-14.9C419,274.3,412.3,267.6,404.1,267.6z" style="fill: rgb(35, 34, 34);"/>
					</g>
				</g>
				<g id="XMLID_51_">
					<g id="XMLID_58_">
						<g id="XMLID_130_">
							<path id="XMLID_6401_" class="st3" d="M403.1,276.9l-2.7-5.3c-0.2-0.4,0-1,0.5-1.1c2-0.5,4.1-0.4,6.2,0&#10;&#9;&#9;&#9;&#9;&#9;&#9;&#9;&#9;c0.5,0.1,0.7,0.6,0.5,1l-2.3,5.2c-0.2,0.5-0.7,0.7-1.1,0.7l0,0C403.8,277.6,403.4,277.4,403.1,276.9z" style="fill: rgb(35, 34, 34);"/>
						</g>
					</g>
					<g id="XMLID_57_">
						<g id="XMLID_129_">
							<path id="XMLID_6398_" class="st3" d="M398.8,280.6l-5.9-0.3c-0.5,0-0.8-0.5-0.7-1c0.6-2,1.7-3.8,3.1-5.4&#10;&#9;&#9;&#9;&#9;&#9;&#9;&#9;&#9;c0.3-0.4,0.9-0.3,1.2,0.1l3.4,4.6c0.3,0.4,0.3,0.9,0.1,1.4l0,0C399.7,280.3,399.2,280.6,398.8,280.6z" style="fill: rgb(35, 34, 34);"/>
						</g>
					</g>
					<g id="XMLID_56_">
						<g id="XMLID_128_">
							<path id="XMLID_6395_" class="st3" d="M399.7,286.2l-3.2,5c-0.3,0.4-0.8,0.5-1.2,0.1c-1.4-1.5-2.4-3.3-3.1-5.4&#10;&#9;&#9;&#9;&#9;&#9;&#9;&#9;&#9;c-0.1-0.5,0.2-0.9,0.6-1l5.7-0.6c0.5-0.1,1,0.2,1.2,0.6l0,0C400,285.3,400,285.8,399.7,286.2z" style="fill: rgb(35, 34, 34);"/>
						</g>
					</g>
					<g id="XMLID_55_">
						<g id="XMLID_127_">
							<path id="XMLID_6392_" class="st3" d="M405,288.1l2.7,5.3c0.2,0.4,0,1-0.5,1.1c-2,0.5-4.1,0.4-6.2,0c-0.5-0.1-0.7-0.6-0.5-1&#10;&#9;&#9;&#9;&#9;&#9;&#9;&#9;&#9;l2.3-5.2c0.2-0.5,0.7-0.7,1.1-0.7l0,0C404.4,287.5,404.8,287.7,405,288.1z" style="fill: rgb(35, 34, 34);"/>
						</g>
					</g>
					<g id="XMLID_54_">
						<g id="XMLID_125_">
							<path id="XMLID_6389_" class="st3" d="M409.4,284.5l5.9,0.3c0.5,0,0.8,0.5,0.7,1c-0.6,2-1.7,3.8-3.1,5.4&#10;&#9;&#9;&#9;&#9;&#9;&#9;&#9;&#9;c-0.3,0.4-0.9,0.3-1.2-0.1l-3.4-4.6c-0.3-0.4-0.3-0.9-0.1-1.4l0,0C408.5,284.7,408.9,284.5,409.4,284.5z" style="fill: rgb(35, 34, 34);"/>
						</g>
					</g>
					<g id="XMLID_52_">
						<g id="XMLID_53_">
							<path id="XMLID_6386_" class="st3" d="M408.5,278.9l3.2-5c0.3-0.4,0.8-0.5,1.2-0.1c1.4,1.5,2.4,3.3,3.1,5.4&#10;&#9;&#9;&#9;&#9;&#9;&#9;&#9;&#9;c0.1,0.5-0.2,0.9-0.6,1l-5.7,0.6c-0.5,0.1-1-0.2-1.2-0.6l0,0C408.2,279.8,408.2,279.3,408.5,278.9z" style="fill: rgb(35, 34, 34);"/>
						</g>
					</g>
				</g>
				<g id="XMLID_93_">
					<g id="XMLID_96_">
						<path id="XMLID_6380_" class="st3" d="M404.1,285.5c-1.6,0-2.9-1.3-2.9-2.9c0-1.6,1.3-2.9,2.9-2.9c1.6,0,2.9,1.3,2.9,2.9&#10;&#9;&#9;&#9;&#9;&#9;&#9;&#9;C407,284.2,405.7,285.5,404.1,285.5z M404.1,281.5c-0.6,0-1,0.5-1,1s0.5,1,1,1c0.6,0,1-0.5,1-1S404.7,281.5,404.1,281.5z" style="fill: rgb(35, 34, 34);"/>
					</g>
				</g>
				<g id="XMLID_94_">
					<g id="XMLID_95_">
						<path id="XMLID_6375_" class="st3" d="M418.6,248.2c-3.2,0-5.7-2.6-5.7-5.7c0-3.2,2.6-5.7,5.7-5.7c3.2,0,5.7,2.6,5.7,5.7&#10;&#9;&#9;&#9;&#9;&#9;&#9;&#9;C424.3,245.6,421.8,248.2,418.6,248.2z M418.6,238.5c-2.1,0-3.9,1.7-3.9,3.9c0,2.1,1.7,3.9,3.9,3.9c2.1,0,3.9-1.7,3.9-3.9&#10;&#9;&#9;&#9;&#9;&#9;&#9;&#9;C422.5,240.3,420.7,238.5,418.6,238.5z" style="fill: rgb(35, 34, 34);"/>
					</g>
				</g>
			</g>
		</g>
		<g id="XMLID_175_">
			<g id="XMLID_179_">
				<path id="XMLID_6370_" class="st3" d="M383.3,295.5c4.5,7.1,12.4,11.5,20.7,11.5c10.1,0,19.3-6.4,22.9-15.9l0.6-1.5l15.5-0.5&#10;&#9;&#9;&#9;&#9;&#9;c2.9-0.1,5.8-1,8.2-2.5c1.4-0.9,2.8-1.7,4.1-2.3c3.7-1.8,6-5.5,6-9.5v-8c0-4.4-1.6-8.7-4.4-12.1c-0.9-1.1-1.5-2.1-1.7-3&#10;&#9;&#9;&#9;&#9;&#9;c-1.5-6.1-5-21.1-5.4-24l0-0.4l0.1-0.4c0.2-0.8,0.7-2.1,1-2.8l1.9-3.7l-3.9-1.5c-0.6-0.2-56.9-21.4-97.4-23&#10;&#9;&#9;&#9;&#9;&#9;c-4.2-0.2-8.3-0.3-12.3-0.3c-13.5,0-25.1,1.1-35.4,2.8v96.1h78.7L383.3,295.5z" style="fill: rgb(35, 34, 34);"/>
			</g>
		</g>
		<g id="XMLID_150_">
			<path id="XMLID_1539_" class="st3" d="M308.5,441.4c-9.4,0-18.8-1.5-27.8-4.5l-140.5-46.7c-12.6-4.2-22.2-14.3-25.8-27&#10;&#9;&#9;&#9;&#9;L70.7,208.1c-3.1-10.9-1.3-22.6,4.7-32.1c6-9.5,15.9-16.1,27-18l199.4-33.7c4.4-0.7,8.9-0.7,13.3,0L514.5,158&#10;&#9;&#9;&#9;&#9;c11.1,1.9,21,8.4,27,18c6,9.5,7.8,21.2,4.7,32.1l-43.6,155.1c-3.6,12.7-13.2,22.9-25.8,27L336.3,437&#10;&#9;&#9;&#9;&#9;C327.3,439.9,317.9,441.4,308.5,441.4z M303.6,134.5l-199.4,33.7c-8.2,1.4-15.5,6.3-20,13.3c-4.5,7.1-5.7,15.7-3.5,23.8&#10;&#9;&#9;&#9;&#9;l43.6,155.1c2.7,9.4,9.8,16.9,19.1,20l140.5,46.7c15.8,5.3,33.3,5.3,49.1,0l140.5-46.7c9.3-3.1,16.5-10.6,19.1-20l43.6-155.1&#10;&#9;&#9;&#9;&#9;c2.3-8.1,1-16.7-3.5-23.8c-4.5-7.1-11.8-11.9-20-13.3l-199.4-33.7C310.2,133.9,306.8,133.9,303.6,134.5L303.6,134.5z" style="fill: rgb(35, 34, 34);"/>
		</g>
		<g id="XMLID_152_">
			<path id="XMLID_1536_" class="st3" d="M308.5,422.3c-7.4,0-14.7-1.2-21.8-3.5L146.2,372c-6.5-2.2-11.5-7.4-13.4-14L89.2,202.9&#10;&#9;&#9;&#9;&#9;c-1.6-5.7-0.7-11.6,2.4-16.7c3.2-5,8.2-8.3,14-9.3L305,143.2c2.3-0.4,4.6-0.4,6.9,0L511.3,177c5.9,1,10.8,4.3,14,9.3&#10;&#9;&#9;&#9;&#9;c3.2,5,4,10.9,2.4,16.7L484.2,358c-1.9,6.6-6.9,11.9-13.4,14l-140.5,46.7C323.2,421.1,315.9,422.3,308.5,422.3z M308.5,150.3&#10;&#9;&#9;&#9;&#9;c-0.7,0-1.5,0.1-2.2,0.2l-199.4,33.7c-3.8,0.6-7,2.8-9,6c-2,3.2-2.6,7-1.6,10.7L139.9,356c1.2,4.3,4.4,7.6,8.6,9l140.5,46.7&#10;&#9;&#9;&#9;&#9;c12.6,4.2,26.3,4.2,38.9,0L468.5,365c4.2-1.4,7.4-4.8,8.6-9l43.6-155.1c1-3.7,0.5-7.5-1.6-10.7c-2-3.2-5.2-5.4-9-6l-199.4-33.7&#10;&#9;&#9;&#9;&#9;C310,150.4,309.2,150.3,308.5,150.3z" style="fill: rgb(35, 34, 34);"/>
		</g>
		<g id="XMLID_153_">
			<g id="XMLID_154_">
				<g id="XMLID_171_">
					<path id="XMLID_6359_" class="st3" d="M318.2,300h-19.4c-2,0-3.6-1.6-3.6-3.6v-131c0-1.9,1.5-3.4,3.4-3.4h19.7&#10;&#9;&#9;&#9;&#9;&#9;&#9;c1.9,0,3.4,1.5,3.4,3.4v131C321.8,298.4,320.2,300,318.2,300z" style="fill: rgb(35, 34, 34);"/>
				</g>
				<g id="XMLID_155_">
					<g id="XMLID_170_">
						<path d="M 321.79998779296875 291 L 304 287 L 321.79998779296875 293 Z" id="XMLID_6357_" class="st4" style="fill: rgb(255, 255, 255);"/>
					</g>
					<g id="XMLID_169_">
						<path d="M 321.79998779296875 282.3999938964844 L 304 278.3999938964844 L 321.79998779296875 284.3999938964844 Z" id="XMLID_6355_" class="st4" style="fill: rgb(255, 255, 255);"/>
					</g>
					<g id="XMLID_168_">
						<path d="M 321.79998779296875 273.79998779296875 L 304 269.79998779296875 L 321.79998779296875 275.79998779296875 Z" id="XMLID_6353_" class="st4" style="fill: rgb(255, 255, 255);"/>
					</g>
					<g id="XMLID_167_">
						<path d="M 321.79998779296875 265.20001220703125 L 304 261.20001220703125 L 321.79998779296875 267.1000061035156 Z" id="XMLID_6351_" class="st4" style="fill: rgb(255, 255, 255);"/>
					</g>
					<g id="XMLID_166_">
						<path d="M 321.79998779296875 256.6000061035156 L 304 252.5 L 321.79998779296875 258.5 Z" id="XMLID_6349_" class="st4" style="fill: rgb(255, 255, 255);"/>
					</g>
					<g id="XMLID_165_">
						<path d="M 321.79998779296875 248 L 304 243.89999389648438 L 321.79998779296875 249.89999389648438 Z" id="XMLID_6347_" class="st4" style="fill: rgb(255, 255, 255);"/>
					</g>
					<g id="XMLID_164_">
						<path d="M 321.79998779296875 239.3000030517578 L 304 235.3000030517578 L 321.79998779296875 241.3000030517578 Z" id="XMLID_6345_" class="st4" style="fill: rgb(255, 255, 255);"/>
					</g>
					<g id="XMLID_163_">
						<path d="M 321.79998779296875 230.6999969482422 L 304 226.6999969482422 L 321.79998779296875 232.6999969482422 Z" id="XMLID_6343_" class="st4" style="fill: rgb(255, 255, 255);"/>
					</g>
					<g id="XMLID_162_">
						<path d="M 321.79998779296875 222.10000610351562 L 304 218.10000610351562 L 321.79998779296875 224.10000610351562 Z" id="XMLID_6341_" class="st4" style="fill: rgb(255, 255, 255);"/>
					</g>
					<g id="XMLID_161_">
						<path d="M 321.79998779296875 213.5 L 304 209.5 L 321.79998779296875 215.5 Z" id="XMLID_6339_" class="st4" style="fill: rgb(255, 255, 255);"/>
					</g>
					<g id="XMLID_160_">
						<path d="M 321.79998779296875 204.89999389648438 L 304 200.89999389648438 L 321.79998779296875 206.8000030517578 Z" id="XMLID_6337_" class="st4" style="fill: rgb(255, 255, 255);"/>
					</g>
					<g id="XMLID_159_">
						<path d="M 321.79998779296875 196.3000030517578 L 304 192.1999969482422 L 321.79998779296875 198.1999969482422 Z" id="XMLID_6335_" class="st4" style="fill: rgb(255, 255, 255);"/>
					</g>
					<g id="XMLID_158_">
						<path d="M 321.79998779296875 187.6999969482422 L 304 183.60000610351562 L 321.79998779296875 189.60000610351562 Z" id="XMLID_6333_" class="st4" style="fill: rgb(255, 255, 255);"/>
					</g>
					<g id="XMLID_157_">
						<path d="M 321.79998779296875 179 L 304 175 L 321.79998779296875 181 Z" id="XMLID_6331_" class="st4" style="fill: rgb(255, 255, 255);"/>
					</g>
					<g id="XMLID_156_">
						<path d="M 321.79998779296875 170.39999389648438 L 304 166.39999389648438 L 321.79998779296875 172.39999389648438 Z" id="XMLID_6329_" class="st4" style="fill: rgb(255, 255, 255);"/>
					</g>
				</g>
			</g>
			<g id="XMLID_172_">
				<path d="M 305 294.100006 H 312.1 V 310.400005 H 305 V 294.100006 Z" id="XMLID_6325_" class="st3" style="fill: rgb(35, 34, 34);"/>
			</g>
			<g id="XMLID_173_">
				<path d="M 305 148.5 H 312.1 V 162.3 H 305 V 148.5 Z" id="XMLID_6323_" class="st3" style="fill: rgb(35, 34, 34);"/>
			</g>
		</g>
		
		<g id="XMLID_197_">
			<path d="M 308.5 381.5 L 311.20001220703125 389.79998779296875 L 320 389.79998779296875 L 312.8999938964844 395 L 315.6000061035156 403.3999938964844 L 308.5 398.20001220703125 L 301.3999938964844 403.3999938964844 L 304.1000061035156 395 L 297 389.79998779296875 L 305.79998779296875 389.79998779296875 Z" id="XMLID_6295_" class="st4" style="fill: rgb(255, 255, 255);"/>
		</g>
	</g>
<path d="M 15.020000457763672 18.389999389648438 C 14.533333778381348 18.389999389648438 14.09666633605957 18.303333282470703 13.710000038146973 18.1299991607666 C 13.329999923706055 17.956666946411133 13.006667137145996 17.726667404174805 12.739999771118164 17.440000534057617 C 12.479999542236328 17.14666748046875 12.25 16.760000228881836 12.050000190734863 16.280000686645508 C 11.84333324432373 15.793333053588867 11.676666259765625 15.286666870117188 11.550000190734863 14.760000228881836 C 11.423333168029785 14.233333587646484 11.293333053588867 13.59333324432373 11.15999984741211 12.84000015258789 C 11.079999923706055 12.373332977294922 10.953332901000977 11.956666946411133 10.779999732971191 11.59000015258789 C 10.606666564941406 11.223333358764648 10.426666259765625 10.94333267211914 10.239999771118164 10.75 C 10.046667098999023 10.550000190734863 9.84333324432373 10.386667251586914 9.630000114440918 10.260000228881836 C 9.423333168029785 10.133333206176758 9.25 10.050000190734863 9.109999656677246 10.010000228881836 C 8.976666450500488 9.976666450500488 8.863333702087402 9.960000038146973 8.770000457763672 9.960000038146973 L 6 9.960000038146973 L 6 16.31999969482422 L 8.65999984741211 16.31999969482422 L 8.65999984741211 18 L 0.38999998569488525 18 L 0.38999998569488525 16.31999969482422 L 3.2300000190734863 16.31999969482422 L 3.2300000190734863 2.0399999618530273 L 0.38999998569488525 2.0399999618530273 L 0.38999998569488525 0.3600006103515625 L 7.130000114440918 0.3600006103515625 C 7.7833333015441895 0.3600006103515625 8.306666374206543 0.36333274841308594 8.699999809265137 0.37000083923339844 C 9.09333324432373 0.3833332061767578 9.623332977294922 0.4200000762939453 10.289999961853027 0.4799995422363281 C 10.956666946411133 0.5400009155273438 11.49666690826416 0.6266670227050781 11.90999984741211 0.7399997711181641 C 12.323333740234375 0.85333251953125 12.779999732971191 1.0233325958251953 13.279999732971191 1.25 C 13.786666870117188 1.4766674041748047 14.183333396911621 1.75 14.470000267028809 2.0699996948242188 C 14.763333320617676 2.390000343322754 15.010000228881836 2.8000001907348633 15.210000038146973 3.3000001907348633 C 15.40333366394043 3.8000001907348633 15.5 4.373332977294922 15.5 5.020000457763672 C 15.5 5.706666946411133 15.393333435058594 6.303333282470703 15.180000305175781 6.810000419616699 C 14.960000038146973 7.323333740234375 14.640000343322754 7.743332862854004 14.220000267028809 8.069999694824219 C 13.800000190734863 8.40333366394043 13.34666633605957 8.670000076293945 12.859999656677246 8.869999885559082 C 12.373332977294922 9.063333511352539 11.796667098999023 9.226666450500488 11.130000114440918 9.359999656677246 C 11.576666831970215 9.453332901000977 11.953332901000977 9.583333015441895 12.260000228881836 9.75 C 12.573333740234375 9.916666984558105 12.833333015441895 10.133333206176758 13.039999961853027 10.399999618530273 C 13.24666690826416 10.666666030883789 13.40999984741211 10.946666717529297 13.529999732971191 11.239999771118164 C 13.649999618530273 11.533332824707031 13.773333549499512 11.90666675567627 13.899999618530273 12.360000610351562 C 13.966666221618652 12.619999885559082 14.043333053588867 12.940000534057617 14.130000114440918 13.319999694824219 C 14.210000038146973 13.699999809265137 14.276666641235352 14.013333320617676 14.329999923706055 14.260000228881836 C 14.376667022705078 14.513333320617676 14.446666717529297 14.779999732971191 14.539999961853027 15.059999465942383 C 14.626667022705078 15.34666633605957 14.720000267028809 15.573333740234375 14.819999694824219 15.739999771118164 C 14.91333293914795 15.899999618530273 15.039999961853027 16.036666870117188 15.199999809265137 16.149999618530273 C 15.353333473205566 16.26333236694336 15.533333778381348 16.31999969482422 15.739999771118164 16.31999969482422 C 16.546667098999023 16.31999969482422 16.950000762939453 15.583333015441895 16.950000762939453 14.109999656677246 L 16.950000762939453 12.479999542236328 L 18.530000686645508 12.479999542236328 L 18.530000686645508 14.199999809265137 C 18.530000686645508 16.99333381652832 17.360000610351562 18.389999389648438 15.020000457763672 18.389999389648438 M 6 8.199999809265137 L 7.460000038146973 8.199999809265137 C 8.680000305175781 8.199999809265137 9.686666488647461 8.113333702087402 10.479999542236328 7.939999580383301 C 11.273333549499512 7.766666412353516 11.896666526794434 7.453332901000977 12.350000381469727 7 C 12.803333282470703 6.553333282470703 13.029999732971191 5.9633331298828125 13.029999732971191 5.229999542236328 C 13.029999732971191 4.59666633605957 12.916666984558105 4.073333740234375 12.6899995803833 3.6599998474121094 C 12.463333129882812 3.24666690826416 12.103333473205566 2.9200000762939453 11.609999656677246 2.6800003051757812 C 11.123332977294922 2.439999580383301 10.543333053588867 2.2733335494995117 9.869999885559082 2.1800003051757812 C 9.203332901000977 2.086667060852051 8.369999885559082 2.0399999618530273 7.369999885559082 2.0399999618530273 L 6 2.0399999618530273 L 6 8.199999809265137 ZM 22.173046112060547 10.280000686645508 L 28.55304718017578 10.280000686645508 C 28.51971435546875 9.146666526794434 28.209712982177734 8.229999542236328 27.623046875 7.529999732971191 C 27.029712677001953 6.829999923706055 26.306381225585938 6.479999542236328 25.453046798706055 6.479999542236328 C 24.599714279174805 6.479999542236328 23.863046646118164 6.829999923706055 23.243045806884766 7.529999732971191 C 22.623046875 8.229999542236328 22.266380310058594 9.146666526794434 22.173046112060547 10.280000686645508 M 19.413047790527344 11.869999885559082 C 19.413047790527344 11.170000076293945 19.4930477142334 10.486666679382324 19.653047561645508 9.819999694824219 C 19.819713592529297 9.15333366394043 20.069713592529297 8.536666870117188 20.403047561645508 7.970000267028809 C 20.7430477142334 7.396666526794434 21.146379470825195 6.896666526794434 21.613046646118164 6.470000267028809 C 22.079713821411133 6.0366668701171875 22.639713287353516 5.699999809265137 23.293046951293945 5.460000038146973 C 23.939712524414062 5.2133331298828125 24.63637924194336 5.090000152587891 25.383047103881836 5.090000152587891 C 26.183046340942383 5.090000152587891 26.926380157470703 5.229999542236328 27.613046646118164 5.510000228881836 C 28.299713134765625 5.789999961853027 28.903045654296875 6.196666717529297 29.423046112060547 6.729999542236328 C 29.93638038635254 7.270000457763672 30.34638023376465 7.949999809265137 30.653045654296875 8.770000457763672 C 30.953046798706055 9.59666633605957 31.113046646118164 10.520000457763672 31.133047103881836 11.539999961853027 L 22.093046188354492 11.539999961853027 L 22.093046188354492 11.639999389648438 C 22.093046188354492 12.30666732788086 22.166379928588867 12.930000305175781 22.313047409057617 13.510000228881836 C 22.453046798706055 14.09000015258789 22.669713973999023 14.609999656677246 22.96304702758789 15.069999694824219 C 23.249713897705078 15.529999732971191 23.633047103881836 15.893333435058594 24.113046646118164 16.15999984741211 C 24.593048095703125 16.426666259765625 25.146381378173828 16.559999465942383 25.773046493530273 16.559999465942383 C 26.586380004882812 16.559999465942383 27.349712371826172 16.30666732788086 28.063047409057617 15.800000190734863 C 28.77638053894043 15.293333053588867 29.25971221923828 14.576666831970215 29.513046264648438 13.649999618530273 L 30.883047103881836 14.09000015258789 C 30.57638168334961 15.376667022705078 29.956378936767578 16.40333366394043 29.023046493530273 17.170000076293945 C 28.083045959472656 17.93666648864746 26.916379928588867 18.31999969482422 25.523046493530273 18.31999969482422 C 24.569713592529297 18.31999969482422 23.69971466064453 18.136667251586914 22.913047790527344 17.770000457763672 C 22.126380920410156 17.40999984741211 21.479713439941406 16.9233341217041 20.973047256469727 16.309999465942383 C 20.473047256469727 15.703332901000977 20.086380004882812 15.020000457763672 19.813047409057617 14.260000228881836 C 19.5463809967041 13.49333381652832 19.413047790527344 12.696666717529297 19.413047790527344 11.869999885559082 ZM 42.434288024902344 11.539999961853027 C 42.434288024902344 10.680000305175781 42.317623138427734 9.883333206176758 42.08428955078125 9.149999618530273 C 41.85762405395508 8.40999984741211 41.50095748901367 7.796667098999023 41.01428985595703 7.310000419616699 C 40.52762222290039 6.816666603088379 39.964290618896484 6.569999694824219 39.32429122924805 6.569999694824219 C 38.39095687866211 6.569999694824219 37.63095474243164 7.056666374206543 37.044288635253906 8.029999732971191 C 36.45762252807617 9.00333309173584 36.16429138183594 10.25 36.16429138183594 11.770000457763672 C 36.16429138183594 12.396666526794434 36.22428894042969 13.010000228881836 36.34429168701172 13.610000610351562 C 36.464290618896484 14.203332901000977 36.644290924072266 14.760000228881836 36.8842887878418 15.279999732971191 C 37.124290466308594 15.793333053588867 37.454288482666016 16.206666946411133 37.874290466308594 16.520000457763672 C 38.294288635253906 16.83333396911621 38.77762222290039 16.989999771118164 39.32429122924805 16.989999771118164 C 39.864288330078125 16.989999771118164 40.34095764160156 16.829999923706055 40.75428771972656 16.510000228881836 C 41.16762161254883 16.190000534057617 41.4909553527832 15.760000228881836 41.72428894042969 15.220000267028809 C 41.964290618896484 14.680000305175781 42.14095687866211 14.100000381469727 42.25428771972656 13.479999542236328 C 42.374290466308594 12.860000610351562 42.434288024902344 12.213333129882812 42.434288024902344 11.539999961853027 M 36.25428771972656 7.439999580383301 C 36.67428970336914 6.673333168029785 37.21095657348633 6.090000152587891 37.864288330078125 5.689999580383301 C 38.51762390136719 5.289999961853027 39.25428771972656 5.090000152587891 40.07428741455078 5.090000152587891 C 41.054290771484375 5.090000152587891 41.93095779418945 5.383333206176758 42.704288482666016 5.970000267028809 C 43.477622985839844 6.563333511352539 44.07095718383789 7.359999656677246 44.484291076660156 8.359999656677246 C 44.90428924560547 9.359999656677246 45.114288330078125 10.466667175292969 45.114288330078125 11.680000305175781 C 45.114288330078125 13.633333206176758 44.6342887878418 15.226666450500488 43.67428970336914 16.459999084472656 C 42.714290618896484 17.700000762939453 41.41762161254883 18.31999969482422 39.7842903137207 18.31999969482422 C 39.09095764160156 18.31999969482422 38.440956115722656 18.15333366394043 37.83428955078125 17.81999969482422 C 37.227622985839844 17.48666763305664 36.72428894042969 17.02666664123535 36.32429122924805 16.440000534057617 L 36.32429122924805 21.270000457763672 L 38.91429138183594 21.270000457763672 L 38.91429138183594 22.700000762939453 L 31.054288864135742 22.700000762939453 L 31.054288864135742 21.290000915527344 L 33.804290771484375 21.290000915527344 L 33.804290771484375 6.739999771118164 L 31.534290313720703 6.739999771118164 L 31.534290313720703 5.430000305175781 L 36.25428771972656 5.090000152587891 L 36.25428771972656 7.439999580383301 ZM 56.06263732910156 18.34000015258789 L 56.06263732910156 15.690000534057617 C 55.082637786865234 17.44333267211914 53.672637939453125 18.31999969482422 51.832637786865234 18.31999969482422 C 51.559303283691406 18.31999969482422 51.29597091674805 18.299999237060547 51.04263687133789 18.260000228881836 C 50.789302825927734 18.219999313354492 50.5059700012207 18.149999618530273 50.1926383972168 18.049999237060547 C 49.87263870239258 17.94333267211914 49.58597183227539 17.78333282470703 49.332637786865234 17.56999969482422 C 49.07263946533203 17.350000381469727 48.832637786865234 17.079999923706055 48.61263656616211 16.760000228881836 C 48.38597106933594 16.446666717529297 48.20930480957031 16.03333282470703 48.082637786865234 15.520000457763672 C 47.96263885498047 15.00666618347168 47.90263748168945 14.426666259765625 47.90263748168945 13.780000686645508 L 47.90263748168945 6.739999771118164 L 45.6926383972168 6.739999771118164 L 45.6926383972168 5.430000305175781 L 50.422637939453125 5.430000305175781 L 50.422637939453125 13.760000228881836 C 50.422637939453125 14.800000190734863 50.58597183227539 15.546667098999023 50.912635803222656 16 C 51.2459716796875 16.459999084472656 51.75930404663086 16.690000534057617 52.45263671875 16.690000534057617 C 52.94597244262695 16.690000534057617 53.469303131103516 16.540000915527344 54.02263641357422 16.239999771118164 C 54.57596969604492 15.946666717529297 55.039306640625 15.556666374206543 55.412635803222656 15.069999694824219 C 55.79263687133789 14.583333015441895 55.982635498046875 14.09666633605957 55.982635498046875 13.610000610351562 L 55.982635498046875 6.739999771118164 L 53.852638244628906 6.739999771118164 L 53.852638244628906 5.430000305175781 L 58.512638092041016 5.430000305175781 L 58.512638092041016 16.68000030517578 L 60.79263687133789 16.920000076293945 L 60.79263687133789 18 L 56.06263732910156 18.34000015258789 ZM 68.02666473388672 6.409999847412109 C 67.5133285522461 6.409999847412109 67.04666137695312 6.563333511352539 66.62666320800781 6.869999885559082 C 66.2066650390625 7.183333396911621 65.87666320800781 7.579999923706055 65.63666534423828 8.0600004196167 C 65.40332794189453 8.546667098999023 65.22332763671875 9.056666374206543 65.09666442871094 9.59000015258789 C 64.9699935913086 10.116666793823242 64.90666198730469 10.639999389648438 64.90666198730469 11.15999984741211 C 64.90666198730469 12.219999313354492 65.02999877929688 13.180000305175781 65.27666473388672 14.039999961853027 C 65.52333068847656 14.90666675567627 65.88333129882812 15.600000381469727 66.3566665649414 16.1200008392334 C 66.83666229248047 16.639999389648438 67.3933334350586 16.899999618530273 68.02666473388672 16.899999618530273 C 68.66666412353516 16.899999618530273 69.2266616821289 16.649999618530273 69.7066650390625 16.149999618530273 C 70.18666076660156 15.649999618530273 70.53999328613281 15.023333549499512 70.76666259765625 14.270000457763672 C 70.99333190917969 13.523333549499512 71.1066665649414 12.719999313354492 71.1066665649414 11.860000610351562 C 71.1066665649414 11.180000305175781 71.04999542236328 10.530000686645508 70.93666076660156 9.90999984741211 C 70.82333374023438 9.296667098999023 70.65332794189453 8.720000267028809 70.42666625976562 8.180000305175781 C 70.19332885742188 7.640000343322754 69.8699951171875 7.210000038146973 69.4566650390625 6.890000343322754 C 69.04332733154297 6.569999694824219 68.56666564941406 6.409999847412109 68.02666473388672 6.409999847412109 M 68.50666046142578 18.31999969482422 C 67.64666748046875 18.31999969482422 66.83999633789062 18.10333251953125 66.08666229248047 17.670000076293945 C 65.33332824707031 17.23666763305664 64.7633285522461 16.56999969482422 64.37666320800781 15.670000076293945 L 63.4666633605957 18 L 62.38666534423828 18 L 62.38666534423828 1.7999992370605469 L 59.9666633605957 1.7999992370605469 L 59.9666633605957 0.3600006103515625 L 64.90666198730469 0.3600006103515625 L 64.90666198730469 6.960000038146973 C 65.3066635131836 6.373332977294922 65.8133316040039 5.913332939147949 66.42666625976562 5.579999923706055 C 67.03999328613281 5.25333309173584 67.69332885742188 5.090000152587891 68.38666534423828 5.090000152587891 C 70.0199966430664 5.090000152587891 71.32999420166016 5.706666946411133 72.31666564941406 6.939999580383301 C 73.29666137695312 8.173333168029785 73.78666687011719 9.763333320617676 73.78666687011719 11.710000038146973 C 73.78666687011719 12.94333267211914 73.56666564941406 14.059999465942383 73.12666320800781 15.059999465942383 C 72.68666076660156 16.066667556762695 72.0633316040039 16.860000610351562 71.25666046142578 17.440000534057617 C 70.44332885742188 18.02666664123535 69.52666473388672 18.31999969482422 68.50666046142578 18.31999969482422 ZM 79.87103271484375 0.3600006103515625 L 79.87103271484375 16.690000534057617 L 82.39103698730469 16.690000534057617 L 82.39103698730469 18 L 74.73103332519531 18 L 74.73103332519531 16.690000534057617 L 77.35103607177734 16.690000534057617 L 77.35103607177734 1.7999992370605469 L 74.73103332519531 1.7999992370605469 L 74.73103332519531 0.3600006103515625 L 79.87103271484375 0.3600006103515625 ZM 84.79444122314453 1.489999771118164 C 84.79444122314453 1.0033340454101562 84.96444702148438 0.5900001525878906 85.304443359375 0.25 C 85.64444732666016 -0.09666633605957031 86.054443359375 -0.2700004577636719 86.5344467163086 -0.2700004577636719 C 87.00111389160156 -0.2700004577636719 87.40777587890625 -0.09666633605957031 87.75444030761719 0.25 C 88.10111236572266 0.5966663360595703 88.27444458007812 1.010000228881836 88.27444458007812 1.489999771118164 C 88.27444458007812 1.9566669464111328 88.10111236572266 2.359999656677246 87.75444030761719 2.6999998092651367 C 87.40777587890625 3.0399999618530273 87.00111389160156 3.2100000381469727 86.5344467163086 3.2100000381469727 C 86.054443359375 3.2100000381469727 85.64444732666016 3.0399999618530273 85.304443359375 2.6999998092651367 C 84.96444702148438 2.359999656677246 84.79444122314453 1.9566669464111328 84.79444122314453 1.489999771118164 M 88.02444458007812 5.430000305175781 L 88.02444458007812 16.690000534057617 L 90.31444549560547 16.690000534057617 L 90.31444549560547 18 L 83.23444366455078 18 L 83.23444366455078 16.690000534057617 L 85.50444793701172 16.690000534057617 L 85.50444793701172 6.739999771118164 L 83.21444702148438 6.739999771118164 L 83.21444702148438 5.430000305175781 L 88.02444458007812 5.430000305175781 ZM 91.25416564941406 11.949999809265137 C 91.25416564941406 11.043333053588867 91.39083099365234 10.183333396911621 91.6641616821289 9.369999885559082 C 91.9375 8.563333511352539 92.33082580566406 7.836667060852051 92.84416198730469 7.189999580383301 C 93.35749816894531 6.543333053588867 94.02416229248047 6.029999732971191 94.84416198730469 5.649999618530273 C 95.67082977294922 5.276666641235352 96.59082794189453 5.090000152587891 97.60416412353516 5.090000152587891 C 98.17082977294922 5.090000152587891 98.74082946777344 5.173333168029785 99.31416320800781 5.340000152587891 C 99.88749694824219 5.506667137145996 100.41749572753906 5.75 100.90415954589844 6.069999694824219 C 101.39749908447266 6.390000343322754 101.79749298095703 6.823333740234375 102.10416412353516 7.369999885559082 C 102.41749572753906 7.909999847412109 102.57416534423828 8.516666412353516 102.57416534423828 9.1899995803833 C 102.57416534423828 9.65666675567627 102.41082763671875 10.09000015258789 102.08415985107422 10.489999771118164 C 101.75749206542969 10.889999389648438 101.3074951171875 11.09000015258789 100.73416137695312 11.09000015258789 C 100.22749328613281 11.09000015258789 99.79749298095703 10.936666488647461 99.44416046142578 10.630000114440918 C 99.09749603271484 10.329999923706055 98.92416381835938 9.930000305175781 98.92416381835938 9.430000305175781 C 98.92416381835938 8.923333168029785 99.10416412353516 8.529999732971191 99.46416473388672 8.25 C 99.82416534423828 7.970000267028809 100.24749755859375 7.829999923706055 100.73416137695312 7.829999923706055 C 100.47416687011719 7.4166669845581055 100.10749816894531 7.076666831970215 99.63416290283203 6.810000419616699 C 99.16082763671875 6.543333053588867 98.6208267211914 6.409999847412109 98.01416015625 6.409999847412109 C 97.33415985107422 6.409999847412109 96.72416687011719 6.560000419616699 96.18416595458984 6.859999656677246 C 95.6441650390625 7.159999847412109 95.21416473388672 7.560000419616699 94.8941650390625 8.0600004196167 C 94.57416534423828 8.553333282470703 94.33082580566406 9.100000381469727 94.1641616821289 9.699999809265137 C 93.99749755859375 10.30666732788086 93.9141616821289 10.930000305175781 93.9141616821289 11.569999694824219 C 93.9141616821289 13.076666831970215 94.26082611083984 14.260000228881836 94.95416259765625 15.119999885559082 C 95.64749908447266 15.986666679382324 96.61083221435547 16.420000076293945 97.84416198730469 16.420000076293945 C 98.32416534423828 16.420000076293945 98.78416442871094 16.31999969482422 99.22416687011719 16.1200008392334 C 99.6641616821289 15.920000076293945 100.0374984741211 15.670000076293945 100.34416198730469 15.369999885559082 C 100.6441650390625 15.076666831970215 100.8941650390625 14.779999732971191 101.09416198730469 14.479999542236328 C 101.30082702636719 14.180000305175781 101.44082641601562 13.90333366394043 101.51416015625 13.649999618530273 L 102.84416198730469 14.09000015258789 C 102.54415893554688 15.369999885559082 101.9141616821289 16.393333435058594 100.95416259765625 17.15999984741211 C 99.9941635131836 17.933332443237305 98.78416442871094 18.31999969482422 97.32416534423828 18.31999969482422 C 96.48416137695312 18.31999969482422 95.69416046142578 18.170000076293945 94.95416259765625 17.8700008392334 C 94.21416473388672 17.56333351135254 93.57083129882812 17.143333435058594 93.02416229248047 16.610000610351562 C 92.47749328613281 16.06999969482422 92.0441665649414 15.396666526794434 91.72415924072266 14.59000015258789 C 91.41082763671875 13.783332824707031 91.25416564941406 12.90333366394043 91.25416564941406 11.949999809265137 ZM 118.67291259765625 0 C 119.74624633789062 0 120.7762451171875 0.22333335876464844 121.76290893554688 0.6700000762939453 C 122.74291229248047 1.1233329772949219 123.55290985107422 1.7700004577636719 124.19291687011719 2.609999656677246 C 124.83291625976562 3.456666946411133 125.15290832519531 4.396666526794434 125.15290832519531 5.430000305175781 C 125.15290832519531 5.956666946411133 124.94624328613281 6.443333625793457 124.53291320800781 6.890000343322754 C 124.1129150390625 7.336667060852051 123.55624389648438 7.560000419616699 122.8629150390625 7.560000419616699 C 122.26957702636719 7.560000419616699 121.78958129882812 7.386666297912598 121.42291259765625 7.039999961853027 C 121.05624389648438 6.693333625793457 120.87290954589844 6.216666221618652 120.87290954589844 5.609999656677246 C 120.87290954589844 5.010000228881836 121.10291290283203 4.546667098999023 121.56291198730469 4.220000267028809 C 122.02291107177734 3.8999996185302734 122.48624420166016 3.739999771118164 122.95291137695312 3.739999771118164 C 122.57291412353516 3.1533336639404297 122.0062484741211 2.6566667556762695 121.25291442871094 2.25 C 120.5062484741211 1.8433341979980469 119.63957977294922 1.6399993896484375 118.65291595458984 1.6399993896484375 C 117.05957794189453 1.6399993896484375 115.74958038330078 2.313333511352539 114.72291564941406 3.6599998474121094 C 113.69624328613281 5 113.18291473388672 6.796667098999023 113.18291473388672 9.050000190734863 C 113.18291473388672 9.90999984741211 113.319580078125 10.75666618347168 113.59291076660156 11.59000015258789 C 113.86624908447266 12.423333168029785 114.24958038330078 13.183333396911621 114.74291229248047 13.869999885559082 C 115.23624420166016 14.550000190734863 115.86624908447266 15.100000381469727 116.6329116821289 15.520000457763672 C 117.39958190917969 15.940000534057617 118.23957824707031 16.149999618530273 119.15291595458984 16.149999618530273 C 119.84624481201172 16.149999618530273 120.49291229248047 16.020000457763672 121.09291076660156 15.760000228881836 C 121.69957733154297 15.5 122.20957946777344 15.163333892822266 122.62290954589844 14.75 C 123.03624725341797 14.329999923706055 123.38624572753906 13.876667022705078 123.67291259765625 13.389999389648438 C 123.95291137695312 12.90333366394043 124.15957641601562 12.399999618530273 124.29291534423828 11.880000114440918 L 125.8629150390625 12.639999389648438 C 125.44957733154297 14.446666717529297 124.60958099365234 15.84333324432373 123.34291076660156 16.829999923706055 C 122.07624816894531 17.823333740234375 120.43624877929688 18.31999969482422 118.42291259765625 18.31999969482422 C 117.20957946777344 18.31999969482422 116.07958221435547 18.06999969482422 115.03291320800781 17.56999969482422 C 113.98624420166016 17.06999969482422 113.10291290283203 16.39666748046875 112.3829116821289 15.550000190734863 C 111.66291046142578 14.710000038146973 111.09957885742188 13.719999313354492 110.69290924072266 12.579999923706055 C 110.28624725341797 11.440000534057617 110.08291625976562 10.246665954589844 110.08291625976562 9 C 110.08291625976562 7.7133331298828125 110.29291534423828 6.513333320617676 110.7129135131836 5.399999618530273 C 111.1262435913086 4.293333053588867 111.70291137695312 3.3433332443237305 112.44290924072266 2.5500001907348633 C 113.18291473388672 1.7566661834716797 114.0895767211914 1.1333332061767578 115.16291046142578 0.6800003051757812 C 116.24291229248047 0.2266674041748047 117.41291046142578 0 118.67291259765625 0 ZM 129.46287536621094 15.319999694824219 C 129.46287536621094 15.706666946411133 129.5795440673828 16.023332595825195 129.81288146972656 16.270000457763672 C 130.03955078125 16.510000228881836 130.37954711914062 16.6299991607666 130.8328857421875 16.6299991607666 C 131.34620666503906 16.6299991607666 131.87954711914062 16.476667404174805 132.43287658691406 16.170000076293945 C 132.9862060546875 15.856666564941406 133.44288635253906 15.466667175292969 133.80288696289062 15 C 134.16287231445312 14.533332824707031 134.34288024902344 14.083333015441895 134.34288024902344 13.649999618530273 L 134.34288024902344 11.15999984741211 C 133.84288024902344 11.646666526794434 133.26620483398438 12.086666107177734 132.61288452148438 12.479999542236328 C 131.9595489501953 12.873332977294922 131.42288208007812 13.163333892822266 131.0028839111328 13.350000381469727 C 130.5828857421875 13.536666870117188 130.22288513183594 13.793333053588867 129.92288208007812 14.119999885559082 C 129.6162109375 14.446666717529297 129.46287536621094 14.84666633605957 129.46287536621094 15.319999694824219 M 141.0028839111328 14.329999923706055 C 141.0028839111328 15.109999656677246 140.92288208007812 15.770000457763672 140.76287841796875 16.309999465942383 C 140.59620666503906 16.850000381469727 140.35621643066406 17.260000228881836 140.04287719726562 17.540000915527344 C 139.72955322265625 17.81999969482422 139.38954162597656 18.020000457763672 139.0228729248047 18.139999389648438 C 138.65621948242188 18.260000228881836 138.22621154785156 18.31999969482422 137.73287963867188 18.31999969482422 C 137.21287536621094 18.31999969482422 136.72621154785156 18.21666717529297 136.2728729248047 18.010000228881836 C 135.81954956054688 17.809999465942383 135.42955017089844 17.483333587646484 135.10287475585938 17.030000686645508 C 134.7828826904297 16.5766658782959 134.58953857421875 16.030000686645508 134.5228729248047 15.390000343322754 C 134.18954467773438 16.23666763305664 133.6228790283203 16.93666648864746 132.8228759765625 17.489999771118164 C 132.0228729248047 18.043333053588867 131.15621948242188 18.31999969482422 130.22288513183594 18.31999969482422 C 129.26287841796875 18.31999969482422 128.47955322265625 18.06333351135254 127.87287902832031 17.549999237060547 C 127.2662124633789 17.036666870117188 126.96288299560547 16.329999923706055 126.96288299560547 15.430000305175781 C 126.96288299560547 14.963333129882812 127.06954956054688 14.536666870117188 127.28288269042969 14.149999618530273 C 127.4962158203125 13.763333320617676 127.77621459960938 13.440000534057617 128.1228790283203 13.180000305175781 C 128.46954345703125 12.926666259765625 128.86288452148438 12.683333396911621 129.30288696289062 12.449999809265137 C 129.7428741455078 12.210000038146973 130.19288635253906 12.00666618347168 130.6528778076172 11.84000015258789 C 131.11288452148438 11.673333168029785 131.56288146972656 11.489999771118164 132.0028839111328 11.289999961853027 C 132.44288635253906 11.083333969116211 132.83621215820312 10.880000114440918 133.18287658691406 10.680000305175781 C 133.529541015625 10.473333358764648 133.80953979492188 10.223333358764648 134.0228729248047 9.930000305175781 C 134.2362060546875 9.636666297912598 134.34288024902344 9.3100004196167 134.34288024902344 8.949999809265137 C 134.34288024902344 8.063333511352539 134.1228790283203 7.40333366394043 133.68287658691406 6.970000267028809 C 133.2428741455078 6.5366668701171875 132.62954711914062 6.319999694824219 131.84288024902344 6.319999694824219 C 131.28955078125 6.319999694824219 130.76287841796875 6.4066667556762695 130.26287841796875 6.579999923706055 C 129.76287841796875 6.75333309173584 129.37620544433594 6.993332862854004 129.10287475585938 7.300000190734863 C 129.60287475585938 7.300000190734863 129.99954223632812 7.436666488647461 130.29287719726562 7.710000038146973 C 130.58621215820312 7.976666450500488 130.73287963867188 8.293333053588867 130.73287963867188 8.65999984741211 C 130.73287963867188 9.15333366394043 130.5728759765625 9.553333282470703 130.2528839111328 9.859999656677246 C 129.92620849609375 10.166666030883789 129.54287719726562 10.319999694824219 129.10287475585938 10.319999694824219 C 128.64288330078125 10.319999694824219 128.2395477294922 10.15999984741211 127.89287567138672 9.84000015258789 C 127.54621124267578 9.513333320617676 127.37287902832031 9.043333053588867 127.37287902832031 8.430000305175781 C 127.37287902832031 8.109999656677246 127.47621154785156 7.763333320617676 127.68287658691406 7.390000343322754 C 127.89620971679688 7.016666412353516 128.1962127685547 6.65333366394043 128.5828857421875 6.300000190734863 C 128.96954345703125 5.953332901000977 129.4928741455078 5.663332939147949 130.1528778076172 5.430000305175781 C 130.81954956054688 5.203332901000977 131.54954528808594 5.090000152587891 132.34288024902344 5.090000152587891 C 132.98287963867188 5.090000152587891 133.5662078857422 5.159999847412109 134.09288024902344 5.300000190734863 C 134.61288452148438 5.446666717529297 135.08621215820312 5.676666259765625 135.51287841796875 5.989999771118164 C 135.93954467773438 6.310000419616699 136.26954650878906 6.75 136.5028839111328 7.310000419616699 C 136.7362060546875 7.863333702087402 136.85287475585938 8.523333549499512 136.85287475585938 9.289999961853027 L 136.85287475585938 14.680000305175781 C 136.85287475585938 14.986666679382324 136.89288330078125 15.279999732971191 136.97288513183594 15.559999465942383 C 137.0462188720703 15.833333015441895 137.19288635253906 16.08333396911621 137.41287231445312 16.309999465942383 C 137.626220703125 16.536666870117188 137.9028778076172 16.649999618530273 138.2428741455078 16.649999618530273 C 139.2362060546875 16.649999618530273 139.73287963867188 15.956666946411133 139.73287963867188 14.569999694824219 L 139.73287963867188 12.819999694824219 L 141.0028839111328 12.819999694824219 L 141.0028839111328 14.329999923706055 ZM 148.9143524169922 18 L 141.46435546875 18 L 141.46435546875 16.690000534057617 L 143.7543487548828 16.690000534057617 L 143.7543487548828 6.739999771118164 L 141.46435546875 6.739999771118164 L 141.46435546875 5.430000305175781 L 145.9143524169922 5.229999542236328 L 146.22434997558594 7.970000267028809 C 146.31768798828125 7.649999618530273 146.45101928710938 7.3333330154418945 146.6243438720703 7.020000457763672 C 146.7976837158203 6.706666946411133 147.01768493652344 6.396666526794434 147.2843475341797 6.090000152587891 C 147.55767822265625 5.789999961853027 147.89434814453125 5.546667098999023 148.29434204101562 5.359999656677246 C 148.69435119628906 5.180000305175781 149.13101196289062 5.090000152587891 149.60435485839844 5.090000152587891 C 150.23768615722656 5.090000152587891 150.78102111816406 5.263333320617676 151.23434448242188 5.609999656677246 C 151.69435119628906 5.9633331298828125 151.92434692382812 6.460000038146973 151.92434692382812 7.100000381469727 C 151.92434692382812 7.7133331298828125 151.74435424804688 8.186666488647461 151.3843536376953 8.520000457763672 C 151.03102111816406 8.853333473205566 150.6110076904297 9.020000457763672 150.1243438720703 9.020000457763672 C 149.6710205078125 9.020000457763672 149.28102111816406 8.880000114440918 148.954345703125 8.600000381469727 C 148.627685546875 8.319999694824219 148.46435546875 7.939999580383301 148.46435546875 7.460000038146973 C 148.46435546875 7.300000190734863 148.5043487548828 7.133333206176758 148.5843505859375 6.960000038146973 C 148.65768432617188 6.7866668701171875 148.73434448242188 6.65333366394043 148.81434631347656 6.560000419616699 L 148.94435119628906 6.430000305175781 C 148.47767639160156 6.430000305175781 148.06434631347656 6.576666831970215 147.704345703125 6.869999885559082 C 147.34434509277344 7.163332939147949 147.06434631347656 7.553333282470703 146.86434936523438 8.039999961853027 C 146.6643524169922 8.526666641235352 146.51768493652344 9.039999961853027 146.42434692382812 9.579999923706055 C 146.3243408203125 10.119999885559082 146.27435302734375 10.680000305175781 146.27435302734375 11.260000228881836 L 146.27435302734375 16.690000534057617 L 148.9143524169922 16.690000534057617 L 148.9143524169922 18 ZM 167.26202392578125 0 C 168.33535766601562 0 169.3653564453125 0.22333335876464844 170.35202026367188 0.6700000762939453 C 171.33201599121094 1.1233329772949219 172.1420135498047 1.7700004577636719 172.78201293945312 2.609999656677246 C 173.42201232910156 3.456666946411133 173.7420196533203 4.396666526794434 173.7420196533203 5.430000305175781 C 173.7420196533203 5.956666946411133 173.5353546142578 6.443333625793457 173.12200927734375 6.890000343322754 C 172.70201110839844 7.336667060852051 172.14535522460938 7.560000419616699 171.45201110839844 7.560000419616699 C 170.8586883544922 7.560000419616699 170.37867736816406 7.386666297912598 170.01202392578125 7.039999961853027 C 169.64535522460938 6.693333625793457 169.46202087402344 6.216666221618652 169.46202087402344 5.609999656677246 C 169.46202087402344 5.010000228881836 169.6920166015625 4.546667098999023 170.1520233154297 4.220000267028809 C 170.6120147705078 3.8999996185302734 171.07534790039062 3.739999771118164 171.54202270507812 3.739999771118164 C 171.16201782226562 3.1533336639404297 170.59535217285156 2.6566667556762695 169.84201049804688 2.25 C 169.09535217285156 1.8433341979980469 168.2286834716797 1.6399993896484375 167.2420196533203 1.6399993896484375 C 165.648681640625 1.6399993896484375 164.33868408203125 2.313333511352539 163.31201171875 3.6599998474121094 C 162.2853546142578 5 161.7720184326172 6.796667098999023 161.7720184326172 9.050000190734863 C 161.7720184326172 9.90999984741211 161.90867614746094 10.75666618347168 162.18202209472656 11.59000015258789 C 162.45535278320312 12.423333168029785 162.83868408203125 13.183333396911621 163.33201599121094 13.869999885559082 C 163.82534790039062 14.550000190734863 164.45535278320312 15.100000381469727 165.22201538085938 15.520000457763672 C 165.98867797851562 15.940000534057617 166.8286895751953 16.149999618530273 167.7420196533203 16.149999618530273 C 168.4353485107422 16.149999618530273 169.08201599121094 16.020000457763672 169.68202209472656 15.760000228881836 C 170.28868103027344 15.5 170.79867553710938 15.163333892822266 171.21202087402344 14.75 C 171.62535095214844 14.329999923706055 171.97535705566406 13.876667022705078 172.26202392578125 13.389999389648438 C 172.54202270507812 12.90333366394043 172.74868774414062 12.399999618530273 172.88201904296875 11.880000114440918 L 174.45201110839844 12.639999389648438 C 174.03868103027344 14.446666717529297 173.1986846923828 15.84333324432373 171.93202209472656 16.829999923706055 C 170.66534423828125 17.823333740234375 169.0253448486328 18.31999969482422 167.01202392578125 18.31999969482422 C 165.79867553710938 18.31999969482422 164.66868591308594 18.06999969482422 163.62200927734375 17.56999969482422 C 162.57534790039062 17.06999969482422 161.6920166015625 16.39666748046875 160.97201538085938 15.550000190734863 C 160.25201416015625 14.710000038146973 159.68869018554688 13.719999313354492 159.28201293945312 12.579999923706055 C 158.87535095214844 11.440000534057617 158.67201232910156 10.246665954589844 158.67201232910156 9 C 158.67201232910156 7.7133331298828125 158.88201904296875 6.513333320617676 159.30201721191406 5.399999618530273 C 159.71534729003906 4.293333053588867 160.29202270507812 3.3433332443237305 161.03201293945312 2.5500001907348633 C 161.7720184326172 1.7566661834716797 162.67868041992188 1.1333332061767578 163.75201416015625 0.6800003051757812 C 164.83201599121094 0.2266674041748047 166.00201416015625 0 167.26202392578125 0 ZM 180.2119903564453 0.3600006103515625 L 180.2119903564453 16.690000534057617 L 182.7319793701172 16.690000534057617 L 182.7319793701172 18 L 175.0719757080078 18 L 175.0719757080078 16.690000534057617 L 177.69198608398438 16.690000534057617 L 177.69198608398438 1.7999992370605469 L 175.0719757080078 1.7999992370605469 L 175.0719757080078 0.3600006103515625 L 180.2119903564453 0.3600006103515625 ZM 193.25540161132812 18.34000015258789 L 193.25540161132812 15.690000534057617 C 192.275390625 17.44333267211914 190.86538696289062 18.31999969482422 189.025390625 18.31999969482422 C 188.75205993652344 18.31999969482422 188.4887237548828 18.299999237060547 188.2353973388672 18.260000228881836 C 187.9820556640625 18.219999313354492 187.69873046875 18.149999618530273 187.38539123535156 18.049999237060547 C 187.06539916992188 17.94333267211914 186.7787322998047 17.78333282470703 186.525390625 17.56999969482422 C 186.26539611816406 17.350000381469727 186.025390625 17.079999923706055 185.80538940429688 16.760000228881836 C 185.5787353515625 16.446666717529297 185.4020538330078 16.03333282470703 185.275390625 15.520000457763672 C 185.1553955078125 15.00666618347168 185.09539794921875 14.426666259765625 185.09539794921875 13.780000686645508 L 185.09539794921875 6.739999771118164 L 182.88539123535156 6.739999771118164 L 182.88539123535156 5.430000305175781 L 187.61538696289062 5.430000305175781 L 187.61538696289062 13.760000228881836 C 187.61538696289062 14.800000190734863 187.7787322998047 15.546667098999023 188.1053924560547 16 C 188.438720703125 16.459999084472656 188.95205688476562 16.690000534057617 189.64540100097656 16.690000534057617 C 190.13873291015625 16.690000534057617 190.6620635986328 16.540000915527344 191.21539306640625 16.239999771118164 C 191.7687225341797 15.946666717529297 192.2320556640625 15.556666374206543 192.6053924560547 15.069999694824219 C 192.9853973388672 14.583333015441895 193.17539978027344 14.09666633605957 193.17539978027344 13.610000610351562 L 193.17539978027344 6.739999771118164 L 191.04539489746094 6.739999771118164 L 191.04539489746094 5.430000305175781 L 195.7053985595703 5.430000305175781 L 195.7053985595703 16.68000030517578 L 197.9853973388672 16.920000076293945 L 197.9853973388672 18 L 193.25540161132812 18.34000015258789 ZM 205.21942138671875 6.409999847412109 C 204.70608520507812 6.409999847412109 204.2394256591797 6.563333511352539 203.81942749023438 6.869999885559082 C 203.3994140625 7.183333396911621 203.06942749023438 7.579999923706055 202.8294219970703 8.0600004196167 C 202.59608459472656 8.546667098999023 202.4160919189453 9.056666374206543 202.28941345214844 9.59000015258789 C 202.16275024414062 10.116666793823242 202.09942626953125 10.639999389648438 202.09942626953125 11.15999984741211 C 202.09942626953125 12.219999313354492 202.22274780273438 13.180000305175781 202.46942138671875 14.039999961853027 C 202.71607971191406 14.90666675567627 203.07608032226562 15.600000381469727 203.54942321777344 16.1200008392334 C 204.0294189453125 16.639999389648438 204.58609008789062 16.899999618530273 205.21942138671875 16.899999618530273 C 205.8594207763672 16.899999618530273 206.41941833496094 16.649999618530273 206.8994140625 16.149999618530273 C 207.37942504882812 15.649999618530273 207.73275756835938 15.023333549499512 207.9594268798828 14.270000457763672 C 208.1860809326172 13.523333549499512 208.29942321777344 12.719999313354492 208.29942321777344 11.860000610351562 C 208.29942321777344 11.180000305175781 208.2427520751953 10.530000686645508 208.12942504882812 9.90999984741211 C 208.01608276367188 9.296667098999023 207.84608459472656 8.720000267028809 207.61941528320312 8.180000305175781 C 207.38609313964844 7.640000343322754 207.06275939941406 7.210000038146973 206.6494140625 6.890000343322754 C 206.236083984375 6.569999694824219 205.75941467285156 6.409999847412109 205.21942138671875 6.409999847412109 M 205.6994171142578 18.31999969482422 C 204.83941650390625 18.31999969482422 204.0327606201172 18.10333251953125 203.2794189453125 17.670000076293945 C 202.52609252929688 17.23666763305664 201.95608520507812 16.56999969482422 201.56942749023438 15.670000076293945 L 200.659423828125 18 L 199.5794219970703 18 L 199.5794219970703 1.7999992370605469 L 197.159423828125 1.7999992370605469 L 197.159423828125 0.3600006103515625 L 202.09942626953125 0.3600006103515625 L 202.09942626953125 6.960000038146973 C 202.49942016601562 6.373332977294922 203.00608825683594 5.913332939147949 203.61941528320312 5.579999923706055 C 204.23275756835938 5.25333309173584 204.88609313964844 5.090000152587891 205.5794219970703 5.090000152587891 C 207.21275329589844 5.090000152587891 208.5227508544922 5.706666946411133 209.50941467285156 6.939999580383301 C 210.4894256591797 8.173333168029785 210.9794158935547 9.763333320617676 210.9794158935547 11.710000038146973 C 210.9794158935547 12.94333267211914 210.75941467285156 14.059999465942383 210.31942749023438 15.059999465942383 C 209.87942504882812 16.066667556762695 209.25608825683594 16.860000610351562 208.4494171142578 17.440000534057617 C 207.63609313964844 18.02666664123535 206.71942138671875 18.31999969482422 205.6994171142578 18.31999969482422 Z" transform="matrix(1.515601634979248, 0, 0, 1.515601634979248, 510.0252685546875, 494.0550231933594)" style="fill: rgb(251, 251, 251);"/></svg>